<?xml version="1.0" encoding="utf-8"?>
<!-- Generator: Adobe Illustrator 25.3.1, SVG Export Plug-In . SVG Version: 6.00 Build 0)  -->
<svg version="1.1" id="레이어_1" xmlns="http://www.w3.org/2000/svg" xmlns:xlink="http://www.w3.org/1999/xlink" x="0px"
	 y="0px" viewBox="0 0 24.59967 20.00021" style="enable-background:new 0 0 24.59967 20.00021;" xml:space="preserve">
<style type="text/css">
	.st0{fill:#898989;}
</style>
<g id="그룹_405" transform="translate(-1609 -347)">
	<g id="그룹_404" transform="translate(1609 347)">
		<path id="패스_345" class="st0" d="M16.17743,16.5596c-1.6709,1.57355-3.87988,2.44922-6.17505,2.448H9.99237
			c-1.68286,0.00085-3.33215-0.4718-4.75903-1.36401C5.1098,17.56503,4.95758,17.54562,4.8183,17.5906l-3.552,1.14398
			l1.14404-3.55103c0.04529-0.13953,0.02625-0.29193-0.052-0.41602C-0.27606,10.548,1.00897,4.99173,5.22845,2.35733
			c3.85229-2.40515,8.89258-1.5661,11.75794,1.95721c0.35046-0.10828,0.70935-0.18689,1.073-0.23499
			C14.78924-0.37107,8.53033-1.32804,4.07965,1.9421c-4.10046,3.01294-5.28467,8.62463-2.75122,13.03748l0.06799,0.11902
			L0.0274,19.35263c-0.08423,0.26007,0.05823,0.53918,0.31836,0.62347c0.09961,0.03229,0.20703,0.03217,0.30664-0.00049
			l4.25305-1.36798l0.11804,0.06799c3.97559,2.26965,8.98413,1.55316,12.16394-1.74005
			C16.84088,16.83865,16.50299,16.71292,16.17743,16.5596z"/>
		<path id="패스_346" class="st0" d="M18.97845,16.21762c0.31201-0.00006,0.56494-0.25299,0.56494-0.565V11.1636h4.48999
			c0.31152,0.00128,0.56506-0.25024,0.56628-0.56171s-0.25024-0.565-0.56165-0.56628c-0.00159,0-0.00305,0-0.00464,0H19.5434v-4.492
			c0-0.31201-0.25293-0.565-0.56506-0.565c-0.31201,0-0.56494,0.25299-0.56494,0.565v4.49396h-4.48901
			c-0.31152-0.00128-0.56506,0.25024-0.56628,0.56171s0.25024,0.565,0.56165,0.56628c0.00159,0,0.00305,0,0.00464,0h4.48901v4.48901
			C18.41449,15.96585,18.66718,16.21768,18.97845,16.21762z"/>
	</g>
</g>
</svg>
