<?xml version="1.0" encoding="utf-8"?>
<!-- Generator: Adobe Illustrator 25.3.1, SVG Export Plug-In . SVG Version: 6.00 Build 0)  -->
<svg version="1.1" id="레이어_1" xmlns="http://www.w3.org/2000/svg" xmlns:xlink="http://www.w3.org/1999/xlink" x="0px"
	 y="0px" viewBox="0 0 50 50" style="enable-background:new 0 0 50 50;" xml:space="preserve">
<style type="text/css">
	.st0{fill:#898989;}
</style>
<g id="그룹_402" transform="translate(-287.739 -410.239)">
	<path id="패스_341" class="st0" d="M322.27908,440.71667c3.02487-5.26852,1.20599-11.99167-4.06253-15.01651
		c-1.66718-0.95718-3.55606-1.46072-5.47845-1.46048l0,0c-6.07513-0.00082-11.00067,4.92337-11.0015,10.9985
		c-0.00024,1.92242,0.5033,3.81131,1.46048,5.47849l0.07501,0.13l-1.50601,4.67899
		c-0.09262,0.28641,0.06448,0.59363,0.35086,0.68625c0.10928,0.03534,0.22693,0.03525,0.33615-0.00024l4.67801-1.50601l0.13,0.07599
		C312.53189,447.79703,319.24884,445.97894,322.27908,440.71667z M307.03607,443.59167l-3.90701,1.258l1.258-3.90701
		c0.04993-0.15356,0.02902-0.32135-0.05701-0.45801c-2.89728-4.64404-1.48126-10.75748,3.16278-13.65475
		c4.64404-2.89731,10.75748-1.48126,13.65475,3.16278c2.89731,4.64404,1.48126,10.75748-3.16278,13.65475
		c-1.57385,0.9819-3.39172,1.50238-5.24677,1.50223h-0.01099c-1.85083,0.00079-3.66455-0.51901-5.23401-1.5
		C307.35712,443.56281,307.18939,443.5415,307.03607,443.59167z"/>
	<circle id="타원_1" class="st0" cx="312.73807" cy="435.24066" r="0.768"/>
	<circle id="타원_2" class="st0" cx="308.30707" cy="435.24066" r="0.768"/>
	<path id="패스_342" class="st0" d="M317.93109,435.24066c0-0.42416-0.34384-0.76801-0.76801-0.76801
		s-0.76801,0.34387-0.76801,0.76801c0,0.42416,0.34384,0.76801,0.76801,0.76801S317.93109,435.66483,317.93109,435.24066
		L317.93109,435.24066z"/>
</g>
</svg>
