<?xml version="1.0" encoding="utf-8"?>
<!-- Generator: Adobe Illustrator 25.3.1, SVG Export Plug-In . SVG Version: 6.00 Build 0)  -->
<svg version="1.1" id="레이어_1" xmlns="http://www.w3.org/2000/svg" xmlns:xlink="http://www.w3.org/1999/xlink" x="0px"
	 y="0px" viewBox="0 0 50 50" style="enable-background:new 0 0 50 50;" xml:space="preserve">
<style type="text/css">
	.st0{fill:#1073F4;}
</style>
<g id="Layer_14" transform="translate(-2 -2)">
	<path id="패스_339" class="st0" d="M26.99995,26.476c2.89287,0,5.238-2.34513,5.238-5.238S29.89281,16,26.99995,16
		s-5.238,2.34513-5.238,5.238l0,0C21.76195,24.13087,24.10708,26.476,26.99995,26.476z M26.99995,17.048
		c2.31407,0,4.19,1.87593,4.19,4.19s-1.87593,4.19-4.19,4.19s-4.19-1.87593-4.19-4.19l0,0
		C22.80995,18.92393,24.68587,17.048,26.99995,17.048C26.99995,17.048,26.99995,17.048,26.99995,17.048z"/>
	<path id="패스_340" class="st0" d="M28.10995,27.524h-2.221c-5.47884,0.01764-9.90615,4.47316-9.889,9.952
		c0,0.2894,0.2346,0.524,0.524,0.524c0,0,0,0,0,0h20.952c0.30193-0.02729,0.53102-0.28393,0.524-0.587
		C37.98839,31.95586,33.56709,27.535,28.10995,27.524z M17.04795,36.952c0.25561-4.69338,4.13068-8.37099,8.831-8.381h2.221
		c4.70843-0.00112,8.59594,3.67953,8.852,8.381H17.04795z"/>
</g>
</svg>
