<?xml version="1.0" encoding="utf-8"?>
<!-- Generator: Adobe Illustrator 25.3.1, SVG Export Plug-In . SVG Version: 6.00 Build 0)  -->
<svg version="1.1" id="레이어_1" xmlns="http://www.w3.org/2000/svg" xmlns:xlink="http://www.w3.org/1999/xlink" x="0px"
	 y="0px" viewBox="0 0 7.50231 14.19763" style="enable-background:new 0 0 7.50231 14.19763;" xml:space="preserve">
<style type="text/css">
	.st0{fill:#FFFFFF;}
</style>
<g id="그룹_403" transform="translate(-483.62 -1215.359)">
	<g id="패스_343">
		<path class="st0" d="M483.98099,1222.71484l6.24966,6.24963c0.06876,0.07166,0.16379,0.11206,0.26306,0.11194
			c0.10233,0.0011,0.20059-0.03992,0.27185-0.11316c0.14352-0.14795,0.14001-0.38416-0.00787-0.52771l-5.98099-5.98193
			l5.98099-5.98096l0,0c0.1463-0.14636,0.1463-0.38354,0-0.52979c-0.14633-0.14636-0.38351-0.14636-0.52982,0l-6.24966,6.24963
			C483.83673,1222.33838,483.83798,1222.57043,483.98099,1222.71484z"/>
		<path class="st0" d="M490.49969,1229.30933c-0.15668-0.01099-0.32248-0.06384-0.43726-0.18311l-6.2471-6.24719
			c-0.2341-0.2373-0.23593-0.61023-0.00455-0.84937l6.25256-6.25171c0.22864-0.22949,0.6322-0.22815,0.85901,0.00049
			c0.11478,0.11389,0.17853,0.26685,0.17853,0.42908c0,0.1626-0.06375,0.31555-0.17853,0.43042l-5.81622,5.81567l5.81622,5.81726
			c0.11295,0.10925,0.17853,0.25952,0.18127,0.42175c0.00363,0.16211-0.0574,0.31604-0.17035,0.43262
			C490.82034,1229.2428,490.66275,1229.30933,490.49969,1229.30933z M484.14691,1222.55066l6.24893,6.24939
			c0.02826,0.0282,0.05194,0.02734,0.10022,0.04285c0.04099,0,0.07651-0.0155,0.10202-0.04187
			c0.0264-0.02734,0.04007-0.06287,0.04007-0.10022c-0.00092-0.03735-0.01639-0.07202-0.04282-0.09753l-6.14871-6.14966
			l6.146-6.14587c0.02731-0.02698,0.0419-0.0625,0.0419-0.10022c0-0.03735-0.01459-0.07288-0.0419-0.09937
			c-0.05286-0.05457-0.14667-0.05505-0.19949-0.00085l-6.24985,6.24976
			C484.09229,1222.40991,484.09229,1222.49561,484.14691,1222.55066z"/>
	</g>
</g>
</svg>
