<?xml version="1.0" encoding="utf-8"?>
<!-- Generator: Adobe Illustrator 25.3.1, SVG Export Plug-In . SVG Version: 6.00 Build 0)  -->
<svg version="1.1" id="레이어_1" xmlns="http://www.w3.org/2000/svg" xmlns:xlink="http://www.w3.org/1999/xlink" x="0px"
	 y="0px" viewBox="0 0 7.50231 14.19763" style="enable-background:new 0 0 7.50231 14.19763;" xml:space="preserve">
<style type="text/css">
	.st0{fill:#FFFFFF;}
</style>
<g id="그룹_403_1_" transform="translate(-483.62 -1215.359)">
	<g id="패스_343_1_">
		<path class="st0" d="M490.7641,1222.1925l-6.24966-6.24963c-0.1463-0.14636-0.38348-0.14636-0.52982,0
			c-0.1463,0.14624-0.1463,0.38342,0,0.52979l0,0l5.98099,5.98096l-5.98099,5.98193
			c-0.14789,0.14355-0.1514,0.37976-0.00787,0.52771c0.07126,0.07324,0.16953,0.11426,0.27185,0.11316
			c0.09927,0.00012,0.19431-0.04028,0.26306-0.11194l6.24966-6.24963C490.90433,1222.57043,490.90558,1222.33838,490.7641,1222.1925
			z"/>
		<path class="st0" d="M483.80902,1229.12524c-0.11295-0.11658-0.17398-0.27051-0.17035-0.43262
			c0.00275-0.16223,0.06833-0.3125,0.18127-0.42175l5.81622-5.81726l-5.81622-5.81567
			c-0.11478-0.11487-0.17853-0.26782-0.17853-0.43042c0-0.16223,0.06375-0.31519,0.17853-0.42908
			c0.22681-0.22864,0.63037-0.22998,0.85901-0.00049l6.25256,6.25171c0.23138,0.23914,0.22955,0.61206-0.00455,0.84937
			l-6.2471,6.24719c-0.11478,0.11926-0.28058,0.17212-0.43726,0.18311
			C484.07956,1229.30933,483.92197,1229.2428,483.80902,1229.12524z M490.59903,1222.35706l-6.24985-6.24976
			c-0.05283-0.0542-0.14664-0.05371-0.19949,0.00085c-0.02731,0.02649-0.0419,0.06201-0.0419,0.09937
			c0,0.03772,0.01459,0.07324,0.0419,0.10022l6.146,6.14587l-6.14871,6.14966c-0.02643,0.02551-0.0419,0.06018-0.04282,0.09753
			c0,0.03735,0.01367,0.07288,0.04007,0.10022c0.02551,0.02637,0.06104,0.04187,0.10202,0.04187
			c0.04828-0.0155,0.07196-0.01465,0.10022-0.04285l6.24893-6.24939
			C490.65002,1222.49561,490.65002,1222.40991,490.59903,1222.35706z"/>
	</g>
</g>
</svg>
