<?xml version="1.0" encoding="utf-8"?>
<!-- Generator: Adobe Illustrator 25.3.1, SVG Export Plug-In . SVG Version: 6.00 Build 0)  -->
<svg version="1.1" id="레이어_1" xmlns="http://www.w3.org/2000/svg" xmlns:xlink="http://www.w3.org/1999/xlink" x="0px"
	 y="0px" viewBox="0 0 17 17" style="enable-background:new 0 0 17 17;" xml:space="preserve">
<style type="text/css">
	.st0{fill:#444444;}
</style>
<path class="st0" d="M9.5,8.63333c1.26667-0.4,2.2-1.6,2.2-3C11.63333,3.9,10.23333,2.5,8.5,2.5S5.36667,3.9,5.36667,5.63333
	c0,1.4,0.93333,2.53333,2.2,3C4.7,9.1,2.5,11.5,2.5,14.5h0.66667c0-2.93333,2.4-5.33333,5.33333-5.33333
	s5.33333,2.4,5.33333,5.33333H14.5C14.5,11.5,12.3,9.1,9.5,8.63333z M6.03333,5.63333C6.03333,4.3,7.1,3.16667,8.5,3.16667
	S10.96667,4.3,10.96667,5.63333S9.83333,8.1,8.5,8.1S6.03333,6.96667,6.03333,5.63333z"/>
</svg>
