<svg xmlns="http://www.w3.org/2000/svg" width="18" height="18" viewBox="0 0 18 18"><path fill="#666" d="M17.8 13H9v1h9v-1zM9 17h9v1H9zm3.6-2H9v1h9v-1h-4.3zm-.6-3.8c-1-1-2.3-1.8-3.8-2 1.3-.5 2.3-1.8 2.3-3.3C10.5 4 9 2.4 7 2.4 5.1 2.4 3.5 4 3.5 5.9c0 1.5 1 2.8 2.3 3.3C2.6 9.8.2 12.6.2 16h1c-.1-3.3 2.6-6 5.8-6 1.3 0 2.5.4 3.5 1.2H12zM4.5 5.9c0-1.4 1.1-2.5 2.5-2.5s2.5 1.1 2.5 2.5S8.4 8.4 7 8.4 4.5 7.3 4.5 5.9zM11.7 1c1.4 0 2.5 1.1 2.5 2.5 0 1.2-.8 2.2-1.9 2.4h-.1v1c1.6 0 3.7 1.5 4.5 4.3h1c-.6-2.7-2.2-4.3-3.9-4.9.8-.6 1.4-1.6 1.4-2.8 0-1.9-1.6-3.5-3.5-3.5-.7 0-1.4.2-1.9.5l.5.8c.4-.2.9-.3 1.4-.3z"/></svg>