<?xml version="1.0" encoding="utf-8"?>
<!-- Generator: Adobe Illustrator 25.3.1, SVG Export Plug-In . SVG Version: 6.00 Build 0)  -->
<svg version="1.1" id="레이어_1" xmlns="http://www.w3.org/2000/svg" xmlns:xlink="http://www.w3.org/1999/xlink" x="0px"
	 y="0px" viewBox="0 0 50 50" style="enable-background:new 0 0 50 50;" xml:space="preserve">
<style type="text/css">
	.st0{fill:#98C3EA;}
	.st1{fill:#FFFFFF;}
</style>
<rect class="st0" width="50" height="50"/>
<path class="st1" d="M27.88366,25.38448c3.65265-1.15346,6.34406-4.61386,6.34406-8.65099
	C34.03547,11.73515,29.99834,7.69802,25,7.69802s-9.03547,4.03713-9.03547,9.03547c0,4.03713,2.69141,7.30527,6.34406,8.65099
	c-8.26651,1.34572-14.61057,8.26651-14.61057,16.9175h1.92245c0-8.45874,6.92079-15.37953,15.37953-15.37953
	s15.37953,6.92079,15.37953,15.37953h1.92245C42.30198,33.65099,35.95792,26.7302,27.88366,25.38448z M17.88695,16.73349
	c0-3.84487,3.07592-7.11302,7.11305-7.11302s7.11304,3.26814,7.11304,7.11302S28.84488,23.84654,25,23.84654
	S17.88695,20.57839,17.88695,16.73349z"/>
</svg>
