<?xml version="1.0" encoding="utf-8"?>
<!-- Generator: Adobe Illustrator 25.3.1, SVG Export Plug-In . SVG Version: 6.00 Build 0)  -->
<svg version="1.1" id="레이어_1" xmlns="http://www.w3.org/2000/svg" xmlns:xlink="http://www.w3.org/1999/xlink" x="0px"
	 y="0px" viewBox="0 0 500 191.38583" style="enable-background:new 0 0 500 191.38583;" xml:space="preserve">
<style type="text/css">
	.st0{fill:#1073F4;}
	.st1{fill:#FFFFFF;}
	.st2{fill:#A5A5A4;}
	.st3{fill:#35495E;}
</style>
<g id="그룹_7" transform="translate(-1561.685 -221.822)">
	<g id="그룹_3" transform="translate(1561.685 281)">
		<g id="그룹_1" transform="translate(0 0)">
			<path id="패스_1" class="st0" d="M0,78.30909h48.79556v13.69672H33.08339v38.33603h-17.3597V92.00581H0V78.30909z"/>
			<path id="패스_2" class="st0" d="M106.92551,98.27321H90.43339c-0.14604-2.30951-1.15826-4.47888-2.83472-6.07417
				c-1.6787-1.47978-3.86098-2.25959-6.0972-2.17885c-2.92207-0.07162-5.70848,1.23052-7.52818,3.51792
				c-1.9371,2.34378-2.90803,6.14466-2.9128,11.40279c-0.13425,2.80601,0.28816,5.61089,1.24252,8.25301
				c0.70047,1.72238,1.91013,3.1898,3.46722,4.20589c1.6714,0.97711,3.58743,1.45612,5.522,1.3805
				c2.33872,0.11761,4.63448-0.6608,6.41934-2.1766c1.70567-1.72308,2.70805-4.01989,2.81169-6.44224h16.78197
				c-0.2626,2.79681-0.93077,5.54053-1.98344,8.14488c-1.1608,2.48428-2.78333,4.7252-4.78109,6.60331
				c-2.28311,2.23579-5.00465,3.97417-7.993,5.10548c-3.42481,1.26787-7.0569,1.88127-10.70808,1.80846
				c-3.81436,0.03659-7.60851-0.55968-11.22795-1.76471c-3.19872-1.05338-6.14494-2.75714-8.65331-5.00423
				c-2.28649-2.09767-4.14185-4.6212-5.46217-7.42931c-1.89806-4.05878-2.85439-8.494-2.79765-12.97427
				c-0.02865-3.85832,0.65468-7.68884,2.01545-11.2993c1.21247-3.27771,3.09283-6.26753,5.522-8.7799
				c2.2275-2.27961,4.88163-4.09881,7.81129-5.35397c3.84217-1.53539,7.94919-2.29849,12.08627-2.24562
				c3.67197-0.03012,7.32427,0.53792,10.81368,1.68186c3.1226,0.9682,5.97446,2.6554,8.32667,4.92601
				c2.14268,2.13335,3.83515,4.67542,4.97656,7.47531C106.14697,93.37016,106.71094,95.80023,106.92551,98.27321z"/>
			<path id="패스_3" class="st0" d="M165.31076,98.27321h-16.48061c-0.15446-2.30685-1.16444-4.47298-2.83218-6.07417
				c-1.68095-1.48042-3.86549-2.26015-6.10394-2.17885c-2.92067-0.07169-5.70596,1.23067-7.5237,3.51792
				c-1.94804,2.34378-2.92122,6.14466-2.91982,11.40279c-0.1337,2.80657,0.29097,5.6118,1.24927,8.25301
				c0.69119,1.72308,1.89609,3.19156,3.4512,4.20589c1.66719,0.97304,3.57677,1.45184,5.50571,1.3805
				c2.34097,0.11929,4.63954-0.65918,6.42609-2.1766c1.70595-1.72294,2.70834-4.01981,2.81169-6.44224h16.79602
				c-0.26514,2.79582-0.93161,5.53899-1.97867,8.14488c-1.16528,2.48392-2.79091,4.72456-4.79034,6.60331
				c-2.27722,2.23874-4.99623,3.97761-7.98373,5.10548c-3.42819,1.26668-7.06308,1.88008-10.71707,1.80846
				c-3.81212,0.03638-7.60402-0.55997-11.22095-1.76471c-6.23032-1.9984-11.34788-6.49982-14.12474-12.42435
				c-1.88963-4.06116-2.84203-8.49532-2.78642-12.97427c-0.03568-3.85874,0.64682-7.69038,2.01321-11.29929
				c1.21219-3.28094,3.09789-6.27168,5.53576-8.77991c2.21992-2.28423,4.87209-4.10414,7.80202-5.35397
				c3.84414-1.5368,7.95341-2.29997,12.09301-2.24562c3.67197-0.02872,7.32399,0.53932,10.81367,1.68186
				c3.11588,0.96834,5.96014,2.65575,8.30365,4.92601c2.15475,2.12492,3.85088,4.66909,4.98358,7.47531
				C164.53812,93.37374,165.10321,95.80185,165.31076,98.27321z"/>
		</g>
		<g id="그룹_2" transform="translate(80.611 1.352)">
			<path id="패스_4" class="st0" d="M132.74524,85.89803c2.85242,5.04692,4.24127,10.78925,4.01041,16.58192
				c0.25867,6.0326-1.12738,12.02195-4.01041,17.3274c-2.25447,4.49953-6.87659,7.32049-11.90905,7.26825
				c-5.06391,0.05589-9.7231-2.75938-12.02869-7.26825c-2.84427-5.31802-4.20841-11.3021-3.95058-17.3274
				c-0.23115-5.78523,1.1358-11.52236,3.95058-16.58192c2.37355-4.42376,7.00859-7.16236,12.02869-7.10717
				C125.82455,78.73967,130.42195,81.48354,132.74524,85.89803z M115.35352,89.77257
				c-1.25994,4.09586-1.83739,8.37111-1.70959,12.65444c-0.14071,4.5644,0.43617,9.12256,1.70959,13.50805
				c1.25797,3.65835,3.06559,5.4897,5.42313,5.49433c2.31766,0,4.10618-1.83142,5.36555-5.49433
				c1.31612-4.37742,1.91351-8.93929,1.76942-13.50805c0.13088-4.2879-0.46735-8.56694-1.76942-12.65444
				c-1.29757-3.55401-3.08609-5.33094-5.36555-5.33094c-2.31934,0-4.12696,1.77693-5.42342,5.33094H115.35352z M151.86031,79.01631
				v20.988h5.95901v5.98212h-5.95901v24.86941h-8.72688V79.02088L151.86031,79.01631z"/>
			<path id="패스_5" class="st0" d="M193.11589,85.89803c2.85242,5.04706,4.241,10.78932,4.01013,16.58192
				c0.25839,6.03253-1.12738,12.02188-4.01013,17.3274c-2.25475,4.49953-6.87659,7.32049-11.90904,7.26825
				c-5.06279,0.05505-9.72113-2.76009-12.02644-7.26825c-2.84343-5.31823-4.20784-11.30217-3.95058-17.3274
				c-0.2303-5.78516,1.13692-11.52201,3.95058-16.58192c2.37215-4.42418,7.00691-7.16306,12.02644-7.10717
				C186.19493,78.74072,190.79205,81.48424,193.11589,85.89803z M175.72389,89.77257
				c-1.25993,4.09586-1.83739,8.37111-1.70932,12.65444c-0.14043,4.5644,0.4359,9.12256,1.70932,13.50805
				c1.25601,3.65835,3.06419,5.4897,5.42285,5.49433c2.31654,0,4.10506-1.83142,5.36555-5.49433
				c1.31387-4.37784,1.91098-8.93951,1.76718-13.50805c0.13031-4.28768-0.4668-8.56652-1.76718-12.65444
				c-1.29869-3.55401-3.08722-5.33094-5.36555-5.33094C178.82628,84.44163,177.0181,86.21856,175.72389,89.77257z
				 M212.99687,79.05767v51.78202h-8.7269v-51.7797L212.99687,79.05767z"/>
			<path id="패스_6" class="st0" d="M245.62498,105.33061c-2.33395,2.20876-5.45599,3.39041-8.66734,3.28094
				c-3.85397,0.16206-7.54504-1.56257-9.8936-4.62233c-4.39883-6.17198-4.39883-14.45476,0-20.62674
				c2.36766-3.03056,6.05142-4.73285,9.8936-4.5717c3.43547-0.10532,6.75581,1.24393,9.14368,3.71578
				c2.19914,2.43359,3.56131,5.50704,3.88824,8.77071h2.94734v-12.2196h8.51286v37.0867h-8.51286V97.4687h-3.1844
				C249.26605,100.4678,247.81738,103.22725,245.62498,105.33061z M238.35463,124.54006h36.31581v5.85783h-37.31679
				c-2.09691,0.17267-4.19662-0.30107-6.0166-1.35747c-1.23016-1.1141-1.86378-2.74203-1.71156-4.39455v-11.73414h8.7314
				L238.35463,124.54006z M232.9756,87.34747c-1.65034,4.0743-1.65034,8.63078,0,12.70507
				c0.73866,2.16467,3.09283,3.3204,5.25714,2.58153c1.21388-0.41434,2.16711-1.36771,2.58167-2.58153
				c1.81212-4.04115,1.81212-8.66391,0-12.70507c-0.61284-1.63243-2.14803-2.7355-3.89047-2.79547
				c-1.75594,0.06418-3.30742,1.16262-3.95114,2.79779L232.9756,87.34747z M274.37384,79.06455v38.86525h-8.51288V79.05999
				L274.37384,79.06455z"/>
			<path id="패스_7" class="st0" d="M306.76886,120.17773c-2.32327,4.59095-5.54474,6.88705-9.6633,6.8886
				c-4.20447,0-7.48492-2.38521-9.84302-7.15548c-2.36655-5.44582-3.47424-11.35512-3.2417-17.28829
				c-0.22244-5.78439,0.88638-11.54259,3.2417-16.83041c2.35587-4.70139,5.63687-7.05346,9.84302-7.05655
				c3.70963,0.05006,7.09848,2.11474,8.8443,5.38852c2.36035,4.11032,3.71411,8.72113,3.95059,13.45511h3.41919V79.0048h8.51288
				v51.83033h-8.51288v-27.40264h-3.1243C310.3223,109.20052,309.15167,114.92326,306.76886,120.17773z M293.29318,89.71731
				c-0.9274,4.24141-1.34421,8.5786-1.2403,12.91901c-0.10727,4.51862,0.30896,9.03444,1.2403,13.45743
				c0.86505,3.58771,2.12274,5.38156,3.77307,5.38156c1.57056,0,2.80804-1.79385,3.71353-5.38156
				c0.92685-4.42355,1.3425-8.93902,1.23804-13.45743c0.1011-4.3402-0.31458-8.67704-1.23804-12.91901
				c-0.90381-3.55092-2.14127-5.32715-3.71353-5.3287c-1.66101,0-2.92209,1.77862-3.78207,5.33565L293.29318,89.71731z
				 M334.7493,79.05767v51.78202h-8.51288V79.06006L334.7493,79.05767z"/>
			<path id="패스_8" class="st0" d="M381.71814,96.34371c4.39041,3.93373,9.67114,6.74086,15.38776,8.17936l-3.8927,4.56939
				c-4.72858-1.35297-9.2774-3.27034-13.54761-5.71059c-3.43436-1.99123-6.42328-4.66628-8.78192-7.85953
				c-2.22891,3.22407-5.14987,5.9093-8.54996,7.85953c-4.31064,2.44896-8.90439,4.36275-13.67847,5.69907l-3.50177-4.54867
				c5.56049-1.50948,10.67606-4.33375,14.91592-8.23462c4.40952-4.45318,6.77942-10.53317,6.54575-16.79587h8.66736
				C375.01736,85.76244,377.3457,91.85535,381.71814,96.34371z M396.57901,121.44786v5.75202h-51.05704v-5.75202H396.57901z"/>
		</g>
	</g>
	<circle id="타원_10" class="st1" cx="2058.23389" cy="324.61749" r="3.45121"/>
	<g id="Page-1" transform="translate(1629 221.822)">
		<g id="_019---Chat-Bot">
			<path id="Shape" class="st2" d="M133.26479,35.78447c-0.83611,0.00087-1.60687-0.4519-2.01321-1.18261l-9.02377-16.25061
				c-0.6201-1.11059-0.22248-2.5136,0.88811-3.1337c1.1106-0.6201,2.5136-0.22248,3.13371,0.88811l0,0l9.02377,16.25061
				c0.61629,1.11124,0.21504,2.51169-0.89619,3.12798c-0.34042,0.18879-0.72316,0.28813-1.11241,0.28872V35.78447z"/>
			<path id="Shape-2" class="st2" d="M174.51367,37.21788c-1.27071-0.00192-2.29924-1.03359-2.29732-2.30429
				c0.00058-0.38926,0.09991-0.772,0.28871-1.11242l9.81985-17.68401c0.59436-1.12313,1.98665-1.55178,3.10979-0.95742
				c1.12312,0.59436,1.55177,1.98666,0.95741,3.10979c-0.01457,0.02754-0.02971,0.05479-0.04539,0.08172l-9.81984,17.68401
				C176.12053,36.76598,175.34976,37.21874,174.51367,37.21788z"/>
			<path id="Shape-3" class="st0" d="M128.97838,29.91051h50.61778c22.87262,0,41.41455,18.54192,41.41455,41.41455v4.60162
				c0,22.87262-18.54193,41.41454-41.41455,41.41454h-49.27872c-0.87479-0.00047-1.73143,0.24941-2.46877,0.72015
				l-20.64285,13.13531c-1.07194,0.68237-2.49409,0.36655-3.17645-0.7054c-0.23521-0.36949-0.36007-0.79846-0.35989-1.23648
				v-18.40646c-0.01562-1.37511-0.63175-2.67463-1.68649-3.55705c-9.15935-7.84505-14.42773-19.30483-14.41917-31.36462v-4.60162
				C87.56383,48.45243,106.10575,29.91051,128.97838,29.91051z"/>
			<circle id="Oval" class="st0" cx="119.77515" cy="9.20323" r="9.20323"/>
			<circle id="Oval-2" class="st1" cx="119.77515" cy="69.02425" r="9.20323"/>
			<circle id="Oval-3" class="st1" cx="188.79939" cy="69.02425" r="9.20323"/>
			<circle id="Oval-4" class="st0" cx="188.79939" cy="9.20323" r="9.20323"/>
			<path id="Shape-4" class="st3" d="M145.08403,80.52829h18.40646c1.27071,0,2.30081,1.03011,2.30081,2.3008v2.30081
				c0,6.35351-5.15053,11.50404-11.50404,11.50404c-6.3535,0-11.50404-5.15053-11.50404-11.50404v-2.30081
				C142.78322,81.5584,143.81334,80.52829,145.08403,80.52829z"/>
		</g>
	</g>
</g>
</svg>
