<?xml version="1.0" encoding="utf-8"?>
<!-- Generator: Adobe Illustrator 23.1.0, SVG Export Plug-In . SVG Version: 6.00 Build 0)  -->
<svg version="1.1" id="레이어_1" xmlns="http://www.w3.org/2000/svg" xmlns:xlink="http://www.w3.org/1999/xlink" x="0px"
	 y="0px" viewBox="0 0 100 100" style="enable-background:new 0 0 100 100;" xml:space="preserve">
<style type="text/css">
	.st0{fill:#047BC2;}
	.st1{fill:#FFFFFF;}
</style>
<circle class="st0" cx="50" cy="50" r="50"/>
<g>
	<path class="st1" d="M68,22.5H55.3l1.9-2.5c0.4-0.5,0.3-1.1-0.2-1.5c-0.5-0.4-1.1-0.3-1.5,0.2l-2.9,3.8h-5.2l-1.8-3.7
		c-0.3-0.5-0.9-0.7-1.4-0.5c-0.5,0.3-0.7,0.9-0.5,1.4l1.4,2.7H32c-1.8,0-3.2,1.4-3.2,3.2v53c0,1.8,1.4,3.2,3.2,3.2h36
		c1.8,0,3.2-1.4,3.2-3.2v-53C71.2,23.9,69.8,22.5,68,22.5z M32,24.6h14.2l1.1,2.1c-0.9,0.8-1.5,1.9-1.5,3.2c0,2.3,1.9,4.2,4.2,4.2
		s4.2-1.9,4.2-4.2s-1.9-4.2-4.2-4.2c-0.3,0-0.6,0-0.9,0.1l-0.6-1.2H68c0.6,0,1.1,0.5,1.1,1.1v34.9h-8.6c-0.3-1.3-1.2-2.3-2.3-2.9
		l-3.9-2v-0.4c1.7-0.9,2.9-2.5,3.6-4.6c1-0.5,1.7-1.6,1.7-2.8v-1.1c0-1-0.5-1.9-1.2-2.5c-0.7-4-3.5-6-8.3-6c-0.2,0-0.5,0-0.7,0
		c-0.9,0.1-2.3,0-3.4-0.8c-0.4-0.3-0.8-0.6-1-0.8c-0.4-0.5-1-0.6-1.5-0.4c-0.5,0.2-0.8,0.7-0.8,1.3c0,0.4,0.1,0.9,0.2,1.4
		c0.2,1,0.2,1-0.1,1.7c-0.1,0.2-0.2,0.5-0.4,0.9c-0.4,0.9-0.6,1.8-0.7,2.8c-0.8,0.6-1.2,1.5-1.2,2.5v1.1c0,1.2,0.7,2.2,1.7,2.8
		c0.7,2.1,1.9,3.7,3.6,4.6v0.4l-4,2c-1.1,0.6-1.9,1.7-2.2,2.9h-8.6V25.6C30.9,25.1,31.4,24.6,32,24.6z M48.2,28.7l0.8,1.6
		c0.2,0.4,0.6,0.6,0.9,0.6c0.2,0,0.3,0,0.5-0.1c0.5-0.3,0.7-0.9,0.5-1.4l-0.8-1.6c1.1,0.1,2,1,2,2.1c0,1.2-0.9,2.1-2.1,2.1
		s-2.1-0.9-2.1-2.1C47.9,29.4,48,29,48.2,28.7z M46.8,57.5c0.6-0.3,1-1,1-1.7v-1.9l-0.6-0.3c-1.6-0.7-2.7-2-3.2-4l-0.2-0.6l-0.6-0.2
		c-0.4-0.1-0.8-0.5-0.8-1v-1.1c0-0.4,0.2-0.7,0.6-0.9l0.5-0.3l0.1-0.6c0.1-1,0.3-1.9,0.7-2.7c0.1-0.3,0.3-0.6,0.4-0.8
		c0.4-0.8,0.5-1.2,0.4-2c1.2,0.7,2.7,1,4.4,0.9c0.2,0,0.3,0,0.5,0c4,0,5.9,1.4,6.3,4.7l0.1,0.6l0.5,0.3c0.4,0.2,0.6,0.5,0.6,0.9v1.1
		c0,0.5-0.3,0.9-0.8,1l-0.6,0.2L56,49.6c-0.5,2-1.6,3.3-3.2,4l-0.6,0.3v1.9c0,0.7,0.4,1.3,1,1.7l4,2c0.5,0.2,0.8,0.6,1,1H41.8
		c0.2-0.4,0.6-0.8,1-1L46.8,57.5z M68,79.7H32c-0.6,0-1.1-0.5-1.1-1.1V62.7h8.5h21.2h8.5v15.9C69.1,79.2,68.6,79.7,68,79.7z"/>
	<path class="st1" d="M59.5,70.1H40.5c-0.6,0-1.1,0.5-1.1,1.1s0.5,1.1,1.1,1.1h19.1c0.6,0,1.1-0.5,1.1-1.1S60.1,70.1,59.5,70.1z"/>
	<path class="st1" d="M44.7,68h10.6c0.6,0,1.1-0.5,1.1-1.1s-0.5-1.1-1.1-1.1H44.7c-0.6,0-1.1,0.5-1.1,1.1S44.1,68,44.7,68z"/>
	<path class="st1" d="M41.5,74.4h-1.1c-0.6,0-1.1,0.5-1.1,1.1c0,0.6,0.5,1.1,1.1,1.1h1.1c0.6,0,1.1-0.5,1.1-1.1
		C42.6,74.8,42.1,74.4,41.5,74.4z"/>
	<path class="st1" d="M47.9,74.4h-2.1c-0.6,0-1.1,0.5-1.1,1.1c0,0.6,0.5,1.1,1.1,1.1h2.1c0.6,0,1.1-0.5,1.1-1.1
		C48.9,74.8,48.5,74.4,47.9,74.4z"/>
	<path class="st1" d="M53.2,74.4h-1.1c-0.6,0-1.1,0.5-1.1,1.1c0,0.6,0.5,1.1,1.1,1.1h1.1c0.6,0,1.1-0.5,1.1-1.1
		C54.2,74.8,53.8,74.4,53.2,74.4z"/>
	<path class="st1" d="M59.5,74.4h-2.1c-0.6,0-1.1,0.5-1.1,1.1c0,0.6,0.5,1.1,1.1,1.1h2.1c0.6,0,1.1-0.5,1.1-1.1
		C60.6,74.8,60.1,74.4,59.5,74.4z"/>
</g>
</svg>
