<?xml version="1.0" encoding="utf-8"?>
<!-- Generator: Adobe Illustrator 23.1.0, SVG Export Plug-In . SVG Version: 6.00 Build 0)  -->
<svg version="1.1" id="레이어_1" xmlns="http://www.w3.org/2000/svg" xmlns:xlink="http://www.w3.org/1999/xlink" x="0px"
	 y="0px" viewBox="0 0 100 100" style="enable-background:new 0 0 100 100;" xml:space="preserve">
<style type="text/css">
	.st0{fill:#047BC2;}
	.st1{fill:#FFFFFF;}
</style>
<circle class="st0" cx="50" cy="50" r="50"/>
<g>
	<path class="st1" d="M75.2,23.9h-8.3c-0.4-1.1-1.4-1.8-2.5-1.8H51.7c-1.1,0-2.2,0.8-2.5,1.8h-8.3c-1.5,0-2.7,1.2-2.7,2.7v11.7h-3.1
		c-1.1,0-2.2,0.3-3.2,0.8l-4.8,2.8H22v16.2H28l3.8,2.5c1.1,0.7,2.3,1.1,3.5,1.1h2.9v13.5c0,1.5,1.2,2.7,2.7,2.7h34.2
		c1.5,0,2.7-1.2,2.7-2.7V26.7C77.9,25.2,76.7,23.9,75.2,23.9z M43.7,45.5h1.8c2,0,3.6-1.6,3.6-3.6c0-2-1.6-3.6-3.6-3.6h-1.8v-9h5.5
		c0.4,1.1,1.4,1.8,2.5,1.8h12.6c1.1,0,2.2-0.8,2.5-1.8h5.5v43.2H43.7V45.5z M50.9,24.8c0-0.5,0.4-0.9,0.9-0.9h12.6
		c0.5,0,0.9,0.4,0.9,0.9v3.6c0,0.5-0.4,0.9-0.9,0.9H51.7c-0.5,0-0.9-0.4-0.9-0.9V24.8z M40.1,26.7c0-0.5,0.4-0.9,0.9-0.9h8.2v1.8
		h-7.2v10.8h-1.8L40.1,26.7L40.1,26.7z M35.4,59.9c-0.9,0-1.8-0.3-2.5-0.8l-4.3-2.8h-4.7V43.7h3.9l5.3-3c0.7-0.4,1.5-0.6,2.2-0.6
		h10.3c1,0,1.8,0.8,1.8,1.8s-0.8,1.8-1.8,1.8H34.7v0.9c0,2.5-2,4.5-4.5,4.5v1.8c3.2,0,5.8-2.4,6.2-5.4h1.8v14.4h-2.9V59.9z
		 M76.1,75.2c0,0.5-0.4,0.9-0.9,0.9H41c-0.5,0-0.9-0.4-0.9-0.9V45.5h1.8v28.8h32.4V27.5h-7.2v-1.8h8.1c0.5,0,0.9,0.4,0.9,0.9V75.2z"
		/>
	<path class="st1" d="M52.7,25.7h1.8v1.8h-1.8V25.7z"/>
	<path class="st1" d="M61.7,25.7h1.8v1.8h-1.8C61.7,27.4,61.7,25.7,61.7,25.7z"/>
	<path class="st1" d="M64.7,63.7l-3.1-0.9v-0.4c1.7-1.1,2.7-3,2.7-5.2v-1.8c0-3.5-2.8-6.3-6.3-6.3c-3.5,0-6.3,2.8-6.3,6.2v1.8
		c0,2.1,1.1,4,2.7,5.2v0.4l-3.1,0.9c-1.9,0.5-3.2,2.4-3.2,4.3v2.7h19.8v-2.7C68,66,66.7,64.2,64.7,63.7z M53.6,57.2v-1.8
		c0-2.5,2-4.5,4.5-4.5c2.5,0,4.5,2,4.5,4.5v1.8c0,2.5-2,4.5-4.5,4.5C55.6,61.7,53.6,59.7,53.6,57.2z M59.8,63.3l-1.8,2.4l-1.8-2.4
		c0.5,0.2,1.1,0.3,1.8,0.3C58.7,63.5,59.3,63.4,59.8,63.3z M66.1,68.9H50V68c0-1.2,0.8-2.3,1.9-2.6l3.1-0.9l3.1,4l3.1-4l3.1,0.9
		c1.1,0.4,1.9,1.4,1.9,2.6C66.1,68,66.1,68.9,66.1,68.9z"/>
	<path class="st1" d="M45.5,32.9h1.8v1.8h-1.8V32.9z"/>
	<path class="st1" d="M49.1,32.9h21.6v1.8H49.1V32.9z"/>
	<path class="st1" d="M50.9,36.5h19.8v1.8H50.9V36.5z"/>
	<path class="st1" d="M50.9,40.1h19.8v1.8H50.9V40.1z"/>
	<path class="st1" d="M68.9,43.7h1.8v1.8h-1.8V43.7z"/>
	<path class="st1" d="M50.9,43.7H67v1.8H50.9V43.7z"/>
</g>
</svg>
