<?xml version="1.0" encoding="utf-8"?>
<!-- Generator: Adobe Illustrator 23.1.0, SVG Export Plug-In . SVG Version: 6.00 Build 0)  -->
<svg version="1.1" id="레이어_1" xmlns="http://www.w3.org/2000/svg" xmlns:xlink="http://www.w3.org/1999/xlink" x="0px"
	 y="0px" viewBox="0 0 100 100" style="enable-background:new 0 0 100 100;" xml:space="preserve">
<style type="text/css">
	.st0{fill:#047BC2;}
	.st1{fill:#FFFFFF;}
</style>
<circle class="st0" cx="50" cy="50" r="50"/>
<g>
	<path class="st1" d="M73.4,57c-0.8,0-1.4,0.6-1.4,1.4v12.2c0,2.3-1.9,4.1-4.1,4.1H29.2c-2.3,0-4.1-1.9-4.1-4.1V34.7
		c0-2.3,1.9-4.1,4.1-4.1h12.2c0.8,0,1.4-0.6,1.4-1.4c0-0.8-0.6-1.4-1.4-1.4H29.2c-3.8,0-6.9,3.1-6.9,6.9v35.9c0,3.8,3.1,6.9,6.9,6.9
		h38.7c3.8,0,6.9-3.1,6.9-6.9V58.4C74.8,57.6,74.2,57,73.4,57z"/>
	<path class="st1" d="M74.2,24.3c-2.4-2.4-6.4-2.4-8.8,0L40.9,48.9c-0.2,0.2-0.3,0.4-0.4,0.6l-3.2,11.7c-0.1,0.5,0,1,0.4,1.3
		c0.4,0.4,0.9,0.5,1.3,0.4l11.7-3.2c0.2-0.1,0.4-0.2,0.6-0.4l24.6-24.6c2.4-2.4,2.4-6.3,0-8.8L74.2,24.3z M43.9,49.8L64,29.6
		l6.5,6.5L50.4,56.3L43.9,49.8z M42.6,52.4l5.2,5.2l-7.2,2L42.6,52.4z M73.9,32.7l-1.5,1.5L66,27.7l1.5-1.5c1.3-1.3,3.5-1.3,4.9,0
		l1.6,1.6C75.3,29.2,75.3,31.4,73.9,32.7z"/>
</g>
</svg>
