<?xml version="1.0" encoding="utf-8"?>
<!-- Generator: Adobe Illustrator 23.1.0, SVG Export Plug-In . SVG Version: 6.00 Build 0)  -->
<svg version="1.1" id="레이어_1" xmlns="http://www.w3.org/2000/svg" xmlns:xlink="http://www.w3.org/1999/xlink" x="0px"
	 y="0px" viewBox="0 0 100 100" style="enable-background:new 0 0 100 100;" xml:space="preserve">
<style type="text/css">
	.st0{fill:#047BC2;}
	.st1{fill:#FFFFFF;}
</style>
<circle class="st0" cx="50" cy="50" r="50"/>
<g>
	<g>
		<g>
			<path class="st1" d="M48.7,74.3H25.7V28.9h8.4V31c0,0.6,0.4,1.1,1.1,1.1h16.9c0.6,0,1.1-0.4,1.1-1.1v-2.1h8.4v23.2
				c0,0.6,0.4,1.1,1.1,1.1s1.1-0.4,1.1-1.1V27.9c0-0.6-0.4-1.1-1.1-1.1h-9.5v-2.1c0-0.6-0.4-1.1-1.1-1.1h-3.1c0-2.9-2.4-5.3-5.3-5.3
				c-2.9,0-5.3,2.4-5.3,5.3h-3.1c-0.6,0-1.1,0.4-1.1,1.1v2.1h-9.5c-0.6,0-1.1,0.4-1.1,1.1v47.5c0,0.6,0.4,1.1,1.1,1.1h24
				c0.6,0,1.1-0.4,1.1-1.1C49.7,74.8,49.3,74.3,48.7,74.3z M43.7,20.5c1.8,0,3.1,1.4,3.1,3.1h-6.3C40.5,21.9,41.9,20.5,43.7,20.5z
				 M36.3,25.8h14.8V30H36.3V25.8z"/>
			<path class="st1" d="M62.6,54.2c-7.6,0-13.7,6.2-13.7,13.7s6.2,13.7,13.7,13.7S76.4,75.5,76.4,68S70.2,54.2,62.6,54.2z
				 M62.6,79.5c-6.4,0-11.6-5.2-11.6-11.6s5.2-11.6,11.6-11.6c6.4,0,11.6,5.2,11.6,11.6S69.1,79.5,62.6,79.5z"/>
			<path class="st1" d="M31,61.6c-0.6,0-1.1,0.4-1.1,1.1s0.4,1.1,1.1,1.1h15.7c0.6,0,1.1-0.4,1.1-1.1s-0.4-1.1-1.1-1.1H31z"/>
			<path class="st1" d="M52.1,55.3c0-0.6-0.4-1.1-1.1-1.1H31c-0.6,0-1.1,0.4-1.1,1.1c0,0.6,0.4,1.1,1.1,1.1h20
				C51.6,56.4,52.1,55.9,52.1,55.3z"/>
			<path class="st1" d="M57.4,47.9c0-0.6-0.4-1.1-1.1-1.1H31c-0.6,0-1.1,0.4-1.1,1.1S30.4,49,31,49h25.3
				C56.9,49,57.4,48.5,57.4,47.9z"/>
			<path class="st1" d="M56.3,39.5H31c-0.6,0-1.1,0.4-1.1,1.1s0.4,1.1,1.1,1.1h25.3c0.6,0,1.1-0.4,1.1-1.1S56.9,39.5,56.3,39.5z"/>
			<path class="st1" d="M70.8,63c-0.4-0.4-1.1-0.4-1.5,0l-8.8,8.8L56,67.2c-0.4-0.4-1.1-0.4-1.5,0c-0.4,0.4-0.4,1.1,0,1.5l5.3,5.3
				c0.2,0.2,0.5,0.3,0.7,0.3s0.5-0.1,0.7-0.3l9.5-9.5C71.2,64,71.2,63.4,70.8,63z"/>
		</g>
	</g>
</g>
</svg>
