<?xml version="1.0" encoding="utf-8"?>
<!-- Generator: Adobe Illustrator 26.0.1, SVG Export Plug-In . SVG Version: 6.00 Build 0)  -->
<svg version="1.1" id="레이어_1" xmlns="http://www.w3.org/2000/svg" xmlns:xlink="http://www.w3.org/1999/xlink" x="0px"
	 y="0px" viewBox="0 0 30 30" style="enable-background:new 0 0 30 30;" xml:space="preserve">
<style type="text/css">
	.st0{fill:#656565;}
</style>
<g>
	<path id="패스_152" class="st0" d="M23.7,8.7L22.4,10l4,4H13.1v1.9h13.3l-4,4l1.3,1.3L30,15L23.7,8.7z"/>
	<path id="패스_153" class="st0" d="M20.6,28.1H1.9V1.9h18.7v1.9h1.9V0.9c0-0.5-0.4-0.9-0.9-0.9l0,0H0.9C0.4,0,0,0.4,0,0.9l0,0V29
		c0,0.6,0.4,1,0.9,1l0,0h20.6c0.5,0,0.9-0.4,0.9-0.9l0,0v-2.8h-1.9v1.8H20.6z"/>
</g>
</svg>
