<?xml version="1.0" encoding="utf-8"?>
<!-- Generator: Adobe Illustrator 26.0.1, SVG Export Plug-In . SVG Version: 6.00 Build 0)  -->
<svg version="1.1" id="레이어_1" xmlns="http://www.w3.org/2000/svg" xmlns:xlink="http://www.w3.org/1999/xlink" x="0px"
	 y="0px" viewBox="0 0 30 30" style="enable-background:new 0 0 30 30;" xml:space="preserve">
<style type="text/css">
	.st0{fill:#047BC2;}
</style>
<g>
	<path id="패스_174" class="st0" d="M28.25346,4.74265L28.25346,4.74265c-0.13333-0.13067-0.31333-0.20267-0.5-0.2
		c-4.377,0-10.139-1.482-12.208-4.236c-0.11752-0.14515-0.28818-0.23732-0.474-0.256c-0.22466-0.01024-0.44298,0.076-0.6,0.237
		c-2.08,2.763-7.852,4.25-12.228,4.25c-0.3866,0-0.7,0.3134-0.7,0.7v9.755c0,8.223,7.146,13.183,13.263,14.931
		c0.1259,0.03535,0.2591,0.03535,0.385,0c6.12-1.748,13.265-6.708,13.265-14.932v-9.753c0.00267-0.18667-0.06933-0.36667-0.2-0.5
		 M27.05647,5.92265v9.066c0,7.341-6.487,11.874-12.042,13.525h-0.015h-0.013c-5.555-1.647-12.043-6.18-12.043-13.521v-9.066h0.048
		c4.075-0.139,9.358-1.455,11.973-4.086l0.035-0.036l0.036,0.036c2.615,2.631,7.9,3.947,11.973,4.086L27.05647,5.92265z"/>
	<path id="패스_175" class="st0" d="M17.28847,12.78365c-0.19448-0.01034-0.38422,0.06236-0.522,0.2l-2.523,2.521l-1-1.01
		c-0.1324-0.1334-0.31206-0.20922-0.5-0.211c-0.3812-0.00008-0.69238,0.30488-0.7,0.686c-0.00429,0.18874,0.06783,0.3712,0.2,0.506
		l1.514,1.513c0.27335,0.27338,0.71657,0.2734,0.98995,0.00005c0.00002-0.00002,0.00003-0.00003,0.00005-0.00005l2.994-2.994
		c0.28255-0.26387,0.29768-0.70683,0.03381-0.98937c-0.12556-0.13445-0.29901-0.21406-0.48281-0.22163"/>
	<path id="패스_176" class="st0" d="M14.99647,7.54265c-4.11452,0-7.45,3.33548-7.45,7.45s3.33548,7.45,7.45,7.45
		s7.45-3.33548,7.45-7.45l0,0C22.44205,10.87995,19.10915,7.54706,14.99647,7.54265 M15.00347,21.04265
		c-3.34135-0.05935-6.00193-2.81616-5.94258-6.15751c0.05783-3.25579,2.68184-5.88197,5.93758-5.94249
		c1.22843,0.01484,2.42577,0.38812,3.445,1.074c1.65749,1.10982,2.64024,2.98348,2.611,4.978
		c-0.00551,3.33871-2.71128,6.0436-6.05,6.048"/>
</g>
</svg>
