<?xml version="1.0" encoding="utf-8"?>
<!-- Generator: Adobe Illustrator 26.0.1, SVG Export Plug-In . SVG Version: 6.00 Build 0)  -->
<svg version="1.1" id="레이어_1" xmlns="http://www.w3.org/2000/svg" xmlns:xlink="http://www.w3.org/1999/xlink" x="0px"
	 y="0px" viewBox="0 0 30 30" style="enable-background:new 0 0 30 30;" xml:space="preserve">
<style type="text/css">
	.st0{fill:#047BC2;}
	.st1{fill:none;}
</style>
<g>
	<path id="패스_177_00000033345663858719836100000011725718586487204534_" class="st0" d="M29.463,7.9655l-0.81-0.809v-1.852
		c-0.00275-1.13221-0.92079-2.0489-2.053-2.05H2.05C0.91896,3.25725,0.00275,4.17346,0,5.3045v15.322
		c0.0033,1.13065,0.91935,2.04625,2.05,2.049h8.82l-1.052,3.287c-0.06401,0.21202-0.00727,0.44207,0.148,0.6
		c0.11206,0.11454,0.26576,0.17876,0.426,0.178c0.06341,0.00043,0.1265-0.00902,0.187-0.028l3.889-1.15l0,0l2.885-2.884H26.6
		c1.13104-0.0022,2.0477-0.91796,2.051-2.049v-9.251l0.81-0.81c0.71384-0.71967,0.71384-1.88033,0-2.6 M27.5,12.5275v8.1
		c-0.00273,0.49592-0.40408,0.89727-0.9,0.9h-8.1L27.5,12.5275z M14.477,23.8445l-0.229,0.23l-1.769-1.768l0.229-0.23
		L14.477,23.8445z M13.106,24.6445l-1.78,0.57l0.57-1.78L13.106,24.6445z M1.147,5.3045c0.00327-0.49569,0.40431-0.89673,0.9-0.9
		H26.6c0.49706,0,0.9,0.40294,0.9,0.9v1.265c-0.52173-0.06446-1.04605,0.09793-1.44,0.446l0,0l-0.44,0.439
		c-0.72936-0.52184-1.72884-0.44112-2.365,0.191l-3.82,3.82c-0.23527,0.23335-0.23683,0.61325-0.00348,0.84852
		c0.00115,0.00116,0.00231,0.00232,0.00348,0.00348c0.23896,0.22718,0.61404,0.22718,0.853,0l3.824-3.825
		c0.16187-0.16148,0.40075-0.21831,0.618-0.147l-13.182,13.185H2.05c-0.49547-0.00381-0.89619-0.40453-0.9-0.9L1.147,5.3045z
		 M26.838,7.9425c0.24867-0.24819,0.65133-0.24819,0.9,0l0.874,0.873c0.24656,0.24934,0.24656,0.65066,0,0.9l-2.693,2.688
		l-1.772-1.769L26.838,7.9425z M25.066,13.2545l-9.736,9.737l-1.768-1.768l9.732-9.737L25.066,13.2545z"/>
	<path id="패스_178_00000068672960715622043280000010461909018104380833_" class="st0" d="M2.32,8.6055h17.4v-0.017
		c0.35181-0.0818,0.57069-0.43331,0.48889-0.78512c-0.06861-0.2951-0.33093-0.50444-0.63389-0.50588H2.32
		c-0.36119,0-0.654,0.29281-0.654,0.654S1.95881,8.6055,2.32,8.6055"/>
	<path id="패스_179_00000111894956933622761480000004476786921005260691_" class="st0" d="M2.32,12.0405h14.636
		c0.36119,0,0.654-0.29281,0.654-0.654s-0.2928-0.654-0.654-0.654H2.32c-0.36119,0-0.654,0.29281-0.654,0.654
		C1.666,11.74769,1.95881,12.0405,2.32,12.0405"/>
	<path id="패스_180_00000118372583351792145770000008404084136867965835_" class="st0" d="M2.32,15.4755h11.047
		c0.36147,0,0.6545-0.29303,0.6545-0.6545s-0.29303-0.6545-0.6545-0.6545l0,0H2.32c-0.36147,0-0.6545,0.29303-0.6545,0.6545
		S1.95853,15.4755,2.32,15.4755"/>
	
		<rect id="사각형_170_00000050632442252109515110000011552387497941088922_" y="3.2545" class="st1" width="30" height="23.491"/>
</g>
</svg>
