<?xml version="1.0" encoding="utf-8"?>
<!-- Generator: Adobe Illustrator 26.0.1, SVG Export Plug-In . SVG Version: 6.00 Build 0)  -->
<svg version="1.1" id="레이어_1" xmlns="http://www.w3.org/2000/svg" xmlns:xlink="http://www.w3.org/1999/xlink" x="0px"
	 y="0px" viewBox="0 0 30 30" style="enable-background:new 0 0 30 30;" xml:space="preserve">
<style type="text/css">
	.st0{fill:#047BC2;}
	.st1{fill:none;}
	.st2{clip-path:url(#SVGID_00000093147408276023946730000005374228599696677267_);}
</style>
<path id="패스_177" class="st0" d="M568.51813,247.07318l-0.81-0.80901v-1.85199c-0.00275-1.13222-0.92078-2.0489-2.05304-2.05
	H541.1051c-1.13104,0.00275-2.04724,0.91896-2.04999,2.05v15.32201c0.0033,1.13065,0.91937,2.04623,2.04999,2.04898h8.82001
	l-1.052,3.28702c-0.06403,0.21201-0.00726,0.44208,0.14801,0.60001c0.11206,0.11453,0.26575,0.17874,0.42603,0.17798
	c0.06335,0.00043,0.12646-0.009,0.18695-0.02798l3.82104-1.21802l0.06799,0.06802l2.88501-2.884h9.24695
	c1.13104-0.0022,2.04773-0.91797,2.05103-2.04901v-9.25101l0.81-0.81c0.71387-0.71967,0.71387-1.88033,0-2.59999
	 M566.55511,251.63518v8.10002c-0.00275,0.49591-0.40405,0.89725-0.90002,0.89999h-8.09998L566.55511,251.63518z
	 M553.5321,262.95218l-0.229,0.23001l-1.76898-1.76801l0.229-0.23001L553.5321,262.95218z M552.16113,263.7522l-1.78003,0.56998
	l0.57001-1.78L552.16113,263.7522z M540.20209,244.41219c0.0033-0.4957,0.40436-0.89673,0.90002-0.90001h24.55298
	c0.49707,0,0.90002,0.40295,0.90002,0.90001v1.265c-0.52173-0.06447-1.04602,0.09793-1.44,0.446l0,0l-0.44,0.439
	c-0.72937-0.52184-1.72882-0.44112-2.36499,0.19101l-3.82001,3.81999c-0.23529,0.23335-0.23682,0.61325-0.00348,0.84853
	c0.00116,0.00116,0.00232,0.00232,0.00348,0.00348c0.23895,0.22717,0.61407,0.22717,0.85303,0l3.82397-3.825
	c0.16187-0.16148,0.40076-0.21831,0.61798-0.147l-13.18201,13.185h-9.49799c-0.49548-0.00381-0.89618-0.40454-0.89996-0.89999
	L540.20209,244.41219z M565.89313,247.05019c0.24866-0.2482,0.65131-0.2482,0.89996,0l0.87402,0.873
	c0.24658,0.24934,0.24658,0.65065,0,0.89999l-2.69299,2.688l-1.77203-1.769L565.89313,247.05019z M564.12109,252.36218
	l-9.73596,9.737l-1.76801-1.76801l9.73199-9.737L564.12109,252.36218z"/>
<path id="패스_178" class="st0" d="M541.37512,247.71318h17.39996v-0.017c0.35187-0.0818,0.57074-0.4333,0.48895-0.78513
	c-0.06866-0.29509-0.33093-0.50443-0.63391-0.50587h-17.255c-0.36121,0-0.65399,0.2928-0.65399,0.65401
	C540.72113,247.42038,541.01392,247.71318,541.37512,247.71318"/>
<path id="패스_179" class="st0" d="M541.37512,251.14818h14.63599c0.36121,0,0.65399-0.2928,0.65399-0.65399
	s-0.29279-0.65401-0.65399-0.65401h-14.63599c-0.36121,0-0.65399,0.29282-0.65399,0.65401S541.01392,251.14818,541.37512,251.14818"
	/>
<path id="패스_180" class="st0" d="M541.37512,254.58318h11.047c0.36145,0,0.65448-0.29303,0.65448-0.6545
	s-0.29303-0.6545-0.65448-0.6545l0,0h-11.047c-0.36145,0-0.65448,0.29303-0.65448,0.6545S541.01367,254.58318,541.37512,254.58318"
	/>
<rect id="사각형_170" x="539.05511" y="242.36218" class="st1" width="30" height="23.491"/>
<g>
	<g>
		<defs>
			<rect id="SVGID_1_" y="3.1435" width="30" height="23.713"/>
		</defs>
		<clipPath id="SVGID_00000160913465939656952970000016389921496358671752_">
			<use xlink:href="#SVGID_1_"  style="overflow:visible;"/>
		</clipPath>
		<g id="그룹_526" style="clip-path:url(#SVGID_00000160913465939656952970000016389921496358671752_);">
			<path id="패스_181" class="st0" d="M27.778,3.1435H2.221C0.99659,3.14789,0.00494,4.13909,0,5.3635v15.949
				c0.0033,1.22526,0.99574,2.2177,2.221,2.221h12.094v1.954h-3.982c-0.37776,0-0.684,0.30624-0.684,0.684
				s0.30624,0.684,0.684,0.684l0,0h9.333c0.37776,0,0.684-0.30624,0.684-0.684s-0.30624-0.684-0.684-0.684h-3.982v-1.953h12.094
				c1.22604-0.00275,2.21925-0.99596,2.222-2.222v-15.95C29.99397,4.13832,29.00219,3.14788,27.778,3.1435 M1.369,5.3645
				c0.00055-0.47048,0.38152-0.8519,0.852-0.853h25.557c0.47048,0.0011,0.85145,0.38252,0.852,0.853v15.947
				c-0.00055,0.47064-0.38136,0.85235-0.852,0.854H2.221c-0.47048-0.0011-0.85145-0.38252-0.852-0.853V5.3645z"/>
			<path id="패스_182" class="st0" d="M9.326,18.5575h11.348c0.17225-0.00447,0.30827-0.14774,0.30379-0.32
				c-0.00204-0.0787-0.03376-0.15371-0.08879-0.21l-5.63-9.752c-0.08635-0.14912-0.27723-0.2-0.42635-0.11365
				C14.78549,8.18915,14.74631,8.22834,14.719,8.2755l-5.664,9.815c-0.08505,0.15049-0.032,0.34144,0.11849,0.4265
				C9.22003,18.5433,9.27254,18.55725,9.326,18.5575 M15.459,11.7665l-0.032,0.889l-0.138,2.359h-0.613l-0.128-2.357l-0.032-0.889
				L15.459,11.7665z M14.929,15.4865c0.33873-0.01583,0.62616,0.24594,0.64198,0.58468
				c0.00001,0.00011,0.00001,0.00022,0.00002,0.00032v0.028c0.01584,0.32325-0.23336,0.59814-0.55661,0.61398
				c-0.00013,0.00001-0.00026,0.00001-0.00039,0.00002h-0.025c-0.33963,0.00448-0.61857-0.26722-0.62305-0.60684
				c-0.00427-0.32378,0.24326-0.59541,0.56605-0.62116"/>
		</g>
	</g>
</g>
</svg>
