<?xml version="1.0" encoding="utf-8"?>
<!-- Generator: Adobe Illustrator 26.0.1, SVG Export Plug-In . SVG Version: 6.00 Build 0)  -->
<svg version="1.1" id="레이어_1" xmlns="http://www.w3.org/2000/svg" xmlns:xlink="http://www.w3.org/1999/xlink" x="0px"
	 y="0px" viewBox="0 0 30 30" style="enable-background:new 0 0 30 30;" xml:space="preserve">
<style type="text/css">
	.st0{fill:#898989;}
</style>
<g>
	<path id="icon-refresh" class="st0" d="M23.83325,11.54112l3.16573,2.09182l1.49987-3.38371l1.49987-3.37171l-3.83368,0.97192
		C23.545,3.75537,19.02669,1.2703,14.16607,1.24999C6.46939,1.24038,0.17639,7.38412,0.00127,15.07882
		c0.13346,7.68268,6.4697,13.80253,14.15238,13.66906c0.00414-0.00007,0.00828-0.00014,0.01242-0.00022
		c6.48157,0.00084,12.15541-4.35235,13.83283-10.6131l-1.66586-0.32197c-1.4171,5.54355-6.44358,9.3975-12.16497,9.32721
		C7.40545,27.21082,1.83835,21.83965,1.66713,15.07882C1.76041,8.35072,7.27159,2.96197,14.00008,3.01984
		c4.093,0.02295,7.93034,1.99398,10.33312,5.30755l-3.66569,0.96392l3.16573,2.25181V11.54112z"/>
</g>
</svg>
