<?xml version="1.0" encoding="utf-8"?>
<!-- Generator: Adobe Illustrator 23.1.0, SVG Export Plug-In . SVG Version: 6.00 Build 0)  -->
<svg version="1.1" id="레이어_1" xmlns="http://www.w3.org/2000/svg" xmlns:xlink="http://www.w3.org/1999/xlink" x="0px"
	 y="0px" viewBox="0 0 100 100" style="enable-background:new 0 0 100 100;" xml:space="preserve">
<style type="text/css">
	.st0{fill:#FFFFFF;}
</style>
<g>
	<path class="st0" d="M50.2,29.7c-11.3,0-20.5,9.2-20.5,20.5s9.2,20.5,20.5,20.5s20.5-9.2,20.5-20.5S61.5,29.7,50.2,29.7z
		 M39.5,51.8c0,0.3-0.3,0.6-0.6,0.6h-3.3c-0.3,0-0.6-0.3-0.6-0.6v-3.3c0-0.3,0.3-0.6,0.6-0.6h3.3c0.3,0,0.6,0.3,0.6,0.6V51.8z
		 M50.2,48c3.9,0,7.1,3.2,7.1,7.1v6.5c0,0.3-0.3,0.6-0.6,0.6h-4.3v2.6c0,0.3-0.3,0.6-0.6,0.6h-3.3c-0.3,0-0.6-0.3-0.6-0.6v-3
		c-2.9-1-4.9-3.7-4.9-6.7c0-0.3,0.3-0.6,0.6-0.6H47c0.3,0,0.6,0.3,0.6,0.6c0,1.5,1.2,2.6,2.6,2.6h2.6v-2.6c0-1.5-1.2-2.6-2.6-2.6
		c-3.9,0-7.1-3.2-7.1-7.1v-6.5c0-0.3,0.3-0.6,0.6-0.6H48v-2.6c0-0.3,0.3-0.6,0.6-0.6h3.3c0.3,0,0.6,0.3,0.6,0.6v3
		c2.9,1,4.9,3.7,4.9,6.7c0,0.3-0.3,0.6-0.6,0.6h-3.3c-0.3,0-0.6-0.3-0.6-0.6c0-1.5-1.2-2.6-2.6-2.6h-2.6v2.6
		C47.6,46.8,48.8,48,50.2,48z M64.9,52.5h-3.3c-0.3,0-0.6-0.3-0.6-0.6v-3.3c0-0.3,0.3-0.6,0.6-0.6h3.3c0.3,0,0.6,0.3,0.6,0.6v3.3
		C65.5,52.2,65.2,52.5,64.9,52.5z"/>
	<rect x="73.6" y="24.8" class="st0" width="2" height="2"/>
	<path class="st0" d="M100,78.7l-5.4,5.4c-0.1,0.1-0.3,0.2-0.4,0.2c-0.2,0-0.3-0.1-0.4-0.2L80.4,70c-0.2-0.2-0.2-0.4-0.1-0.7
		c1-2.5,1.6-5.1,1.8-7.7c0-0.3,0.3-0.6,0.6-0.6h9.2c0.2,0,0.4,0.1,0.5,0.3c0.5,1,1.6,1.7,2.7,1.7c1.7,0,3.1-1.4,3.1-3.1
		c0-1.7-1.4-3.1-3.1-3.1c-1.2,0-2.3,0.7-2.8,1.8C92.2,58.9,92,59,91.8,59h-9c-0.3,0-0.6-0.3-0.6-0.6v-6.5c0-0.3,0.3-0.6,0.6-0.6h9.2
		c0.2,0,0.4,0.1,0.5,0.3c0.5,1,1.6,1.5,2.7,1.5c1.7,0,3.1-1.4,3.1-3.1c0-1.7-1.4-3.1-3.1-3.1c-1.3,0-2.4,0.8-2.9,1.9
		c-0.1,0.2-0.3,0.4-0.6,0.4h-9c-0.3,0-0.6-0.3-0.6-0.6v-6.5c0-0.3,0.3-0.6,0.6-0.6h9.1c0.2,0,0.4,0.1,0.5,0.3
		c0.5,1.1,1.6,1.7,2.8,1.7c1.7,0,3.1-1.4,3.1-3.1s-1.4-3.1-3.1-3.1c-1.2,0-2.3,0.7-2.8,1.7c-0.1,0.2-0.3,0.3-0.5,0.3h-9.1
		c-0.3,0-0.6-0.3-0.6-0.6V10.3h-8.5v1c0,3.9-3.2,7.1-7.1,7.1s-7.1-3.2-7.1-7.1v-1H41.1v1c0,3.9-3.2,7.1-7.1,7.1s-7.1-3.2-7.1-7.1v-1
		h-2.5c-0.2,0-0.3-0.1-0.4-0.2l-9.4-10L0,14.5l18.1,17.1c0.1,0.1,0.2,0.3,0.2,0.4v6.8c0,0.3-0.3,0.6-0.6,0.6H8
		c-0.2,0-0.4-0.1-0.5-0.3C7,38,5.9,37.4,4.7,37.4c-1.7,0-3.1,1.4-3.1,3.1s1.4,3.1,3.1,3.1c1.2,0,2.3-0.7,2.8-1.7
		c0.1-0.2,0.3-0.3,0.5-0.3h9.7c0.3,0,0.6,0.3,0.6,0.6v6.5c0,0.3-0.3,0.6-0.6,0.6H8.1c-0.2,0-0.5-0.1-0.6-0.4
		c-0.5-1.2-1.6-1.9-2.9-1.9c-1.7,0-3.1,1.4-3.1,3.1C1.6,51.6,3,53,4.7,53c1.1,0,2.2-0.6,2.7-1.6c0.1-0.2,0.4-0.4,0.7-0.3
		c0.1,0,0.1,0,0.2,0.1h9.4c0.3,0,0.6,0.3,0.6,0.6v6.5c0,0.3-0.3,0.6-0.6,0.6H8.1c-0.2,0-0.4-0.1-0.5-0.3c-0.5-1.1-1.6-1.8-2.8-1.8
		c-1.7,0-3.1,1.4-3.1,3.1c0,1.7,1.4,3.1,3.1,3.1c1.2,0,2.2-0.7,2.7-1.7c0.1-0.2,0.3-0.3,0.5-0.3h9.8c0.3,0,0.6,0.2,0.6,0.6
		c0.5,8.7,5.7,16.4,13.6,20.1l18.3,8.7l18.3-8.7c0.4-0.2,0.9-0.4,1.4-0.7c0.2-0.1,0.5-0.1,0.7,0.1l13.4,12.7
		c0.1,0.1,0.2,0.3,0.2,0.4c0,0.2-0.1,0.3-0.2,0.4l-5.4,5.4H100V78.7z M19.9,10.2h-1.6v17.4c0,0.2-0.1,0.5-0.4,0.6
		c-0.1,0-0.2,0-0.2,0c-0.2,0-0.3-0.1-0.4-0.2L3.4,14.9c-0.1-0.1-0.2-0.3-0.2-0.4s0.1-0.3,0.2-0.4L14,3.4c0.1-0.1,0.3-0.2,0.4-0.2
		c0.2,0,0.3,0.1,0.4,0.2l5.5,5.8c0.2,0.2,0.2,0.4,0.1,0.7C20.4,10.1,20.1,10.2,19.9,10.2z M67.7,79.9L50.5,88
		c-0.1,0-0.2,0.1-0.3,0.1c-0.1,0-0.2,0-0.3-0.1l-17.2-8.1c-7.6-3.6-12.4-11.3-12.4-19.6V12.8c0-0.3,0.3-0.6,0.6-0.6h3.4
		c0.3,0,0.5,0.2,0.6,0.5c0.8,4.4,4.5,7.6,9,7.6c4.5,0,8.3-3.2,9-7.6c0-0.3,0.3-0.5,0.6-0.5h13.3c0.3,0,0.5,0.2,0.6,0.5
		c0.8,4.4,4.5,7.6,9,7.6c4.5,0,8.3-3.2,9-7.6c0-0.3,0.3-0.5,0.6-0.5h3.3c0.3,0,0.6,0.3,0.6,0.6v47.4C80.1,68.6,75.2,76.3,67.7,79.9z
		 M98,97.4c0,0.3-0.3,0.6-0.6,0.6H85c-0.2,0-0.5-0.1-0.6-0.4c-0.1-0.2,0-0.5,0.1-0.7l2.8-2.8l-14.8-14c-0.1-0.1-0.2-0.3-0.2-0.5
		c0-0.2,0.1-0.3,0.2-0.4c2.5-1.9,4.5-4.2,6.1-6.9c0.1-0.2,0.3-0.3,0.5-0.3c0.2,0,0.4,0,0.5,0.2l14.3,15.2l2.8-2.8
		c0.2-0.2,0.4-0.2,0.7-0.1c0.2,0.1,0.4,0.3,0.4,0.6L98,97.4L98,97.4z"/>
	<rect x="24.8" y="24.8" class="st0" width="2" height="2"/>
</g>
</svg>
