<?xml version="1.0" encoding="utf-8"?>
<!-- Generator: Adobe Illustrator 23.1.0, SVG Export Plug-In . SVG Version: 6.00 Build 0)  -->
<svg version="1.1" id="레이어_1" xmlns="http://www.w3.org/2000/svg" xmlns:xlink="http://www.w3.org/1999/xlink" x="0px"
	 y="0px" viewBox="0 0 100 100" style="enable-background:new 0 0 100 100;" xml:space="preserve">
<style type="text/css">
	.st0{fill:#FFFFFF;}
</style>
<g>
	<path class="st0" d="M50,65.9c-2.4,0-4.3,2-4.3,4.3s2,4.3,4.3,4.3s4.3-2,4.3-4.3S52.4,65.9,50,65.9z M50,72.7
		c-1.3,0-2.4-1.1-2.4-2.4c0-1.3,1.1-2.4,2.4-2.4s2.4,1.1,2.4,2.4C52.4,71.6,51.3,72.7,50,72.7z"/>
	<g>
		<path class="st0" d="M73.7,97c0.1-0.1,0.2-0.2,0.4-0.2c0.1,0,0.2,0,0.2,0.1c1.2,0.6,2.5,1.1,3.8,1.4c0.1,0,0.2,0,0.2,0l0,0
			c0.1,0,0.2,0,0.2,0c3.4-1,6.6-2.7,9.6-5.1c4.7-3.7,8.1-8.8,10.1-14.7c0-0.1,0.1-0.1,0.1-0.2c1-1.4,1.6-3,1.6-4.7V9.4
			c0-4.3-3.5-7.7-7.7-7.7H7.7C3.5,1.7,0,5.2,0,9.4v64.2c0,4.3,3.5,7.7,7.7,7.7h28.8c0.2,0,0.3,0.1,0.4,0.2c0.1,0.1,0.2,0.3,0.1,0.5
			l0,0.2c-0.3,1.6-1.3,4.1-4.2,7.1l0,0c-0.1,0.1-0.3,0.2-0.4,0.2H28c-0.4,0-0.8,0.3-0.9,0.7l-1.7,5.1c-0.1,0.3,0,0.7,0.2,1l1.7,1.7
			c0.2,0.2,0.4,0.3,0.7,0.3h44c0.3,0,0.5-0.1,0.7-0.3L73.7,97z M1.9,9.4c0-3.2,2.6-5.8,5.8-5.8h84.5c3.2,0,5.8,2.6,5.8,5.8v39
			c0,0.2-0.1,0.3-0.2,0.4c-0.1,0.1-0.3,0.2-0.4,0.2c-12.8-0.5-18.6-7.1-18.7-7.2c-0.2-0.2-0.4-0.3-0.7-0.3l0,0
			c-0.3,0-0.5,0.1-0.7,0.3c-0.1,0.1-6.3,7.3-20.2,7.4c-0.5,0-0.8,0.4-0.8,0.9l0,8.5c0,0.2-0.1,0.3-0.2,0.4c-0.1,0.1-0.2,0.2-0.4,0.2
			H2.5c-0.3,0-0.6-0.2-0.6-0.6L1.9,9.4L1.9,9.4z M7.7,79.5c-3.2,0-5.8-2.6-5.8-5.8v-12c0-0.3,0.2-0.6,0.6-0.6h53.4
			c0.3,0,0.6,0.2,0.6,0.6l0,6.5c0,3.6,0.6,7.1,1.8,10.5c0.1,0.2,0,0.4-0.1,0.5c-0.1,0.2-0.3,0.2-0.5,0.2L7.7,79.5L7.7,79.5z
			 M36,88.7l0.2-0.2c2.1-2.8,2.7-5,2.9-6.4l0-0.1c0-0.3,0.3-0.5,0.6-0.5H59c0.2,0,0.4,0.1,0.5,0.3c1.1,2.5,2.6,4.8,4.3,6.9
			c0.1,0.2,0.2,0.4,0.1,0.6c-0.1,0.2-0.3,0.3-0.5,0.3H36.5c-0.2,0-0.4-0.1-0.5-0.3C35.9,89.1,35.9,88.9,36,88.7z M71.7,95.9
			c-0.1,0.2-0.3,0.4-0.6,0.4H28.7c-0.2,0-0.3-0.1-0.4-0.2l-0.6-0.6c-0.2-0.2-0.2-0.4-0.1-0.6l1-3.1c0.1-0.2,0.3-0.4,0.5-0.4h37.1
			c0.2,0,0.3,0.1,0.4,0.2c0.6,0.6,1.2,1.1,1.8,1.6c1,0.7,2,1.4,2.9,2C71.7,95.4,71.8,95.7,71.7,95.9z M69.5,91.9
			c-7-5.5-11.3-14.3-11.3-23.7l-0.1-16.7c0-0.3,0.2-0.6,0.6-0.6c10.9-0.4,17-5,19.1-6.9c0.2-0.2,0.6-0.2,0.8,0
			c2.1,1.9,8.3,6.4,19.1,6.7c0.3,0,0.6,0.3,0.6,0.6L98.3,68c0,9.4-4.1,18.3-11.1,23.8c-2.7,2.1-5.6,3.7-8.6,4.7c-0.1,0-0.1,0-0.2,0
			c-0.1,0-0.1,0-0.2,0C75.2,95.6,72.3,94,69.5,91.9z"/>
		<path class="st0" d="M62.9,54.6c-0.4,0.1-0.7,0.4-0.7,0.8l0.1,12.8c0,8.1,3.7,15.8,9.8,20.6c1.9,1.5,4,2.7,6.1,3.5
			c0.1,0,0.2,0.1,0.3,0.1c0.1,0,0.2,0,0.3-0.1c2.1-0.8,4.1-2,6-3.5c6.1-4.8,9.6-12.5,9.6-20.7l-0.1-12.8c0-0.4-0.3-0.8-0.7-0.8
			c-7-0.9-12-3.4-14.8-5.3C78.5,49,78.3,49,78.1,49s-0.3,0.1-0.5,0.2C74.8,51.1,69.9,53.6,62.9,54.6z M78.5,51
			c2.7,1.7,7.3,3.9,13.6,4.9c0.3,0,0.5,0.3,0.5,0.6L92.6,68c0,7.6-3.3,14.8-8.9,19.3c-1.6,1.3-3.3,2.3-5.1,3.1c-0.1,0-0.2,0-0.2,0
			c-0.1,0-0.2,0-0.2,0c-1.7-0.7-3.5-1.7-5.1-3c-5.7-4.4-9.1-11.6-9.1-19.2l-0.1-11.5c0-0.3,0.2-0.5,0.5-0.6c6.3-1,10.8-3.3,13.5-5
			C78,50.9,78.3,50.9,78.5,51z"/>
	</g>
</g>
</svg>
