<?xml version="1.0" encoding="utf-8"?>
<!-- Generator: Adobe Illustrator 23.1.0, SVG Export Plug-In . SVG Version: 6.00 Build 0)  -->
<svg version="1.1" id="레이어_1" xmlns="http://www.w3.org/2000/svg" xmlns:xlink="http://www.w3.org/1999/xlink" x="0px"
	 y="0px" viewBox="0 0 100 100" style="enable-background:new 0 0 100 100;" xml:space="preserve">
<style type="text/css">
	.st0{fill:#FFFFFF;}
</style>
<g>
	<path class="st0" d="M47.9,15.3c0.6,0,1-0.5,1-1c0-0.6-0.5-1-1-1h-36c-0.6,0-1,0.5-1,1c0,0.6,0.5,1,1,1H47.9z"/>
	<path class="st0" d="M47.9,29.6c0.6,0,1-0.5,1-1c0-0.6-0.5-1-1-1h-36c-0.6,0-1,0.5-1,1c0,0.6,0.5,1,1,1H47.9z"/>
	<path class="st0" d="M47.9,43.9c0.6,0,1-0.5,1-1c0-0.6-0.5-1-1-1h-36c-0.6,0-1,0.5-1,1c0,0.6,0.5,1,1,1H47.9z"/>
	<path class="st0" d="M47.9,58.2c0.6,0,1-0.5,1-1c0-0.6-0.5-1-1-1h-36c-0.6,0-1,0.5-1,1c0,0.6,0.5,1,1,1H47.9z"/>
	<path class="st0" d="M47.9,72.5c0.6,0,1-0.5,1-1s-0.5-1-1-1h-36c-0.6,0-1,0.5-1,1s0.5,1,1,1H47.9z"/>
	<path class="st0" d="M72.1,0h-66C3.6,0,1.6,2,1.6,4.4v91.2c0,2.4,2,4.4,4.4,4.4h66c2.5,0,4.4-2,4.4-4.4V67.5c0-0.1,0-0.2,0.1-0.3
		l18.3-39.9c0,0,0,0,0-0.1c0,0,0,0,0-0.1l2.8-6.1c0,0,0,0,0,0c0.7-1.4,0.8-3.1,0.3-4.5c-0.5-1.5-1.6-2.6-3-3.3l-2.9-1.4
		c-1.4-0.7-3-0.7-4.5-0.2c-1.5,0.5-2.7,1.6-3.4,3.1l-2.8,6.2c0,0,0,0,0,0.1s0,0,0,0.1l-3.7,8.1c-0.1,0.3-0.4,0.4-0.7,0.3
		c-0.3-0.1-0.5-0.3-0.5-0.6V4.4C76.5,2,74.5,0,72.1,0z M74.4,95.6c0,1.3-1,2.3-2.3,2.3h-66c-1.3,0-2.3-1-2.3-2.3V4.4
		c0-1.3,1-2.3,2.3-2.3h66c1.3,0,2.3,1,2.3,2.3V36c0,0.1,0,0.2-0.1,0.3l-6.2,13.6c0,0,0,0.1-0.1,0.1C68,50,68,50,68,50.1
		c0,0.1-0.1,0.1-0.1,0.2c0,0,0,0.1,0,0.1l-2.1,4.5c0,0,0,0.1-0.1,0.1c0,0.1-0.1,0.1-0.1,0.2c0,0.1-0.1,0.1-0.1,0.2c0,0,0,0.1,0,0.1
		L63.4,60c0,0,0,0.1-0.1,0.1c0,0.1-0.1,0.1-0.1,0.2c0,0.1-0.1,0.1-0.1,0.2c0,0,0,0.1,0,0.1l-4.8,10.4c0,0,0,0.1,0,0.1
		c-0.1,0.1-0.1,0.3-0.2,0.4l-2.1,16c0,0.5,0.1,1,0.3,1.5c0.1,0.2,0.1,0.5-0.1,0.7l-1.6,2c-0.1,0.2-0.3,0.2-0.6,0.2
		c-0.2,0-0.4-0.2-0.5-0.4l-1-2.5c-0.4-0.9-1.2-1.5-2.2-1.6c-1-0.1-1.9,0.4-2.4,1.2l-0.6,1c-0.1,0.2-0.4,0.3-0.7,0.3
		c-0.3-0.1-0.4-0.3-0.5-0.5l-0.2-1.8c0-0.2,0-0.3,0.2-0.5c0.1-0.1,0.3-0.2,0.4-0.2h0.9c0.6,0,1-0.5,1-1s-0.5-1-1-1h-1.2
		c-0.3,0-0.6-0.2-0.6-0.5L45.9,83c-0.1-1.2-1-2.2-2.3-2.4c-1.2-0.1-2.4,0.6-2.7,1.7l-0.7,2c-0.1,0.2-0.3,0.4-0.6,0.4H11.9
		c-0.6,0-1,0.5-1,1s0.5,1,1,1h26.8c0.2,0,0.4,0.1,0.5,0.2c0.1,0.2,0.1,0.4,0.1,0.5L37,94c-0.2,0.5,0.1,1.1,0.6,1.2c0,0,0.1,0,0.1,0
		c0.1,0,0.1,0.1,0.2,0.1c0.4,0,0.8-0.3,0.9-0.7l2.5-7.5c0.1-0.2,0.3-0.4,0.6-0.4h1.8c0.3,0,0.6,0.2,0.6,0.5l0.2,2.2
		c0.1,1.1,0.9,2,2,2.3c1.1,0.3,2.2-0.2,2.8-1.2l0.6-1c0.1-0.2,0.3-0.3,0.6-0.3c0.2,0,0.4,0.2,0.5,0.4l1,2.5c0.3,0.8,1.1,1.5,2,1.6
		c0.9,0.1,1.8-0.2,2.4-0.9l1.9-2.4c0.1-0.2,0.3-0.2,0.5-0.2c0.8,0.1,1.5-0.2,2-0.8c0,0,0,0,0,0l0,0l10.8-11.7c0,0,0,0,0,0
		c0.1-0.1,0.2-0.2,0.2-0.3l1.5-3.2c0.1-0.3,0.4-0.4,0.7-0.3c0.3,0.1,0.5,0.3,0.5,0.6L74.4,95.6L74.4,95.6z M60.8,73.5l7.6,3.6
		c0.2,0.1,0.3,0.2,0.3,0.4s0,0.4-0.1,0.5l-9.2,10c-0.1,0.1-0.3,0.2-0.4,0.2c-0.1,0-0.2,0-0.3-0.1L58.5,88c-0.2-0.1-0.3-0.3-0.3-0.6
		L60,74c0-0.2,0.1-0.4,0.3-0.5C60.5,73.4,60.7,73.4,60.8,73.5z M44.1,84.1c0,0.2,0,0.3-0.2,0.5c-0.1,0.1-0.3,0.2-0.4,0.2h-0.4
		c-0.2,0-0.4-0.1-0.5-0.2c-0.1-0.2-0.1-0.4-0.1-0.5l0.3-0.9c0.1-0.3,0.4-0.4,0.6-0.4c0.3,0,0.5,0.3,0.5,0.5L44.1,84.1z M83.9,20.3
		l2.2-4.7c0.5-1,1.2-1.7,2.2-2c0.9-0.3,2-0.3,2.9,0.1l2.9,1.4c0.9,0.4,1.6,1.2,2,2.1c0.3,1,0.3,2-0.2,2.9l-2.2,4.8
		c-0.1,0.1-0.2,0.3-0.3,0.3c-0.1,0-0.1,0-0.2,0c-0.1,0-0.2,0-0.3-0.1l-8.7-4.1C83.9,20.9,83.8,20.6,83.9,20.3z M82.6,23.3
		c0.1-0.1,0.2-0.3,0.3-0.3c0.2-0.1,0.3,0,0.5,0l8.7,4.1c0.3,0.1,0.4,0.5,0.3,0.8L74.6,66.4c0,0,0,0.1,0,0.1
		c-0.1,0.1-0.1,0.2-0.1,0.3c0,0,0,0.1,0,0.1l-3.8,8.3c-0.1,0.1-0.2,0.3-0.3,0.3c-0.1,0-0.1,0-0.2,0c-0.1,0-0.2,0-0.3-0.1l-8.7-4.1
		c-0.3-0.1-0.4-0.5-0.3-0.8l3.6-7.9c0.1-0.1,0.2-0.3,0.3-0.3c0.2-0.1,0.3,0,0.5,0l2.7,1.3c0.1,0.1,0.3,0.1,0.4,0.1
		c0.4,0,0.8-0.2,0.9-0.6c0.1-0.3,0.1-0.5,0.1-0.8c-0.1-0.3-0.3-0.5-0.5-0.6l-2.8-1.3c-0.3-0.1-0.4-0.5-0.3-0.8l1-2.1
		c0.1-0.1,0.2-0.3,0.3-0.3c0.2-0.1,0.3,0,0.5,0l2.7,1.3c0.1,0.1,0.3,0.1,0.4,0.1c0.4,0,0.8-0.2,0.9-0.6c0.1-0.3,0.1-0.5,0.1-0.8
		c-0.1-0.3-0.3-0.5-0.5-0.6l-2.8-1.3c-0.3-0.1-0.4-0.5-0.3-0.8l1-2.1c0.1-0.1,0.2-0.3,0.3-0.3c0.2-0.1,0.3,0,0.5,0l2.7,1.3
		c0.1,0.1,0.3,0.1,0.4,0.1c0.4,0,0.8-0.2,0.9-0.6c0.1-0.3,0.1-0.6,0-0.8c-0.1-0.3-0.3-0.5-0.5-0.6l-2.8-1.3
		c-0.3-0.1-0.4-0.5-0.3-0.8L82.6,23.3z"/>
</g>
</svg>
