<?xml version="1.0" encoding="utf-8"?>
<!-- Generator: Adobe Illustrator 26.0.1, SVG Export Plug-In . SVG Version: 6.00 Build 0)  -->
<svg version="1.1" id="레이어_1" xmlns="http://www.w3.org/2000/svg" xmlns:xlink="http://www.w3.org/1999/xlink" x="0px"
	 y="0px" viewBox="0 0 30 30" style="enable-background:new 0 0 30 30;" xml:space="preserve">
<style type="text/css">
	.st0{fill:#898989;}
</style>
<g>
	<path id="패스_150" class="st0" d="M15.99972,29.99896h-1.99986c-1.50939,0.0369-2.76291-1.15679-2.79981-2.66618
		c-0.00109-0.04453-0.00109-0.08909,0-0.13362V26.5992c-0.63419-0.18177-1.23997-0.45101-1.79988-0.79994l-0.39997,0.39997
		c-1.14515,1.00153-2.85457,1.00153-3.99972,0l-1.3999-1.3999c-1.00153-1.14515-1.00153-2.85457,0-3.99972l0.39997-0.39997
		C3.73972,19.8217,3.53869,19.2186,3.4006,18.59975H2.80064c-1.48657,0.0594-2.73982-1.09754-2.79922-2.58411
		c-0.00021-0.00524-0.0004-0.01048-0.00058-0.01572v-1.99986c-0.0369-1.50939,1.15679-2.76291,2.66618-2.79981
		c0.04453-0.00109,0.08909-0.00109,0.13362,0H3.4006c0.18177-0.63419,0.45101-1.23997,0.79994-1.79988L3.80057,9.00042
		c-1.00153-1.14515-1.00153-2.85457,0-3.99972l1.3999-1.3999c1.14515-1.00153,2.85457-1.00153,3.99972,0l0.39997,0.39997
		c0.52037-0.23289,1.05469-0.43326,1.59989-0.59996V2.80085c0.03183-1.53291,1.2669-2.76797,2.7998-2.79981h1.99986
		c1.50939-0.0369,2.76291,1.15679,2.79981,2.66618c0.00109,0.04453,0.00109,0.08909,0,0.13362V3.4008
		c0.63419,0.18177,1.23997,0.45101,1.79987,0.79994l0.39997-0.39997c1.14515-1.00153,2.85457-1.00153,3.99972,0l1.3999,1.3999
		c1.00153,1.14515,1.00153,2.85457,0,3.99972l-0.39997,0.39997c0.34893,0.5599,0.61817,1.16568,0.79994,1.79988h0.59996
		c1.39208-0.04376,2.55606,1.04926,2.59982,2.44134c0.00166,0.05281,0.00166,0.10567,0,0.15848v1.99986
		c0.0369,1.50939-1.15679,2.76291-2.66618,2.79981c-0.04454,0.00109-0.08909,0.00109-0.13362,0h-0.59996
		c-0.18177,0.63419-0.45101,1.23997-0.79994,1.79988l0.39997,0.39997c1.00153,1.14515,1.00153,2.85457,0,3.99972l-1.3999,1.3999
		c-1.14515,1.00153-2.85457,1.00153-3.99972,0l-0.39997-0.39997c-0.5599,0.34894-1.16568,0.61817-1.79988,0.79994v0.59996
		C18.57394,28.82424,17.42483,29.97335,15.99972,29.99896z M9.80015,23.99938c0.79994,0.39997,1.79988,0.79994,2.59982,1.19992
		c0.39997,0.19999,0.59996,0.39997,0.59996,0.79994v1.19992c-0.0319,0.52034,0.36406,0.96803,0.8844,0.99993
		c0.03847,0.00236,0.07706,0.00236,0.11553,0h1.99986c0.52034,0.0319,0.96803-0.36406,0.99993-0.8844
		c0.00236-0.03847,0.00236-0.07706,0-0.11553v-1.19992c0-0.39997,0.19999-0.79994,0.59996-0.79994
		c0.94837-0.19162,1.83872-0.60255,2.59982-1.19992c0.39997-0.19999,0.79994-0.19999,0.99993,0.19999l0.99993,0.99993
		c0.36763,0.38657,0.97903,0.40193,1.36561,0.0343c0.01172-0.01114,0.02315-0.02258,0.0343-0.0343l1.3999-1.3999
		c0.38657-0.36763,0.40193-0.97903,0.0343-1.3656c-0.01114-0.01172-0.02258-0.02315-0.0343-0.0343l-0.99993-0.99993
		c-0.19999-0.19999-0.39997-0.79994-0.19999-0.99993c0.39997-0.79994,0.79994-1.79988,1.19992-2.59982
		c0.19999-0.39997,0.39997-0.59996,0.79994-0.59996h1.19992c0.52034,0.0319,0.96803-0.36406,0.99993-0.8844
		c0.00236-0.03847,0.00236-0.07705,0-0.11553v-2.19985c0.0319-0.52034-0.36406-0.96803-0.8844-0.99993
		c-0.03847-0.00236-0.07706-0.00236-0.11553,0h-0.99993c-0.39997,0-0.79994-0.19999-0.79994-0.59996
		c-0.19162-0.94837-0.60255-1.83872-1.19992-2.59982c-0.19999-0.39997-0.19999-0.79994,0.19999-0.99993l0.99993-0.99993
		c0.38657-0.36763,0.40193-0.97903,0.0343-1.3656c-0.01114-0.01172-0.02258-0.02315-0.0343-0.0343l-1.3999-1.3999
		c-0.36763-0.38657-0.97903-0.40193-1.3656-0.0343c-0.01172,0.01114-0.02316,0.02258-0.0343,0.0343l-0.99993,0.99993
		c-0.19999,0.19999-0.79994,0.39997-0.99993,0.19999c-0.85308-0.56589-1.80169-0.97244-2.79981-1.19992
		c-0.37475-0.19115-0.60765-0.57931-0.59996-0.99993V2.80085c0.0319-0.52034-0.36406-0.96803-0.8844-0.99993
		c-0.03847-0.00236-0.07705-0.00236-0.11553,0h-1.99986c-0.52034-0.0319-0.96803,0.36406-0.99993,0.8844
		c-0.00236,0.03847-0.00236,0.07706,0,0.11553v1.19992c0,0.39997-0.19999,0.79994-0.59996,0.79994
		c-0.99993,0.39997-1.79988,0.79994-2.59982,1.19992C9.40499,6.2358,8.89777,6.15126,8.60024,5.80064L7.80029,5.00069
		c-0.36763-0.38657-0.97903-0.40193-1.3656-0.0343c-0.01172,0.01114-0.02315,0.02258-0.0343,0.0343l-1.3999,1.3999
		c-0.38657,0.36763-0.40193,0.97903-0.0343,1.3656c0.01114,0.01172,0.02258,0.02315,0.0343,0.0343l0.99993,0.99993
		c0.2044,0.30198,0.2044,0.69796,0,0.99993c-0.45243,0.81596-0.78897,1.69098-0.99993,2.59982
		c-0.19115,0.37475-0.57931,0.60765-0.99993,0.59996H2.80064c-0.53708,0.03501-0.96492,0.46285-0.99993,0.99993v1.99986
		c-0.0319,0.52034,0.36406,0.96803,0.8844,0.99993c0.03847,0.00236,0.07706,0.00236,0.11553,0h1.19992
		c0.39997,0,0.79994,0.19999,0.79994,0.59996c0.39997,0.99993,0.79994,1.79987,1.19992,2.59982
		c0.19999,0.39997,0.19999,0.79994-0.19999,0.99993L4.8005,22.1995c-0.38657,0.36763-0.40193,0.97903-0.0343,1.36561
		c0.01114,0.01172,0.02258,0.02315,0.0343,0.0343l1.3999,1.3999c0.36763,0.38657,0.97903,0.40193,1.3656,0.0343
		c0.01172-0.01114,0.02315-0.02258,0.0343-0.0343l0.99993-0.99993C8.80022,23.79939,9.2002,23.79939,9.80015,23.99938z"/>
	<path id="패스_151" class="st0" d="M14.99979,21.59954c-3.64483,0-6.59954-2.95472-6.59954-6.59954
		s2.95472-6.59954,6.59954-6.59954S21.59934,11.35517,21.59934,15C21.56783,18.6317,18.63149,21.56804,14.99979,21.59954z
		 M14.99979,10.20033c-2.65078,0-4.79967,2.14888-4.79967,4.79967s2.14888,4.79967,4.79967,4.79967S19.79946,17.65079,19.79946,15
		c0,0,0,0,0,0C19.76394,12.36407,17.63573,10.23585,14.99979,10.20033z"/>
</g>
</svg>
