<?xml version="1.0" encoding="utf-8"?>
<!-- Generator: Adobe Illustrator 24.0.2, SVG Export Plug-In . SVG Version: 6.00 Build 0)  -->
<svg version="1.1" id="레이어_1" xmlns="http://www.w3.org/2000/svg" xmlns:xlink="http://www.w3.org/1999/xlink" x="0px"
	 y="0px" width="28px" height="28px" viewBox="0 0 28 28" style="enable-background:new 0 0 28 28;" xml:space="preserve">
<style type="text/css">
	.st0{fill:#040000;}
</style>
<g>
	<path id="패스_168" class="st0" d="M23.141,24.391c0.291-0.012,0.518-0.256,0.508-0.547V10.719
		c0.01-0.291-0.217-0.535-0.508-0.547H4.86c-0.291,0.012-0.518,0.256-0.508,0.547v13.125c-0.01,0.291,0.217,0.535,0.508,0.547
		H23.141z M16.541,17.829v5.469h-5.08v-5.469H16.541z M11.463,16.735v-5.469h5.078v5.469H11.463z M17.557,23.297v-5.469h5.078v5.469
		H17.557z M22.635,16.735h-5.083v-5.469h5.078L22.635,16.735z M10.448,11.266v5.469h-5.08v-5.469H10.448z M5.37,17.828h5.078v5.469
		h-5.08L5.37,17.828z"/>
	<path id="패스_169" class="st0" d="M25.477,1.641h-1.829V0.547c0.018-0.281-0.196-0.522-0.476-0.54
		c-0.281-0.018-0.522,0.196-0.54,0.476c-0.001,0.021-0.001,0.043,0,0.064v1.094h-5.077V0.547c0.018-0.281-0.196-0.522-0.476-0.54
		c-0.281-0.018-0.522,0.196-0.54,0.476c-0.001,0.021-0.001,0.043,0,0.064v1.094h-5.078V0.547c0.018-0.281-0.196-0.522-0.476-0.54
		s-0.522,0.196-0.54,0.476c-0.001,0.021-0.001,0.043,0,0.064v1.094H5.367V0.547C5.377,0.256,5.15,0.012,4.859,0
		C4.568,0.012,4.341,0.256,4.351,0.547v1.094H2.523C1.651,1.677,0.972,2.409,1,3.281v24.172C0.99,27.744,1.217,27.988,1.508,28
		h24.984c0.291-0.012,0.518-0.256,0.508-0.547V3.281C27.028,2.409,26.349,1.677,25.477,1.641z M25.985,26.907H2.016V7.656h23.968
		L25.985,26.907z M25.985,6.563H2.016V3.281C2.006,2.99,2.233,2.746,2.524,2.734h1.828v1.094C4.342,4.119,4.569,4.363,4.86,4.375
		c0.291-0.012,0.518-0.256,0.508-0.547V2.734h5.077v1.094c-0.018,0.281,0.196,0.522,0.476,0.54c0.281,0.018,0.522-0.196,0.54-0.476
		c0.001-0.021,0.001-0.043,0-0.064V2.734h5.078v1.094c-0.018,0.281,0.196,0.522,0.476,0.54c0.281,0.018,0.522-0.196,0.54-0.476
		c0.001-0.021,0.001-0.043,0-0.064V2.734h5.078v1.094c-0.018,0.281,0.196,0.522,0.476,0.54c0.281,0.018,0.522-0.196,0.54-0.476
		c0.001-0.021,0.001-0.043,0-0.064V2.734h1.828c0.291,0.012,0.518,0.256,0.508,0.547V6.563z"/>
</g>
</svg>
