<?xml version="1.0" encoding="utf-8"?>
<!-- Generator: Adobe Illustrator 24.0.2, SVG Export Plug-In . SVG Version: 6.00 Build 0)  -->
<svg version="1.1" id="레이어_1" xmlns="http://www.w3.org/2000/svg" xmlns:xlink="http://www.w3.org/1999/xlink" x="0px"
	 y="0px" width="20px" height="20px" viewBox="0 0 20 20" style="enable-background:new 0 0 20 20;" xml:space="preserve">
<style type="text/css">
	.st0{fill:#FFFFFF;}
</style>
<g>
	<path id="합치기_1" class="st0" d="M10.51,19.364l-10-1.875C0.214,17.434,0,17.176,0,16.875V3.125
		c-0.001-0.301,0.214-0.559,0.51-0.614l10-1.875c0.182-0.034,0.371,0.014,0.514,0.132c0.143,0.119,0.226,0.295,0.226,0.481v1.875
		h8.125C19.72,3.124,20,3.404,20,3.749v12.5c0,0.345-0.28,0.625-0.625,0.625H11.25v1.875c0,0.186-0.083,0.362-0.226,0.481
		c-0.112,0.093-0.254,0.144-0.4,0.144C10.586,19.375,10.548,19.372,10.51,19.364z M1.25,3.644v12.713l8.75,1.64V2.004L1.25,3.644z
		 M18.75,15.626V4.376h-7.5v1.25h1.875c0.345-0.001,0.625,0.279,0.626,0.624c0,0,0,0.001,0,0.001c0,0.345-0.28,0.625-0.625,0.625
		c0,0-0.001,0-0.001,0H11.25v1.25h1.875c0.345-0.001,0.625,0.279,0.626,0.624c0,0,0,0.001,0,0.001c0,0.345-0.28,0.625-0.625,0.625
		c0,0-0.001,0-0.001,0H11.25v1.25h1.875c0.345-0.001,0.625,0.279,0.626,0.624c0,0,0,0.001,0,0.001c0,0.345-0.28,0.625-0.625,0.625
		c0,0-0.001,0-0.001,0H11.25v1.25h1.875c0.345-0.001,0.625,0.279,0.626,0.624c0,0,0,0.001,0,0.001c0,0.345-0.28,0.625-0.625,0.625
		c0,0-0.001,0-0.001,0H11.25v1.25H18.75z M15.625,14.376c-0.345,0-0.625-0.28-0.625-0.625s0.28-0.625,0.625-0.625h1.25
		c0.345,0,0.625,0.28,0.625,0.625s-0.28,0.625-0.625,0.625H15.625z M7.655,12.912l-1.817-2.077l-1.595,2.05
		c-0.119,0.152-0.3,0.24-0.493,0.24c-0.139,0-0.273-0.046-0.383-0.131c-0.273-0.212-0.322-0.605-0.11-0.878L5,9.876L3.281,7.912
		C3.054,7.654,3.079,7.26,3.337,7.033c0.001-0.001,0.001-0.001,0.002-0.002C3.598,6.804,3.992,6.829,4.22,7.088
		C4.22,7.089,4.221,7.09,4.222,7.09l1.559,1.782l1.851-2.38C7.844,6.22,8.237,6.171,8.51,6.383C8.782,6.596,8.831,6.988,8.619,7.26
		l-2,2.569l1.977,2.259c0.227,0.259,0.202,0.653-0.057,0.881c-0.001,0-0.001,0.001-0.002,0.001c-0.115,0.1-0.261,0.155-0.413,0.155
		C7.944,13.125,7.773,13.047,7.655,12.912L7.655,12.912z M15.625,11.876c-0.345,0-0.625-0.28-0.625-0.625s0.28-0.625,0.625-0.625
		h1.25c0.345,0,0.625,0.28,0.625,0.625s-0.28,0.625-0.625,0.625H15.625z M15.625,9.376C15.28,9.376,15,9.097,15,8.751
		s0.28-0.625,0.625-0.625h1.25c0.345,0,0.625,0.28,0.625,0.625s-0.28,0.625-0.625,0.625H15.625z M15.625,6.876
		C15.28,6.876,15,6.597,15,6.251s0.28-0.625,0.625-0.625h1.25c0.345,0,0.625,0.28,0.625,0.625s-0.28,0.625-0.625,0.625H15.625z"/>
</g>
</svg>
