<?xml version="1.0" encoding="utf-8"?>
<!-- Generator: Adobe Illustrator 24.0.2, SVG Export Plug-In . SVG Version: 6.00 Build 0)  -->
<svg version="1.1" id="레이어_1" xmlns="http://www.w3.org/2000/svg" xmlns:xlink="http://www.w3.org/1999/xlink" x="0px"
	 y="0px" width="20px" height="20px" viewBox="0 0 20 20" style="enable-background:new 0 0 20 20;" xml:space="preserve">
<style type="text/css">
	.st0{fill:#FFFFFF;}
</style>
<g>
	<g id="그룹_202" transform="translate(0 0)">
		<g id="그룹_201">
			<path id="패스_177" class="st0" d="M18.444,5.23h-2.121V1.372c0-0.368-0.299-0.667-0.667-0.667H4.343
				c-0.368,0-0.667,0.299-0.667,0.667V5.23h-2.12C0.697,5.231,0.001,5.927,0,6.786v6.707c0.001,0.859,0.697,1.555,1.556,1.556h2.121
				v3.579c0,0.368,0.299,0.667,0.667,0.667h11.312c0.368,0,0.667-0.299,0.667-0.667v-3.58h2.121
				c0.859-0.001,1.555-0.696,1.556-1.555V6.786C19.999,5.927,19.303,5.231,18.444,5.23z M5.01,2.04h9.98v3.19H5.01V2.04z
				 M14.99,17.96H5.01v-5.454h9.98C14.99,12.671,14.99,17.84,14.99,17.96z M18.667,13.493c0,0.123-0.099,0.222-0.222,0.222l0,0
				h-2.122V11.84c0-0.368-0.299-0.667-0.667-0.667H4.344c-0.368,0-0.667,0.299-0.667,0.667v1.876H1.556
				c-0.123,0-0.222-0.099-0.222-0.222l0,0V6.786c0-0.123,0.099-0.222,0.222-0.222h0h16.888c0.123,0,0.222,0.099,0.222,0.222l0,0
				L18.667,13.493L18.667,13.493z"/>
		</g>
	</g>
	<g id="그룹_204" transform="translate(13.307 7.11)">
		<g id="그룹_203">
			<path id="패스_178" class="st0" d="M2.35,0.705H0.663C0.297,0.705,0,1.002,0,1.368c0,0.366,0.297,0.663,0.663,0.663H2.35
				c0.366,0,0.663-0.297,0.663-0.663C3.013,1.002,2.716,0.705,2.35,0.705z"/>
		</g>
	</g>
	<g id="그룹_206" transform="translate(6.465 14.934)">
		<g id="그룹_205">
			<path id="패스_179" class="st0" d="M6.407,0.705H0.663c-0.366-0.001-0.664,0.294-0.666,0.66
				c-0.002,0.366,0.294,0.664,0.66,0.666c0.002,0,0.004,0,0.005,0h5.744c0.366,0.001,0.664-0.294,0.666-0.66
				c0.002-0.366-0.294-0.664-0.66-0.666C6.411,0.705,6.409,0.705,6.407,0.705z"/>
		</g>
	</g>
	<g id="그룹_208" transform="translate(6.465 12.816)">
		<g id="그룹_207">
			<path id="패스_180" class="st0" d="M6.407,0.705H0.663c-0.366-0.001-0.664,0.294-0.666,0.66
				c-0.002,0.366,0.294,0.664,0.66,0.666c0.002,0,0.004,0,0.005,0h5.744c0.366,0.001,0.664-0.294,0.666-0.66
				c0.002-0.366-0.294-0.664-0.66-0.666C6.411,0.705,6.409,0.705,6.407,0.705z"/>
		</g>
	</g>
</g>
</svg>
