<?xml version="1.0" encoding="utf-8"?>
<!-- Generator: Adobe Illustrator 24.0.2, SVG Export Plug-In . SVG Version: 6.00 Build 0)  -->
<svg version="1.1" id="레이어_1" xmlns="http://www.w3.org/2000/svg" xmlns:xlink="http://www.w3.org/1999/xlink" x="0px"
	 y="0px" viewBox="0 0 18 18" style="enable-background:new 0 0 18 18;" xml:space="preserve">
<style type="text/css">
	.st0{fill:#024490;}
</style>
<g id="그룹_157">
	<g id="그룹_156">
		<path id="패스_155" class="st0" d="M8.742,12.143c-0.494,0-0.894,0.4-0.894,0.894s0.4,0.894,0.894,0.894
			c0.494,0,0.894-0.4,0.894-0.894S9.236,12.143,8.742,12.143z"/>
		<path id="패스_156" class="st0" d="M8.892,5.061c-1.568,0-2.288,0.929-2.288,1.556c0,0.366,0.296,0.664,0.662,0.664
			c0.011,0,0.023,0,0.034-0.001c0.627,0,0.371-0.894,1.556-0.894c0.581,0,1.042,0.256,1.042,0.789c0,0.627-0.65,0.987-1.034,1.312
			c-0.527,0.43-0.816,1.086-0.778,1.765c0,0.603,0.163,0.778,0.639,0.778c0.568,0,0.685-0.256,0.685-0.474
			c-0.089-0.57,0.165-1.139,0.65-1.451c0.724-0.484,1.199-1.26,1.301-2.125C11.365,5.887,10.378,5.061,8.892,5.061z"/>
		<path id="패스_157" class="st0" d="M9,0C4.161,0.133,0.345,4.161,0.474,9v8.299C0.465,17.675,0.761,17.988,1.137,18H9
			c4.839-0.133,8.655-4.161,8.526-9C17.655,4.161,13.839,0.133,9,0z M9,16.597H1.8V9C1.692,4.915,4.915,1.516,9,1.407
			C13.085,1.516,16.308,4.915,16.2,9c0.11,4.085-3.112,7.487-7.198,7.597C9.002,16.597,9.001,16.597,9,16.597z"/>
	</g>
</g>
</svg>
