<?xml version="1.0" encoding="utf-8"?>
<!-- Generator: Adobe Illustrator 24.0.2, SVG Export Plug-In . SVG Version: 6.00 Build 0)  -->
<svg version="1.1" id="레이어_1" xmlns="http://www.w3.org/2000/svg" xmlns:xlink="http://www.w3.org/1999/xlink" x="0px"
	 y="0px" width="20px" height="20px" viewBox="0 0 20 20" style="enable-background:new 0 0 20 20;" xml:space="preserve">
<style type="text/css">
	.st0{fill:#FFFFFF;}
</style>
<g id="save" transform="translate(-31 0)">
	<path id="패스_173" class="st0" d="M32.211,0v20h17.578V3.859L45.93,0H32.211z M38.07,1.172h3.516v3.515H38.07V1.172z
		 M42.758,1.172h1.172v3.515h-1.172V1.172z M48.617,18.828H33.383V1.172h3.516v4.687h8.2V1.172h0.343l3.172,3.172L48.617,18.828z"/>
	<path id="패스_174" class="st0" d="M35.727,17.653h10.547v-8.2H35.727V17.653z M36.899,10.622h8.2v5.859h-8.2V10.622z"/>
	<path id="패스_175" class="st0" d="M38.07,11.797h5.859v1.172H38.07V11.797z"/>
	<path id="패스_176" class="st0" d="M38.07,14.141h5.859v1.172H38.07V14.141z"/>
</g>
</svg>
