<?xml version="1.0" encoding="utf-8"?>
<!-- Generator: Adobe Illustrator 24.0.2, SVG Export Plug-In . SVG Version: 6.00 Build 0)  -->
<svg version="1.1" id="레이어_1" xmlns="http://www.w3.org/2000/svg" xmlns:xlink="http://www.w3.org/1999/xlink" x="0px"
	 y="0px" width="20px" height="20px" viewBox="0 0 20 20" style="enable-background:new 0 0 20 20;" xml:space="preserve">
<style type="text/css">
	.st0{fill:#FFFFFF;}
</style>
<g id="search" transform="translate(-2)">
	<g id="그룹_197" transform="translate(2)">
		<path id="패스_172" class="st0" d="M19.879,18.703l-5.801-5.801c2.751-3.401,2.225-8.388-1.176-11.139S4.514-0.462,1.762,2.939
			s-2.225,8.388,1.176,11.139c2.905,2.35,7.058,2.35,9.963,0l5.802,5.8c0.163,0.162,0.426,0.162,0.588,0l0.588-0.588
			C20.041,19.128,20.041,18.865,19.879,18.703z M7.935,14.176c-3.447,0-6.241-2.794-6.241-6.241s2.794-6.241,6.241-6.241
			s6.241,2.794,6.241,6.241C14.173,11.38,11.381,14.172,7.935,14.176z"/>
	</g>
</g>
</svg>
