<?xml version="1.0" encoding="utf-8"?>
<!-- Generator: Adobe Illustrator 24.0.2, SVG Export Plug-In . SVG Version: 6.00 Build 0)  -->
<svg version="1.1" id="레이어_1" xmlns="http://www.w3.org/2000/svg" xmlns:xlink="http://www.w3.org/1999/xlink" x="0px"
	 y="0px" viewBox="0 0 113 20.499" style="enable-background:new 0 0 113 20.499;" xml:space="preserve">
<style type="text/css">
	.st0{fill:#043A7C;}
</style>
<g id="그룹_85" transform="translate(-86.069 -234.642)">
	<g id="그룹_82" transform="translate(86.069 234.642)">
		<path id="패스_150" class="st0" d="M0,0.494h18.235v5.118h-5.873v14.328H5.876V5.611H0V0.494z"/>
		<path id="패스_151" class="st0" d="M39.958,7.957h-6.163c-0.055-0.864-0.433-1.675-1.06-2.271
			c-0.627-0.553-1.443-0.844-2.278-0.814c-1.092-0.027-2.133,0.459-2.814,1.313c-0.833,1.258-1.217,2.761-1.089,4.264
			c-0.05,1.048,0.108,2.095,0.465,3.081c0.261,0.644,0.713,1.193,1.296,1.571c0.623,0.366,1.338,0.546,2.06,0.519
			c0.873,0.045,1.731-0.245,2.398-0.811c0.637-0.643,1.012-1.501,1.052-2.406h6.271c-0.099,1.044-0.348,2.068-0.741,3.04
			c-0.433,0.929-1.04,1.767-1.788,2.469c-0.853,0.835-1.87,1.484-2.986,1.907c-1.28,0.474-2.638,0.703-4.002,0.676
			c-1.426,0.014-2.844-0.209-4.196-0.661c-1.197-0.393-2.299-1.029-3.237-1.868c-0.854-0.785-1.548-1.728-2.041-2.778
			c-0.709-1.517-1.066-3.174-1.045-4.849c-0.011-1.441,0.244-2.872,0.753-4.221c0.453-1.226,1.156-2.344,2.066-3.283
			c0.832-0.85,1.824-1.528,2.918-1.994c1.435-0.576,2.97-0.861,4.517-0.842c1.371-0.01,2.736,0.203,4.039,0.629
			c1.167,0.363,2.232,0.994,3.112,1.842c0.801,0.796,1.433,1.746,1.86,2.792C39.663,6.127,39.876,7.033,39.958,7.957z"/>
		<path id="패스_152" class="st0" d="M61.778,7.957h-6.16c-0.057-0.863-0.435-1.673-1.059-2.271
			c-0.628-0.553-1.444-0.844-2.28-0.814c-1.091-0.027-2.131,0.459-2.811,1.313c-0.836,1.257-1.221,2.76-1.091,4.264
			c-0.05,1.048,0.109,2.095,0.467,3.081c0.259,0.645,0.712,1.194,1.296,1.571c0.622,0.365,1.336,0.545,2.057,0.519
			c0.875,0.046,1.734-0.244,2.402-0.811c0.637-0.644,1.012-1.501,1.051-2.406h6.273c-0.1,1.044-0.349,2.068-0.741,3.04
			c-0.434,0.929-1.041,1.767-1.79,2.469c-0.851,0.836-1.868,1.486-2.984,1.907c-1.281,0.474-2.64,0.703-4.005,0.676
			c-1.425,0.014-2.842-0.209-4.193-0.661c-2.329-0.747-4.242-2.431-5.278-4.646c-0.706-1.518-1.062-3.175-1.041-4.849
			c-0.013-1.441,0.242-2.872,0.752-4.221c0.452-1.227,1.157-2.346,2.069-3.283c0.83-0.852,1.821-1.53,2.916-1.994
			c1.436-0.576,2.972-0.862,4.519-0.842c1.371-0.009,2.735,0.203,4.039,0.629c1.164,0.363,2.227,0.994,3.104,1.842
			c0.805,0.794,1.438,1.744,1.861,2.792C61.491,6.126,61.702,7.033,61.778,7.957z"/>
	</g>
	<g id="그룹_83" transform="translate(181.495 235.616)">
		<path id="패스_153" class="st0" d="M17.38,6.051V9.38h-3.378V9.181H2.934C2.089,9.246,1.242,9.07,0.493,8.675
			c-0.54-0.397-0.834-1.047-0.776-1.715V0.336h11.42V2.4H3.089v1.19h7.976v2.065H3.089v1.471h10.913v-7.128h3.373v3.875
			 M17.375,10.263v5.16H4.114v1.031h13.46v2.105H3.851c-0.804,0.05-1.606-0.14-2.302-0.545c-0.514-0.331-0.817-0.908-0.798-1.52
			V13.32h13.251v-0.992H0.751v-2.064L17.375,10.263z"/>
	</g>
	<g id="그룹_84" transform="translate(155.77 236.104)">
		<path id="패스_154" class="st0" d="M13.285,6.209c1.619,1.452,3.568,2.489,5.677,3.02l-1.436,1.689
			C15.78,10.417,14.1,9.709,12.521,8.81C11.254,8.076,10.15,7.09,9.28,5.912C8.457,7.101,7.38,8.091,6.126,8.81
			c-1.592,0.904-3.287,1.612-5.048,2.109l-1.284-1.689c2.052-0.557,3.94-1.6,5.504-3.041c1.627-1.643,2.502-3.885,2.416-6.196h3.2
			C10.812,2.303,11.671,4.553,13.285,6.209z M18.769,15.46v2.117H-0.076V15.46H18.769z"/>
	</g>
</g>
</svg>
