<?xml version="1.0" encoding="utf-8"?>
<!-- Generator: Adobe Illustrator 24.0.2, SVG Export Plug-In . SVG Version: 6.00 Build 0)  -->
<svg version="1.1" id="레이어_1" xmlns="http://www.w3.org/2000/svg" xmlns:xlink="http://www.w3.org/1999/xlink" x="0px"
	 y="0px" viewBox="0 0 66 12" style="enable-background:new 0 0 66 12;" xml:space="preserve">
<style type="text/css">
	.st0{fill:#ABABAB;}
</style>
<g id="그룹_155" transform="translate(-86.069 -234.642)">
	<g id="그룹_82" transform="translate(86.069 234.642)">
		<path id="패스_150" class="st0" d="M0,0.307h10.874v2.986H7.373v8.358H3.5V3.293H0V0.307z"/>
		<path id="패스_151" class="st0" d="M23.829,4.66h-3.675c-0.034-0.507-0.26-0.981-0.632-1.326
			c-0.377-0.324-0.862-0.493-1.358-0.475c-0.648-0.018-1.268,0.266-1.678,0.767c-0.496,0.731-0.725,1.61-0.649,2.49
			c-0.03,0.612,0.065,1.224,0.278,1.799c0.157,0.378,0.427,0.699,0.772,0.918c0.373,0.214,0.799,0.319,1.228,0.303
			c0.519,0.027,1.03-0.142,1.43-0.474c0.379-0.372,0.603-0.874,0.628-1.405h3.74c-0.059,0.61-0.208,1.209-0.441,1.775
			c-0.26,0.544-0.621,1.034-1.066,1.441c-0.512,0.49-1.12,0.869-1.784,1.114c-0.765,0.278-1.574,0.412-2.387,0.397
			c-0.849,0.009-1.695-0.122-2.502-0.386c-0.71-0.228-1.367-0.599-1.928-1.09c-0.508-0.456-0.921-1.007-1.217-1.622
			c-0.422-0.883-0.636-1.852-0.624-2.831c-0.006-0.842,0.146-1.678,0.449-2.464c0.272-0.718,0.692-1.372,1.232-1.917
			c0.499-0.499,1.09-0.895,1.741-1.167c0.857-0.338,1.772-0.506,2.693-0.496c0.817-0.006,1.63,0.118,2.409,0.368
			c0.693,0.211,1.328,0.579,1.856,1.076c0.476,0.464,0.854,1.019,1.109,1.633C23.653,3.592,23.78,4.121,23.829,4.66z"/>
		<path id="패스_152" class="st0" d="M36.84,4.66h-3.673c-0.035-0.506-0.261-0.98-0.631-1.326
			c-0.377-0.324-0.863-0.493-1.36-0.475c-0.647-0.017-1.266,0.266-1.676,0.767c-0.497,0.73-0.727,1.61-0.65,2.49
			c-0.03,0.612,0.065,1.224,0.279,1.799c0.156,0.379,0.425,0.699,0.771,0.918c0.373,0.214,0.798,0.319,1.227,0.303
			c0.52,0.027,1.031-0.142,1.432-0.474c0.378-0.373,0.602-0.874,0.627-1.405h3.739c-0.059,0.61-0.208,1.208-0.441,1.775
			c-0.26,0.544-0.622,1.034-1.067,1.441c-0.512,0.491-1.119,0.87-1.784,1.114c-0.765,0.277-1.575,0.412-2.388,0.397
			c-0.849,0.009-1.693-0.122-2.5-0.386c-0.71-0.227-1.366-0.599-1.927-1.09c-0.508-0.456-0.923-1.007-1.22-1.622
			c-0.42-0.884-0.633-1.852-0.621-2.831c-0.008-0.842,0.144-1.679,0.448-2.464c0.271-0.719,0.692-1.373,1.234-1.917
			c0.497-0.5,1.088-0.896,1.739-1.167c0.858-0.338,1.773-0.506,2.694-0.496c0.817-0.006,1.63,0.119,2.409,0.368
			c0.692,0.211,1.325,0.579,1.851,1.076c0.479,0.462,0.857,1.018,1.11,1.633C36.664,3.591,36.792,4.121,36.84,4.66z"/>
	</g>
	<g id="그룹_83" transform="translate(141.895 235.226)">
		<path id="패스_153" class="st0" d="M10.049,3.536v1.94H8.037V5.362H1.435C0.932,5.399,0.428,5.296-0.021,5.065
			c-0.32-0.228-0.496-0.608-0.463-0.999V0.199h6.81v1.202H1.524v0.694h4.758v1.202H1.524v0.856h6.509V0h2.016v2.257 M10.049,5.981
			v3.007H2.144v0.601h8.03v1.226H1.98c-0.479,0.029-0.956-0.082-1.373-0.318c-0.304-0.19-0.485-0.527-0.475-0.885v-1.85h7.905V7.183
			H0.136V5.988L10.049,5.981z"/>
	</g>
	<g id="그룹_84" transform="translate(126.831 235.519)">
		<path id="패스_154" class="st0" d="M7.691,3.623c0.972,0.848,2.133,1.451,3.385,1.758l-0.856,0.983
			C9.182,6.073,8.18,5.661,7.236,5.137C6.484,4.713,5.826,4.139,5.303,3.451C4.808,4.146,4.165,4.722,3.42,5.137
			C2.469,5.663,1.458,6.075,0.41,6.364L-0.356,5.38c1.219-0.321,2.344-0.928,3.282-1.77c0.966-0.946,1.489-2.255,1.44-3.605h1.908
			C6.218,1.357,6.732,2.669,7.691,3.623z M10.963,9.006v1.232H-0.275V9.006H10.963z"/>
	</g>
</g>
</svg>
