<?xml version="1.0" encoding="utf-8"?>
<!-- Generator: Adobe Illustrator 23.1.0, SVG Export Plug-In . SVG Version: 6.00 Build 0)  -->
<svg version="1.1" id="레이어_1" xmlns="http://www.w3.org/2000/svg" xmlns:xlink="http://www.w3.org/1999/xlink" x="0px"
	 y="0px" viewBox="0 0 15 15" style="enable-background:new 0 0 15 15;" xml:space="preserve">
<style type="text/css">
	.st0{fill:#F5838B;}
</style>
<path class="st0" d="M7.5,2.4l1.4,3l0.2,0.5L9.7,6l3.2,0.5l-2.4,2.4l-0.3,0.4l0.1,0.5l0.5,3.3L8,11.5l-0.5-0.3L7,11.5L4.2,13
	l0.5-3.3l0.1-0.5L4.5,8.9L2.2,6.5L5.4,6l0.5-0.1l0.2-0.5L7.5,2.4 M7.5,0.1L5.2,5L0.1,5.8l3.7,3.8L3,14.9l4.6-2.5l4.6,2.5l-0.9-5.4
	L15,5.7L9.8,5L7.5,0.1z"/>
</svg>
