<?xml version="1.0" encoding="utf-8"?>
<!-- Generator: Adobe Illustrator 23.1.0, SVG Export Plug-In . SVG Version: 6.00 Build 0)  -->
<svg version="1.1" id="Capa_1" xmlns="http://www.w3.org/2000/svg" xmlns:xlink="http://www.w3.org/1999/xlink" x="0px" y="0px"
	 viewBox="0 0 60 60" style="enable-background:new 0 0 60 60;" xml:space="preserve">
<style type="text/css">
	.st0{fill:#FFFFFF;}
</style>
<g>
	<path class="st0" d="M9.75,11.25h-9.5v48.5h59.5v-48.5l-9.618-0.03c-1.129-0.605-11.19-6.011-16.638-9.429L33.445,1.75
		C32.532,0.783,31.31,0.25,30,0.25c-1.309,0-2.533,0.533-3.445,1.5l-0.049,0.041c-5.449,3.417-15.509,8.824-16.638,9.429L9.75,11.25
		z M58.25,58.25H1.75v-38.5h56.5V58.25z M58.25,12.75v5.5H1.75v-5.5H58.25z M26.825,4.316c0.008-0.035,0.019-0.067,0.03-0.1
		c0.178-0.641,0.475-1.074,0.703-1.337L27.6,2.827C28.213,2.146,29.091,1.75,30,1.75c0.909,0,1.787,0.396,2.408,1.086l0.034,0.046
		c0.247,0.286,0.529,0.708,0.688,1.287c0.025,0.074,0.037,0.111,0.046,0.15C33.225,4.544,33.25,4.773,33.25,5
		c0,1.792-1.458,3.25-3.25,3.25S26.75,6.792,26.75,5C26.75,4.77,26.775,4.54,26.825,4.316z M13.83,10.781
		c3.056-1.668,7.454-4.104,11.048-6.242l0.4-0.238l-0.022,0.464C25.252,4.844,25.25,4.922,25.25,5c0,2.619,2.131,4.75,4.75,4.75
		S34.75,7.619,34.75,5c0-0.078-0.002-0.156-0.006-0.234l-0.021-0.464l0.399,0.238c3.585,2.131,7.987,4.571,11.049,6.242l0.859,0.469
		H12.969L13.83,10.781z"/>
	<circle class="st0" cx="23" cy="28" r="0.75"/>
	<circle class="st0" cx="30" cy="28" r="0.75"/>
	<circle class="st0" cx="37" cy="28" r="0.75"/>
	<circle class="st0" cx="44" cy="28" r="0.75"/>
	<circle class="st0" cx="51" cy="28" r="0.75"/>
	<circle class="st0" cx="9" cy="36" r="0.75"/>
	<circle class="st0" cx="16" cy="36" r="0.75"/>
	<circle class="st0" cx="23" cy="36" r="0.75"/>
	<circle class="st0" cx="30" cy="36" r="0.75"/>
	<circle class="st0" cx="37" cy="36" r="0.75"/>
	<circle class="st0" cx="44" cy="36" r="0.75"/>
	<circle class="st0" cx="51" cy="36" r="0.75"/>
	<circle class="st0" cx="9" cy="43" r="0.75"/>
	<circle class="st0" cx="16" cy="43" r="0.75"/>
	<circle class="st0" cx="23" cy="43" r="0.75"/>
	<circle class="st0" cx="30" cy="43" r="0.75"/>
	<circle class="st0" cx="37" cy="43" r="0.75"/>
	<circle class="st0" cx="44" cy="43" r="0.75"/>
	<circle class="st0" cx="51" cy="43" r="0.75"/>
	<circle class="st0" cx="9" cy="51" r="0.75"/>
	<circle class="st0" cx="16" cy="51" r="0.75"/>
	<circle class="st0" cx="23" cy="51" r="0.75"/>
	<circle class="st0" cx="30" cy="51" r="0.75"/>
	<circle class="st0" cx="37" cy="51" r="0.75"/>
</g>
</svg>
