<?xml version="1.0" encoding="utf-8"?>
<!-- Generator: Adobe Illustrator 23.1.0, SVG Export Plug-In . SVG Version: 6.00 Build 0)  -->
<svg version="1.1" id="Capa_1" xmlns="http://www.w3.org/2000/svg" xmlns:xlink="http://www.w3.org/1999/xlink" x="0px" y="0px"
	 viewBox="0 0 16 16" style="enable-background:new 0 0 16 16;" xml:space="preserve">
<style type="text/css">
	.st0{fill:#666666;}
</style>
<g>
	<path class="st0" d="M13.864,0.331L4.908,0.349L2.136,0.355C0.958,0.355,0,1.313,0,2.492v7.263c0,1.178,0.958,2.135,2.136,2.135
		h1.986v3.336c0,0.184,0.111,0.347,0.283,0.414c0.052,0.019,0.105,0.029,0.16,0.029c0.124,0,0.244-0.052,0.327-0.145l3.304-3.635
		l5.668-0.023c1.178,0,2.135-0.958,2.135-2.135V2.467C16,1.289,15.042,0.331,13.864,0.331z M4.565,11.005H2.136
		c-0.69,0-1.251-0.562-1.251-1.252V2.491c0-0.69,0.561-1.251,1.252-1.251l11.659-0.024h0.068c0.69,0,1.252,0.561,1.252,1.251v7.262
		c0,0.691-0.562,1.252-1.254,1.252l-5.864,0.024c-0.124,0-0.243,0.052-0.326,0.144l-2.665,2.932v-2.634
		C5.007,11.203,4.809,11.005,4.565,11.005z"/>
	<path class="st0" d="M4.221,5.479c-0.434,0-0.786,0.353-0.786,0.786c0,0.434,0.353,0.786,0.786,0.786s0.786-0.353,0.786-0.786
		C5.007,5.831,4.655,5.479,4.221,5.479z"/>
	<path class="st0" d="M8,7.05c0.434,0,0.786-0.353,0.786-0.786c0-0.433-0.353-0.786-0.786-0.786c-0.434,0-0.786,0.353-0.786,0.786
		C7.214,6.698,7.566,7.05,8,7.05z"/>
	<path class="st0" d="M11.779,7.05c0.433,0,0.785-0.353,0.785-0.786c0-0.433-0.352-0.786-0.785-0.786s-0.785,0.353-0.785,0.786
		C10.994,6.698,11.346,7.05,11.779,7.05z"/>
</g>
</svg>
