<?xml version="1.0" encoding="utf-8"?>
<!-- Generator: Adobe Illustrator 23.1.0, SVG Export Plug-In . SVG Version: 6.00 Build 0)  -->
<svg version="1.1" id="레이어_1" xmlns="http://www.w3.org/2000/svg" xmlns:xlink="http://www.w3.org/1999/xlink" x="0px"
	 y="0px" viewBox="0 0 50 50" style="enable-background:new 0 0 50 50;" xml:space="preserve">
<style type="text/css">
	.st0{fill:#898989;}
</style>
<g>
	<g>
		<path class="st0" d="M25.001,49.999C11.215,49.999,0,38.785,0,25S11.215,0.001,25.001,0.001S50,11.215,50,25
			S38.786,49.999,25.001,49.999z M25.001,1.031C11.784,1.031,1.032,11.783,1.032,25s10.752,23.969,23.968,23.969
			S48.969,38.217,48.969,25S38.217,1.031,25.001,1.031z"/>
	</g>
	<g>
		<path class="st0" d="M25.001,31.057c-5.614,0-10.18-4.567-10.18-10.18c0-5.614,4.567-10.18,10.18-10.18
			c5.614,0,10.18,4.567,10.18,10.18C35.181,26.49,30.614,31.057,25.001,31.057z M25.001,11.727c-5.045,0-9.149,4.104-9.149,9.149
			c0,5.045,4.104,9.149,9.149,9.149c5.045,0,9.149-4.104,9.149-9.149C34.15,15.831,30.046,11.727,25.001,11.727z"/>
	</g>
	<g>
		<path class="st0" d="M7.864,42.4c-0.036,0-0.073-0.003-0.11-0.011c-0.278-0.06-0.455-0.335-0.396-0.613
			c0.026-0.117,2.699-11.751,17.187-11.751c14.458,0,18.05,11.596,18.085,11.714c0.08,0.272-0.075,0.558-0.347,0.639
			c-0.273,0.082-0.56-0.075-0.641-0.347c-0.133-0.448-3.428-10.975-17.097-10.975c-13.666,0-16.155,10.828-16.179,10.937
			C8.315,42.236,8.101,42.4,7.864,42.4z"/>
	</g>
</g>
</svg>
