<?xml version="1.0" encoding="utf-8"?>
<!-- Generator: Adobe Illustrator 23.1.0, SVG Export Plug-In . SVG Version: 6.00 Build 0)  -->
<svg version="1.1" id="레이어_1" xmlns="http://www.w3.org/2000/svg" xmlns:xlink="http://www.w3.org/1999/xlink" x="0px"
	 y="0px" viewBox="0 0 200 17.196" style="enable-background:new 0 0 200 17.196;" xml:space="preserve">
<style type="text/css">
	.st0{fill:#00ADEE;}
	.st1{fill:#EC1B23;stroke:#EC1B23;stroke-width:0.4293;}
	.st2{fill:#221E1F;}
</style>
<g>
	<g>
		<path class="st0" d="M0,8.598c0,4.741,3.929,8.598,8.758,8.598c4.829,0,8.758-3.857,8.758-8.598C17.516,3.857,13.587,0,8.758,0
			C3.929,0,0,3.857,0,8.598z M0.494,8.598c0-4.473,3.707-8.113,8.264-8.113c4.557,0,8.264,3.64,8.264,8.113
			c0,4.474-3.707,8.113-8.264,8.113C4.201,16.711,0.494,13.072,0.494,8.598z"/>
		<g>
			<path class="st1" d="M15.584,11.285c-0.343,0-8.328,0-8.328,0s-0.217-0.017-0.361,0.16c-0.145,0.178-0.271,0.408-0.271,0.408
				s-0.163,0.195,0.065,0.195c0.172,0,4.522,0,6.612,0c-0.012,0.033-0.026,0.069-0.043,0.108h-1.546l-0.016,0.024
				c-0.454,0.705-1.577,1.065-3.337,1.068L8.28,13.248c-3.037,0.023-3.194-1.624-3.194-1.641c-0.017-1.329,1.45-1.703,2.326-1.808
				c3.379-0.407,4.315,0.952,4.324,0.965l0.016,0.024h1.718l0.071-0.054c0.45,0,1.736,0,1.9,0c0.198,0,0.433-0.249-0.127-0.639
				c-0.56-0.39-3.758-1.862-8.057-1.508C6.701,8.634,1.765,9.121,1.801,11.55c0.003,0.251-0.036,2.501,6.142,2.945
				c0.509,0.037,5.377,0.406,6.278-2.448c0.117,0,0.182,0,0.182,0s-0.037,0.648-1.202,1.791h0.957c0,0,0.542-0.355,1.138-1.791
				h0.199l0.307-0.585C15.801,11.462,15.928,11.285,15.584,11.285z M8.201,14.264C7.683,14.24,3.057,14.238,3.03,11.4
				c-0.005-0.547,0.517-2.304,4.813-2.616c0.481-0.035,4.428-0.235,5.9,1.731l-0.292,0.221h-1.67c0,0-0.915-1.406-4.375-0.989
				c-0.476,0.057-2.394,0.325-2.373,1.862c0.004,0.3,0.453,1.714,3.248,1.692c0.478-0.004,2.727,0.047,3.461-1.093h1.737
				C13.478,12.208,12.961,14.485,8.201,14.264z"/>
			<path class="st1" d="M8.281,13.301c-2.795,0.022-3.244-1.392-3.248-1.692c-0.02-1.537,1.898-1.805,2.373-1.862
				c3.46-0.417,4.375,0.989,4.375,0.989h1.67l0.292-0.221c-1.471-1.966-5.419-1.766-5.9-1.731C3.548,9.096,3.025,10.853,3.03,11.4
				c0.026,2.838,4.653,2.84,5.171,2.864c4.76,0.221,5.277-2.056,5.277-2.056h-1.737C11.007,13.348,8.759,13.297,8.281,13.301z
				 M13.21,12.26c-0.361,0.724-1.548,2.051-5.375,1.738c-0.505-0.041-4.498-0.16-4.588-2.483c-0.018-0.464,0.488-2.252,4.354-2.483
				c0.365-0.021,4.011-0.248,5.654,1.508l0.097,0.144c-0.325,0-1.498,0-1.543,0c-0.113-0.158-1.102-1.387-4.409-0.989
				c-0.912,0.109-2.439,0.503-2.42,1.914c0.006,0.459,0.626,1.765,3.302,1.744l0.078,0c1.778-0.004,2.922-0.373,3.407-1.093
				C11.805,12.26,12.777,12.26,13.21,12.26z"/>
		</g>
		<path class="st0" d="M9.484,1.335c0,0-1.03,1.277-0.217,3.778c0.217,0.668,0.849,2.306,0.416,6.438H7.335
			c0,0,1.084-2.643,0.669-5.25C7.862,5.416,6.847,1.654,9.484,1.335z"/>
	</g>
	<g>
		<path class="st2" d="M29.842,14.322c-0.82-0.477-1.559-1.053-2.217-1.731c-0.893-0.935-1.477-1.903-1.753-2.904
			c-0.303,0.987-0.931,1.962-1.886,2.924c-0.78,0.764-2.168,1.65-2.168,1.65c-0.23,0.147-0.586,0.118-0.793-0.063l-0.788-0.676
			c-0.344-0.31,0.172-0.645,0.172-0.645c0.794-0.535,1.433-1.16,2.237-2.128c1.183-1.423,1.677-3.971,1.677-3.971
			c0.054-0.276,0.098-0.732,0.098-1.014V2.572c0-0.282,0.22-0.513,0.49-0.513h1.811c0.27,0,0.49,0.231,0.49,0.513v3.705
			c0,1.225,0.604,3.017,1.812,4.414c0.868,0.988,2.526,2.214,2.526,2.214c0.22,0.162,0.222,0.432,0.005,0.597l-1.019,0.779
			C30.057,14.578,29.842,14.322,29.842,14.322z M31.012,8.465c-0.268,0-0.488-0.231-0.488-0.512V6.9c0-0.282,0.22-0.513,0.488-0.513
			h2.008c0.269,0,0.488-0.23,0.488-0.511V2.462c0-0.282,0.221-0.512,0.49-0.512h1.812c0.268,0,0.489,0.23,0.489,0.512v12.565
			c0,0.281-0.221,0.512-0.489,0.512h-1.812c-0.27,0-0.49-0.231-0.49-0.512V8.978c0-0.282-0.22-0.512-0.488-0.512H31.012z"/>
		<path class="st2" d="M72.102,3.696c0,0.282-0.22,0.512-0.489,0.512H60.889c-0.269,0-0.489,0.231-0.489,0.512v2.469
			c0,0.281,0.221,0.512,0.489,0.512h10.893c0.269,0,0.49,0.23,0.49,0.512v0.963c0,0.281-0.22,0.512-0.49,0.512H60.418
			c-0.269,0-0.709,0-0.978,0h-1.34c-0.269,0-0.488-0.231-0.488-0.512V2.733c0-0.282,0.219-0.513,0.488-0.513h13.513
			c0.269,0,0.489,0.231,0.489,0.513V3.696z M63.075,13.271c0.269,0,0.49-0.231,0.49-0.512v-1.63c0-0.282,0.22-0.512,0.489-0.512
			h1.811c0.269,0,0.489,0.231,0.489,0.512v1.63c0,0.281,0.22,0.512,0.489,0.512h5.685c0.269,0,0.489,0.231,0.489,0.511v0.963
			c0,0.282-0.22,0.512-0.489,0.512H57.165c-0.269,0-0.489-0.23-0.489-0.512v-0.963c0-0.281,0.22-0.511,0.489-0.511H63.075z"/>
		<path class="st2" d="M89.75,1.92c0.269,0,0.489,0.23,0.489,0.512v12.55c0,0.281-0.22,0.511-0.489,0.511h-1.811
			c-0.269,0-0.489-0.23-0.489-0.511V2.432c0-0.281,0.22-0.512,0.489-0.512H89.75z"/>
		<path class="st2" d="M93.121,12.965c1.656-0.579,2.959-1.295,3.912-2.148c1.259-1.121,1.78-3.551,1.78-3.551
			c0.059-0.275,0.107-0.73,0.107-1.011V4.74c0-0.281-0.22-0.512-0.489-0.512h-4.854c-0.269,0-0.489-0.231-0.489-0.512V2.724
			c0-0.282,0.22-0.513,0.489-0.513h7.615c0.269,0,0.489,0.231,0.489,0.513v3.931c0,2.015-0.702,3.708-2.103,5.078
			c-1.307,1.251-5.371,2.844-5.371,2.844c-0.252,0.099-0.586-0.007-0.743-0.237l-0.582-0.851
			C92.596,13.148,93.121,12.965,93.121,12.965z M107.445,1.92c0.269,0,0.489,0.23,0.489,0.512v4.006c0,0.282,0.22,0.512,0.489,0.512
			h1.177c0.269,0,0.489,0.231,0.489,0.512v0.999c0,0.282-0.22,0.512-0.489,0.512h-1.177c-0.269,0-0.489,0.231-0.489,0.512v5.497
			c0,0.281-0.22,0.511-0.489,0.511h-1.796c-0.269,0-0.489-0.23-0.489-0.511V2.432c0-0.281,0.22-0.512,0.489-0.512H107.445z"/>
		<path class="st2" d="M125.382,10.148c-1.523-0.412-2.794-0.866-3.811-1.363c-1.182-0.579-2.12-1.264-2.812-2.054
			c-0.641,0.79-1.554,1.475-2.737,2.054c-1.133,0.554-3.908,1.365-3.908,1.365c-0.258,0.075-0.595-0.053-0.748-0.284l-0.557-0.842
			c-0.255-0.478,0.26-0.569,0.26-0.569c1.804-0.511,3.216-1.18,4.237-2.009c1.396-1.146,1.988-3.906,1.988-3.906
			c0.059-0.275,0.327-0.499,0.596-0.499h1.7c0.533,0,0.618,0.67,0.618,0.67c0.15,1.524,0.825,2.776,2.025,3.756
			c1.12,0.896,4.458,1.981,4.458,1.981c0.257,0.084,0.332,0.335,0.168,0.558l-0.677,0.916
			C125.849,10.369,125.382,10.148,125.382,10.148z M126.498,13.022c0.269,0,0.49,0.23,0.49,0.512v0.963
			c0,0.281-0.221,0.512-0.49,0.512h-15.366c-0.269,0-0.489-0.231-0.489-0.512v-0.963c0-0.282,0.22-0.512,0.489-0.512H126.498z"/>
		<path class="st2" d="M143.043,8.542c-1.498-0.213-2.751-0.481-3.76-0.806c-1.17-0.382-2.039-0.85-2.605-1.403
			c-0.579,0.554-1.454,1.021-2.623,1.403c-1.12,0.368-3.688,0.806-3.688,0.806c-0.266,0.045-0.602-0.112-0.748-0.348l-0.547-0.888
			c-0.244-0.415,0.322-0.438,0.322-0.438c1.667-0.229,2.848-0.589,3.883-1.077c1.196-0.566,1.531-1.121,1.531-1.121
			c0.143-0.237,0.042-0.432-0.227-0.432h-4.284c-0.269,0-0.489-0.231-0.489-0.512V2.733c0-0.282,0.221-0.513,0.489-0.513h13.083
			c0.269,0,0.489,0.231,0.489,0.513v0.993c0,0.282-0.22,0.512-0.489,0.512h-5.075c0,0.79,0.624,0.987,1.869,1.553
			c1.17,0.54,4.081,1.083,4.081,1.083c0.266,0.045,0.36,0.274,0.209,0.508l-0.589,0.913C143.59,8.709,143.043,8.542,143.043,8.542z
			 M144.975,10.892c0,0.281-0.219,0.512-0.489,0.512h-5.854c-0.269,0-0.489,0.231-0.489,0.512v3.062c0,0.282-0.22,0.512-0.488,0.512
			h-1.783c-0.269,0-0.489-0.231-0.489-0.512v-3.062c0-0.281-0.219-0.512-0.488-0.512h-5.779c-0.269,0-0.489-0.231-0.489-0.512V9.898
			c0-0.281,0.22-0.512,0.489-0.512h15.372c0.27,0,0.489,0.231,0.489,0.512V10.892z"/>
		<path class="st2" d="M146.486,7.66c1.068-0.478,1.925-1.055,2.573-1.733c1.02-1.094,1.437-3.386,1.437-3.386
			c0.05-0.277,0.312-0.503,0.581-0.503h1.665c0.535,0,0.679,0.583,0.679,0.583c0.104,1.374,0.595,2.366,1.469,3.306
			c0.768,0.817,2.816,1.735,2.816,1.735c0.248,0.11,0.306,0.376,0.13,0.589l-0.737,0.897c-0.364,0.364-0.739,0.171-0.739,0.171
			c-0.915-0.358-1.751-0.775-2.507-1.25c-0.906-0.58-1.529-1.127-1.869-1.64c-0.389,0.513-1.038,1.053-1.944,1.62
			c-0.894,0.553-2.436,1.225-2.436,1.225c-0.248,0.108-0.584,0.013-0.745-0.213l-0.593-0.829
			C145.978,7.841,146.486,7.66,146.486,7.66z M161.681,1.92c0.268,0,0.489,0.23,0.489,0.512v6.701c0,0.282-0.221,0.512-0.489,0.512
			h-1.812c-0.269,0-0.489-0.23-0.489-0.512V2.432c0-0.281,0.22-0.512,0.489-0.512H161.681z M161.681,10.37
			c0.268,0,0.489,0.231,0.489,0.513v4.128c0,0.281-0.221,0.511-0.489,0.511h-1.812c-0.269,0-0.489-0.23-0.489-0.511v-2.111
			c0-0.281-0.22-0.511-0.489-0.511h-10.553c-0.27,0-0.489-0.231-0.489-0.512v-0.993c0-0.281,0.219-0.513,0.489-0.513H161.681z"/>
		<path class="st2" d="M179.645,1.92h-1.811c-0.269,0-0.488,0.231-0.488,0.512v9.599v2.983c0,0.267,0.22,0.485,0.488,0.485h1.811
			c0.27,0,0.489-0.231,0.489-0.512V2.433C180.135,2.151,179.915,1.92,179.645,1.92z"/>
		<path class="st2" d="M197.355,1.92c0.27,0,0.49,0.23,0.49,0.512v4.006c0,0.282,0.22,0.512,0.489,0.512h1.177
			c0.269,0,0.489,0.231,0.489,0.512v0.999c0,0.282-0.22,0.512-0.489,0.512h-1.177c-0.269,0-0.489,0.231-0.489,0.512v5.497
			c0,0.281-0.22,0.511-0.49,0.511h-1.796c-0.27,0-0.49-0.23-0.49-0.511V2.432c0-0.281,0.22-0.512,0.49-0.512H197.355z"/>
		<path class="st2" d="M83.746,14.323c-0.82-0.477-1.559-1.053-2.216-1.731c-0.893-0.935-1.477-1.903-1.754-2.904
			c-0.302,0.987-0.93,1.962-1.886,2.924c-0.78,0.764-2.168,1.65-2.168,1.65c-0.23,0.147-0.586,0.119-0.792-0.062l-0.79-0.676
			c-0.343-0.31,0.173-0.645,0.173-0.645c0.794-0.534,1.433-1.16,2.237-2.128c1.183-1.422,1.677-3.971,1.677-3.971
			c0.054-0.276,0.098-0.732,0.098-1.014V2.573c0-0.282,0.219-0.512,0.488-0.512h1.811c0.27,0,0.49,0.23,0.49,0.512v3.704
			c0,1.226,0.604,3.018,1.812,4.414c0.869,0.988,2.526,2.214,2.526,2.214c0.22,0.163,0.222,0.431,0.005,0.598l-1.019,0.778
			C83.961,14.579,83.746,14.323,83.746,14.323z"/>
		<path class="st2" d="M191.641,14.301c-0.82-0.478-1.559-1.054-2.217-1.732c-0.892-0.935-1.477-1.903-1.753-2.904
			c-0.302,0.988-0.93,1.963-1.886,2.924c-0.78,0.764-2.168,1.65-2.168,1.65c-0.23,0.147-0.586,0.119-0.794-0.062l-0.788-0.677
			c-0.344-0.31,0.173-0.644,0.173-0.644c0.794-0.535,1.433-1.159,2.237-2.128c1.183-1.422,1.677-3.97,1.677-3.97
			c0.053-0.277,0.097-0.733,0.097-1.015V2.55c0-0.282,0.221-0.512,0.49-0.512h1.811c0.269,0,0.489,0.23,0.489,0.512v3.705
			c0,1.224,0.604,3.017,1.812,4.413c0.868,0.988,2.525,2.214,2.525,2.214c0.221,0.163,0.222,0.432,0.006,0.597l-1.019,0.78
			C191.857,14.556,191.641,14.301,191.641,14.301z"/>
		<g>
			<path class="st2" d="M41.238,5.771c1.334,0.5,3.165,0.751,5.492,0.751c2.316,0,4.146-0.25,5.493-0.751
				c1.22-0.461,1.83-1.028,1.83-1.699c0-0.685-0.61-1.251-1.83-1.699c-1.346-0.487-3.177-0.731-5.493-0.731
				c-2.328,0-4.158,0.243-5.492,0.731c-1.208,0.448-1.812,1.014-1.812,1.699C39.426,4.758,40.03,5.323,41.238,5.771z M43.371,3.556
				c0.818-0.149,1.944-0.224,3.379-0.224c1.421,0,2.541,0.075,3.359,0.224c0.755,0.129,1.133,0.303,1.133,0.522
				c0,0.209-0.377,0.383-1.133,0.522c-0.805,0.149-1.925,0.223-3.359,0.223c-1.446,0-2.574-0.075-3.379-0.223
				c-0.742-0.139-1.113-0.313-1.113-0.522C42.257,3.859,42.629,3.684,43.371,3.556z"/>
			<path class="st2" d="M53.655,13.977H42.762c-0.269,0-0.49-0.085-0.49-0.189c0-0.104,0.221-0.306,0.49-0.306h10.727
				c0.269,0,0.489-0.223,0.489-0.495v-2.759c0-0.272-0.22-0.495-0.489-0.495h-4.86H44.86h-4.888c-0.269,0-0.489,0.223-0.489,0.495
				v0.727c0,0.273,0.22,0.495,0.489,0.495h10.727c0.269,0,0.489,0.187,0.489,0.274c0,0.087-0.22,0.158-0.489,0.158H39.972
				c-0.269,0-0.489,0.223-0.489,0.495v2.705c0,0.273,0.22,0.495,0.489,0.495h13.683c0.27,0,0.49-0.223,0.49-0.495v-0.61
				C54.144,14.2,53.924,13.977,53.655,13.977z"/>
			<path class="st2" d="M47.695,9.401h-1.801c-0.456,0-0.545-0.373-0.545-0.373V8.747c0-0.128-0.22-0.233-0.489-0.233h-5.816
				c-0.269,0-0.489-0.223-0.489-0.495V7.321c0-0.272,0.22-0.496,0.489-0.496h15.363c0.27,0,0.49,0.223,0.49,0.496v0.698
				c0,0.272-0.22,0.495-0.49,0.495h-5.778c-0.269,0-0.489,0.105-0.489,0.233v0.171C48.139,8.918,48.238,9.401,47.695,9.401z"/>
		</g>
		<g>
			<path class="st2" d="M165.059,4.776h2.834h3.668h3.437c0.268,0,0.489-0.231,0.489-0.512V3.3c0-0.282-0.221-0.512-0.489-0.512
				h-3.262c-0.269,0-0.489-0.231-0.489-0.511V2.131c0-0.281-0.22-0.512-0.488-0.512h-1.811c-0.269,0-0.489,0.231-0.489,0.512v0.146
				c0,0.281-0.22,0.511-0.488,0.511h-2.911c-0.268,0-0.489,0.231-0.489,0.512v0.963C164.57,4.545,164.791,4.776,165.059,4.776z"/>
			<path class="st2" d="M176.174,14.204v-1.241c0-0.452-0.377-0.42-0.377-0.42h-3.915c-0.269,0-0.489-0.231-0.489-0.512
				c0-0.502-0.425-0.487-0.425-0.487h-1.889c-0.473,0-0.476,0.487-0.476,0.487c0,0.281-0.22,0.512-0.488,0.512h-3.269
				c-0.269,0-0.489,0.231-0.489,0.512v0.963c0,0.282,0.22,0.512,0.489,0.512h10.895C176.201,14.53,176.174,14.204,176.174,14.204z"
				/>
			<path class="st2" d="M165.847,10.287c0.992,0.653,2.339,0.979,4.041,0.979c1.755,0,3.152-0.326,4.194-0.979
				c0.966-0.612,1.449-1.339,1.449-2.182c0-0.907-0.457-1.644-1.373-2.214c-0.991-0.631-2.35-0.948-4.079-0.948
				c-1.703,0-3.088,0.326-4.156,0.98c-0.941,0.611-1.41,1.338-1.41,2.181C164.514,8.969,164.958,9.697,165.847,10.287z
				 M168.007,7.275c0.528-0.262,1.214-0.394,2.057-0.394c0.856,0,1.529,0.127,2.02,0.381c0.453,0.228,0.68,0.525,0.68,0.89
				c0,0.338-0.239,0.631-0.717,0.877c-0.517,0.262-1.21,0.394-2.077,0.394c-0.843,0-1.51-0.131-2.001-0.394
				c-0.441-0.237-0.661-0.53-0.661-0.877C167.308,7.813,167.542,7.521,168.007,7.275z"/>
		</g>
	</g>
</g>
</svg>
