<?xml version="1.0" encoding="utf-8"?>
<!-- Generator: Adobe Illustrator 23.1.0, SVG Export Plug-In . SVG Version: 6.00 Build 0)  -->
<svg version="1.1" id="Capa_1" xmlns="http://www.w3.org/2000/svg" xmlns:xlink="http://www.w3.org/1999/xlink" x="0px" y="0px"
	 viewBox="0 0 483.3 483.3" style="enable-background:new 0 0 483.3 483.3;" xml:space="preserve">
<style type="text/css">
	.st0{fill:#898989;}
</style>
<g>
	<path class="st0" d="M477.385,448.974L361.186,332.788c28.799-35.116,46.171-80.091,46.171-129.122
		C407.357,91.233,316.115,0,203.669,0C91.141,0,0,91.233,0,203.666c0,112.445,91.141,203.686,203.669,203.686
		c49.022,0,93.909-17.256,129.021-46.065l116.175,116.098c7.899,7.887,20.62,7.887,28.52,0
		C485.272,469.586,485.272,456.763,477.385,448.974z M203.669,366.811c-90.037,0-163.218-73.183-163.218-163.145
		c0-89.941,73.182-163.225,163.218-163.225c89.966,0,163.242,73.284,163.242,163.225
		C366.911,293.627,293.635,366.811,203.669,366.811z"/>
</g>
</svg>
