<?xml version="1.0" encoding="utf-8"?>
<!-- Generator: Adobe Illustrator 23.1.0, SVG Export Plug-In . SVG Version: 6.00 Build 0)  -->
<svg version="1.1" id="레이어_1" xmlns="http://www.w3.org/2000/svg" xmlns:xlink="http://www.w3.org/1999/xlink" x="0px"
	 y="0px" viewBox="0 0 401 401" style="enable-background:new 0 0 401 401;" xml:space="preserve">
<style type="text/css">
	.st0{fill:#898989;}
</style>
<path class="st0" d="M370.107,251.906c-5.516,0-9.987,4.471-9.987,9.987v88.673c-0.02,16.541-13.42,29.945-29.961,29.961H49.935
	c-16.541-0.016-29.941-13.42-29.961-29.961V90.316c0.02-16.537,13.42-29.941,29.961-29.961h88.673c5.516,0,9.987-4.471,9.987-9.987
	c0-5.512-4.471-9.987-9.987-9.987H49.935C22.369,40.412,0.031,62.75,0,90.316V350.57c0.031,27.566,22.369,49.904,49.935,49.935
	h280.224c27.566-0.031,49.904-22.369,49.935-49.935v-88.677C380.094,256.376,375.624,251.906,370.107,251.906z"/>
<path class="st0" d="M376.138,14.684c-17.551-17.551-46.006-17.551-63.558,0L134.407,192.858c-1.221,1.221-2.103,2.735-2.563,4.397
	l-23.43,84.589c-0.964,3.468,0.016,7.182,2.559,9.729c2.547,2.544,6.261,3.523,9.729,2.563l84.589-23.434
	c1.662-0.46,3.176-1.342,4.397-2.563l178.17-178.178c17.524-17.563,17.524-45.995,0-63.558L376.138,14.684z M156.167,199.349
	L301.989,53.524l47.029,47.029L203.192,246.378L156.167,199.349z M146.773,218.2l37.572,37.576l-51.971,14.399L146.773,218.2z
	 M373.735,75.838L363.144,86.43l-47.032-47.032l10.596-10.592c9.749-9.749,25.557-9.749,35.306,0l11.723,11.719
	C383.469,50.286,383.469,66.082,373.735,75.838z"/>
</svg>
