<?xml version="1.0" encoding="utf-8"?>
<!-- Generator: Adobe Illustrator 23.1.0, SVG Export Plug-In . SVG Version: 6.00 Build 0)  -->
<svg version="1.1" id="Capa_1" xmlns="http://www.w3.org/2000/svg" xmlns:xlink="http://www.w3.org/1999/xlink" x="0px" y="0px"
	 viewBox="0 0 483.3 483.3" style="enable-background:new 0 0 483.3 483.3;" xml:space="preserve">
<style type="text/css">
	.st0{fill:#898989;}
</style>
<g>
	<g>
		<path class="st0" d="M424.3,60.3H59.1c-31.2,0-56.6,25.4-56.6,56.6v249.6c0,31.2,25.4,56.6,56.6,56.6h365.1
			c31.2,0,56.6-25.4,56.6-56.6V117c0-15.1-5.8-29.3-16.5-40.1C453.6,66.2,439.4,60.3,424.3,60.3z M458.9,366.5
			c0,19.1-15.5,34.6-34.6,34.6H59.1c-19.1,0-34.6-15.5-34.6-34.6V117c0-19.1,15.5-34.6,34.6-34.6h365.1c19.1,0,34.6,15.5,34.6,34.6
			v247h0.1L458.9,366.5L458.9,366.5z"/>
		<path class="st0" d="M406.6,369c2,1.9,4.7,3,7.6,3c3,0,5.9-1.2,8-3.4c2-2.1,3.1-4.9,3-7.9s-1.3-5.7-3.4-7.7L301.1,238.5
			l120.2-107.8c4.5-4.1,4.8-11.1,0.8-15.6c-4.1-4.5-11.1-4.8-15.6-0.8L241.9,262.1l-33.6-30c-0.1-0.1-0.3-0.3-0.5-0.6
			c-0.5-0.5-1-0.9-1.7-1.4L206,230L76.6,114.2c-2.2-2-5-3-8-2.8c-2.9,0.2-5.6,1.5-7.6,3.7c-4,4.5-3.6,11.5,0.9,15.6l121.6,108.7
			l-121,113.4c-4.4,4.1-4.6,11.1-0.5,15.6c2.1,2.2,5.1,3.5,8.1,3.5c2.8,0,5.5-1,7.5-2.9l122.6-114.6l34.5,30.8
			c2,1.8,4.6,2.8,7.3,2.8s5.3-1,7.3-2.8l35.4-31.8L406.6,369z"/>
	</g>
</g>
</svg>
