<?xml version="1.0" encoding="utf-8"?>
<!-- Generator: Adobe Illustrator 23.1.0, SVG Export Plug-In . SVG Version: 6.00 Build 0)  -->
<svg version="1.1" id="Capa_1" xmlns="http://www.w3.org/2000/svg" xmlns:xlink="http://www.w3.org/1999/xlink" x="0px" y="0px"
	 viewBox="0 0 297 297" style="enable-background:new 0 0 297 297;" xml:space="preserve">
<style type="text/css">
	.st0{fill:#FFFFFF;}
</style>
<path class="st0" d="M253.16,196.108c-9.434-11.234-22.311-17.608-36.76-17.608h-26.9v-20.668c6-6.95,10.991-14.816,14.899-22.702
	c7.68-1.298,15.392-9.26,19.403-20.629c4.901-13.896,2.712-26.368-5.234-30.842c3.339-18.009-1.58-39.517-13.25-55.724
	C192.347,9.921,172.293,0,148.809,0c-23.485,0-43.55,9.922-56.521,27.937C80.655,44.095,75.691,65.519,78.969,83.492
	c-8.191,4.321-10.594,16.935-5.632,31.01c4.145,11.74,11.729,19.622,19.623,20.689c4.133,8.33,8.54,16.628,15.54,23.848V178.5
	H81.269c-14.45,0-27.661,6.374-37.095,17.608c-8.78,10.457-13.673,24.487-13.673,39.17v28.197c0,2.899,1.711,5.546,4.319,6.814
	c41.9,20.392,81.512,26.711,114.484,26.71c17.357,0,32.9-1.752,45.96-4.123c41.119-7.465,66.648-22.219,67.726-22.844
	c2.34-1.354,3.512-3.854,3.512-6.558v-28.197C266.5,220.596,261.941,206.565,253.16,196.108z M157.5,228.31
	c0,2.867-2.324,5.19-5.19,5.19h-7.619c-2.867,0-5.19-2.324-5.19-5.19v-7.619c0-2.867,2.324-5.19,5.19-5.19h7.619
	c2.867,0,5.19,2.324,5.19,5.19V228.31z M162.368,202.719c-2.867-1.544-6.146-2.219-9.632-2.219h-7.807
	c-3.485,0-6.765,0.675-9.632,2.219l-12.615-12.681c0.542-1.044,0.817-2.33,0.817-3.588v-13.498c7,5.206,15.884,8.401,24.994,8.401
	c9.513,0,18.006-3.495,26.006-9.118v14.215c0,0.987,0.497,2.028,0.839,2.894L162.368,202.719z M104.6,36.793
	c7.106-9.871,20.549-21.637,44.233-21.637s37.126,11.765,44.232,21.635c11.056,15.354,13.056,33.74,10.303,45.9
	c-49.597,12.133-73.352-34.447-74.331-36.42c-1.448-2.956-4.628-4.632-7.897-4.159c-3.258,0.475-5.837,3.002-6.383,6.249
	c-0.055,0.329-5.406,29.434-20.424,34.475C91.53,70.682,93.499,52.209,104.6,36.793z M86.108,98.426
	c20.953,1.656,33.439-16.412,38.926-30.863c3.315,4.174,7.505,8.785,12.594,13.182c14.65,12.66,31.554,19.115,49.669,19.115
	c6.439,0,17.092-0.816,23.791-2.459c0.45,2.031,0.581,6.472-1.389,12.059c-2.271,6.438-5.563,9.688-6.986,10.529
	c-1.61-0.574-3.381-0.59-5.015-0.026c-1.988,0.686-3.602,2.165-4.455,4.087c-8.642,19.443-25.458,42.148-44.411,42.148
	c-18.996,0-35.824-22.773-44.464-42.275c-0.884-1.994-2.585-3.512-4.669-4.164c-0.739-0.23-1.501-0.344-2.26-0.344
	c-0.973,0-1.941,0.188-2.85,0.557c-1.439-0.869-4.7-4.119-6.957-10.511C85.886,104.506,85.795,100.655,86.108,98.426z M45.5,235.278
	c0-19.997,12.711-41.778,35.769-41.778h24.108l20.143,20.447c-0.631,1.964-1.02,4.317-1.02,6.49v7.807
	c0,5.689,2.381,10.826,6.145,14.519l-6.722,37.737c-23.924-2.523-50.423-8.934-78.423-21.81C45.5,258.69,45.5,235.278,45.5,235.278z
	 M139.313,281.574l5.783-33.074h7.473l5.793,33.106C152.284,281.83,145.919,281.85,139.313,281.574z M251.5,258.896
	c-8,4.151-29.77,13.815-59.739,19.179c-5.647,1.011-11.688,1.893-18.252,2.552l-6.871-37.863c3.763-3.692,5.861-8.83,5.861-14.519
	v-7.807c0-2.173-0.056-4.526-0.687-6.49l20.476-20.447h24.11c23.056,0,35.101,21.781,35.101,41.778v23.617H251.5z"/>
</svg>
