<?xml version="1.0" encoding="utf-8"?>
<!-- Generator: Adobe Illustrator 23.1.0, SVG Export Plug-In . SVG Version: 6.00 Build 0)  -->
<svg version="1.1" id="Capa_1" xmlns="http://www.w3.org/2000/svg" xmlns:xlink="http://www.w3.org/1999/xlink" x="0px" y="0px"
	 viewBox="0 0 16 16" style="enable-background:new 0 0 16 16;" xml:space="preserve">
<style type="text/css">
	.st0{fill:#9AD3A0;}
</style>
<path class="st0" d="M15.972,5.04c-0.236-2.597-2.094-4.492-4.417-4.492c-1.444,0-2.767,0.706-3.596,1.905
	C7.147,1.254,5.855,0.548,4.446,0.548c-2.324,0-4.182,1.895-4.419,4.505C0.01,5.153-0.07,5.769,0.164,6.76
	c0.333,1.41,1.101,2.692,2.22,3.706l5.438,4.935c0.037,0.034,0.084,0.051,0.131,0.051c0.046,0,0.093-0.016,0.13-0.049l5.532-4.935
	c1.121-1.016,1.889-2.298,2.221-3.708C16.07,5.773,15.991,5.154,15.972,5.04z M14.872,6.533c-0.286,1.214-0.95,2.32-1.92,3.198
	l-4.994,4.456L3.05,9.732c-0.97-0.879-1.635-1.986-1.921-3.2C0.932,5.701,1.003,5.217,1.006,5.197
	c0.192-2.138,1.636-3.659,3.439-3.659c1.327,0,2.497,0.819,3.054,2.137L7.775,4.33c0.03,0.072,0.101,0.119,0.18,0.119
	c0.078,0,0.149-0.047,0.18-0.119l0.277-0.655c0.548-1.298,1.782-2.137,3.143-2.137c1.803,0,3.248,1.532,3.437,3.643
	C14.997,5.216,15.069,5.698,14.872,6.533z"/>
</svg>
