<?xml version="1.0" encoding="utf-8"?>
<!-- Generator: Adobe Illustrator 24.0.2, SVG Export Plug-In . SVG Version: 6.00 Build 0)  -->
<svg version="1.1" id="레이어_1" xmlns="http://www.w3.org/2000/svg" xmlns:xlink="http://www.w3.org/1999/xlink" x="0px"
	 y="0px" width="266px" height="45px" viewBox="0 0 266 45" style="enable-background:new 0 0 266 45;" xml:space="preserve">
<style type="text/css">
	.st0{fill:#00A0E9;}
	.st1{fill:#E60012;}
</style>
<g>
	<g>
		<g>
			<g>
				<path class="st0" d="M0,22.5c0,12.289,10.183,22.284,22.699,22.284c12.516,0,22.698-9.996,22.698-22.284
					c0-12.288-10.182-22.285-22.698-22.285C10.183,0.215,0,10.212,0,22.5z M1.28,22.5c0-11.594,9.609-21.029,21.419-21.029
					c11.81,0,21.419,9.434,21.419,21.029c0,11.595-9.608,21.028-21.419,21.028C10.889,43.529,1.28,34.095,1.28,22.5z"/>
			</g>
		</g>
		<g>
			<g>
				<path class="st1" d="M34.212,36.082h2.481c0,0,1.405-0.919,2.95-4.642h0.515l0.796-1.517c0,0,0.328-0.459-0.562-0.459
					c-0.889,0-21.585,0-21.585,0s-0.562-0.045-0.936,0.414c-0.375,0.46-0.702,1.057-0.702,1.057s-0.422,0.507,0.167,0.507
					c0.589,0,19.992,0,19.992,0S37.231,33.119,34.212,36.082z"/>
				<path class="st1" d="M36.713,36.148h-2.661l0.114-0.112c2.629-2.581,3.029-4.186,3.087-4.53H17.336
					c-0.19,0-0.311-0.051-0.358-0.153c-0.085-0.182,0.117-0.433,0.14-0.461l0,0c-0.001,0,0.329-0.598,0.702-1.056
					c0.392-0.48,0.968-0.439,0.992-0.437l21.579,0c0.365,0,0.58,0.074,0.658,0.225c0.082,0.16-0.037,0.331-0.042,0.338l-0.81,1.545
					h-0.511c-1.528,3.666-2.9,4.594-2.958,4.632L36.713,36.148z M34.372,36.017h2.301c0.156-0.114,1.479-1.153,2.91-4.602
					l0.017-0.041h0.519l0.778-1.482c0.005-0.009,0.083-0.121,0.037-0.21c-0.03-0.057-0.14-0.153-0.541-0.153H18.807
					c-0.011-0.001-0.539-0.036-0.885,0.389c-0.367,0.45-0.692,1.041-0.696,1.047c-0.064,0.079-0.169,0.248-0.129,0.332
					c0.023,0.05,0.108,0.077,0.239,0.077h20.062l-0.004,0.069C37.389,31.513,37.264,33.139,34.372,36.017z"/>
			</g>
		</g>
		<g>
			<g>
				<path class="st1" d="M20.318,22.846C8.013,23.74,7.71,29.151,7.716,29.765c0.043,4.594,4.754,7.274,13.264,7.546l0.269,0.01
					c12.311,0.572,13.763-5.191,13.82-5.435l0.037-0.166h-4.75l-0.041,0.063c-1.176,1.827-4.086,2.759-8.649,2.769l-0.204,0.002
					c-7.87,0.06-8.279-4.209-8.28-4.253c-0.045-3.444,3.759-4.414,6.029-4.687c8.759-1.055,11.183,2.466,11.207,2.502l0.041,0.063
					h4.452l0.9-0.682l-0.08-0.108C31.824,22.168,21.484,22.761,20.318,22.846z M21.263,37.05l-0.274-0.01
					c-8.34-0.267-12.955-2.852-12.996-7.279c-0.006-0.588,0.293-5.769,12.345-6.645c0.456-0.033,11.124-0.736,15.076,4.336
					c-0.161,0.122-0.542,0.411-0.597,0.454c-0.091,0-4.08,0-4.213,0c-0.292-0.409-2.857-3.596-11.427-2.563
					c-2.363,0.283-6.321,1.304-6.272,4.961c0.015,1.19,1.621,4.574,8.559,4.521l0.203-0.001c4.608-0.01,7.574-0.966,8.831-2.833
					c0.123,0,3.903,0,4.246,0C34.414,32.907,32.198,37.557,21.263,37.05z"/>
				<path class="st1" d="M22.916,37.426c-0.533,0-1.089-0.013-1.67-0.04l-0.269-0.01c-8.551-0.274-13.284-2.977-13.328-7.611
					c-0.006-0.62,0.298-6.086,12.663-6.985l0,0c1.17-0.085,11.541-0.68,15.47,4.568l0.119,0.16l-0.969,0.735h-4.51l-0.06-0.092
					c-0.023-0.035-2.467-3.517-11.144-2.473c-2.249,0.27-6.016,1.23-5.972,4.621c0.002,0.041,0.46,4.189,8.052,4.189
					c0.054,0,0.107,0,0.162-0.001l0.204-0.002c4.539-0.009,7.43-0.931,8.594-2.739l0.061-0.093h4.867l-0.054,0.246
					C35.078,32.136,33.729,37.426,22.916,37.426z M22.277,22.849c-0.989,0-1.697,0.044-1.955,0.063l0,0
					c-12.246,0.89-12.547,6.245-12.541,6.853c0.043,4.553,4.731,7.21,13.201,7.482l0.269,0.01
					c12.239,0.569,13.697-5.141,13.753-5.385l0.019-0.085h-4.633l-0.022,0.034c-1.189,1.847-4.117,2.789-8.703,2.798l-0.204,0.002
					c-0.054,0-0.108,0.001-0.162,0.001c-3.985,0-5.992-1.142-6.976-2.107c-1.112-1.09-1.208-2.201-1.208-2.212
					c-0.046-3.494,3.794-4.477,6.087-4.753c8.768-1.056,11.246,2.494,11.27,2.531l0.022,0.033h4.394l0.831-0.629l-0.041-0.056
					C32.654,23.387,25.744,22.849,22.277,22.849z M22.882,37.154c-0.518,0-1.059-0.013-1.622-0.039l-0.273-0.01
					c-8.38-0.269-13.018-2.877-13.06-7.343c-0.006-0.594,0.288-5.83,12.406-6.711c0.454-0.033,11.157-0.741,15.133,4.361
					l0.041,0.052l-0.095,0.072c-0.176,0.134-0.503,0.382-0.555,0.422l-0.018,0.014H30.57l-0.02-0.028
					c-0.263-0.368-2.813-3.566-11.366-2.536c-2.341,0.281-6.262,1.29-6.215,4.895c0.015,1.164,1.583,4.457,8.332,4.457
					c0.054,0,0.107,0,0.161-0.001l0.203-0.001c4.578-0.01,7.531-0.953,8.777-2.804l0.02-0.029h4.375l-0.031,0.088
					C34.484,32.906,32.45,37.154,22.882,37.154z M22.077,23.131c-0.983,0-1.63,0.043-1.734,0.051
					C8.344,24.054,8.052,29.179,8.058,29.761c0.04,4.386,4.633,6.948,12.933,7.214l0.275,0.01
					c10.565,0.491,12.95-3.832,13.382-4.927h-4.117c-1.283,1.869-4.265,2.822-8.865,2.833l-0.202,0.001
					c-0.054,0-0.108,0.001-0.161,0.001c-6.856,0-8.448-3.389-8.464-4.586c-0.049-3.707,3.945-4.741,6.33-5.027
					c8.444-1.018,11.109,2.08,11.468,2.562h4.157c0.084-0.065,0.362-0.276,0.527-0.4C32.275,23.608,25.335,23.131,22.077,23.131z"/>
			</g>
		</g>
		<g>
			<g>
				<path class="st1" d="M34.692,28.039c0,0,4.811,0,5.326,0c0.514,0,1.123-0.644-0.328-1.655
					c-1.451-1.011-9.739-4.827-20.883-3.908c-1.44,0.119-14.234,1.379-14.14,7.676c0.009,0.652-0.094,6.483,15.919,7.632
					c1.355,0.097,14.608,1.103,16.434-6.941h-2.387c0,0-0.843,6.758-14.328,5.653c-1.309-0.106-11.658-0.414-11.892-6.435
					c-0.047-1.202,1.264-5.838,11.284-6.437c0.946-0.055,10.395-0.643,14.655,3.908L34.692,28.039z"/>
				<path class="st1" d="M23.078,37.938c-1.006,0-1.861-0.043-2.469-0.087l-0.027-0.002c-6.667-0.478-11.356-1.813-13.937-3.965
					c-0.922-0.769-2.025-2.037-2.043-3.709l0-0.022c-0.095-6.379,12.737-7.622,14.2-7.742c11.248-0.928,19.489,2.918,20.926,3.919
					c0.954,0.665,0.979,1.14,0.908,1.364c-0.089,0.282-0.382,0.411-0.618,0.411h-5.361l-0.36-0.535
					c-3.902-4.167-12.146-4.024-14.578-3.881L19.7,23.69c-9.39,0.561-11.284,4.787-11.222,6.369c0.1,2.564,2.18,5.748,11.525,6.351
					c0.129,0.008,0.233,0.015,0.307,0.021c6.937,0.568,10.443-0.986,12.165-2.39c1.86-1.517,2.091-3.189,2.093-3.206l0.007-0.057
					l2.527,0l-0.018,0.08C35.689,37.004,27.757,37.938,23.078,37.938z M22.281,22.398c-1.119,0-2.277,0.044-3.469,0.143
					c-1.451,0.12-14.173,1.35-14.08,7.61l0,0.022c0.017,1.504,1.209,6.494,15.858,7.545l0.027,0.002
					c3.398,0.245,14.584,0.472,16.32-6.812h-2.249c-0.058,0.312-0.422,1.836-2.121,3.226c-1.74,1.423-5.279,2.999-12.268,2.427
					c-0.074-0.006-0.177-0.013-0.305-0.021c-9.442-0.61-11.546-3.859-11.647-6.477c-0.026-0.659,0.343-2.137,1.889-3.496
					c1.979-1.739,5.16-2.751,9.456-3.008l0.019-0.001c2.448-0.144,10.74-0.287,14.688,3.93l0.327,0.485h5.291
					c0.195,0,0.427-0.109,0.492-0.319c0.101-0.323-0.211-0.766-0.858-1.217C38.375,25.547,31.69,22.398,22.281,22.398z"/>
			</g>
			<g>
				<path class="st1" d="M23.078,37.938c-1.006,0-1.861-0.043-2.469-0.087l-0.027-0.002c-6.667-0.478-11.356-1.813-13.937-3.965
					c-0.922-0.769-2.025-2.037-2.043-3.709l0-0.022c-0.095-6.379,12.737-7.622,14.2-7.742c11.248-0.928,19.489,2.918,20.926,3.919
					c0.954,0.665,0.979,1.14,0.908,1.364c-0.089,0.282-0.382,0.411-0.618,0.411h-5.361l-0.36-0.535
					c-3.902-4.167-12.146-4.024-14.578-3.881L19.7,23.69c-9.39,0.561-11.284,4.787-11.222,6.369c0.1,2.564,2.18,5.748,11.525,6.351
					c0.129,0.008,0.233,0.015,0.307,0.021c6.937,0.568,10.443-0.986,12.165-2.39c1.86-1.517,2.091-3.189,2.093-3.206l0.007-0.057
					l2.527,0l-0.018,0.08C35.689,37.004,27.757,37.938,23.078,37.938z M22.281,22.398c-1.119,0-2.277,0.044-3.469,0.143
					c-1.451,0.12-14.173,1.35-14.08,7.61l0,0.022c0.017,1.504,1.209,6.494,15.858,7.545l0.027,0.002
					c3.398,0.245,14.584,0.472,16.32-6.812h-2.249c-0.058,0.312-0.422,1.836-2.121,3.226c-1.74,1.423-5.279,2.999-12.268,2.427
					c-0.074-0.006-0.177-0.013-0.305-0.021c-9.442-0.61-11.546-3.859-11.647-6.477c-0.026-0.659,0.343-2.137,1.889-3.496
					c1.979-1.739,5.16-2.751,9.456-3.008l0.019-0.001c2.448-0.144,10.74-0.287,14.688,3.93l0.327,0.485h5.291
					c0.195,0,0.427-0.109,0.492-0.319c0.101-0.323-0.211-0.766-0.858-1.217C38.375,25.547,31.69,22.398,22.281,22.398z"/>
				<path class="st1" d="M23.078,38.004c-1.046,0-1.923-0.047-2.474-0.087l-0.027-0.002c-6.681-0.479-11.382-1.818-13.974-3.98
					c-0.932-0.778-2.048-2.062-2.067-3.759l0-0.021c-0.096-6.439,12.791-7.687,14.261-7.809c11.266-0.93,19.527,2.927,20.968,3.931
					c0.988,0.689,1.009,1.196,0.933,1.437c-0.098,0.314-0.422,0.457-0.68,0.457h-5.396l-0.379-0.564
					c-3.878-4.14-12.094-3.994-14.519-3.852l-0.019,0.001c-9.337,0.558-11.222,4.737-11.161,6.301
					c0.099,2.537,2.168,5.688,11.463,6.288c0.13,0.008,0.234,0.015,0.309,0.021c6.913,0.566,10.406-0.98,12.118-2.376
					c1.832-1.494,2.067-3.147,2.069-3.163l0.014-0.115l2.668,0l-0.036,0.16C35.74,37.077,27.728,38.004,23.078,38.004z
					 M20.612,37.785l0.001,0c0.064,0.004,0.131,0.009,0.203,0.014c-0.071-0.005-0.139-0.009-0.204-0.014H20.612z M22.281,22.464
					c-1.152,0-2.317,0.048-3.464,0.142c-1.445,0.119-14.112,1.343-14.019,7.543l0,0.023c0.017,1.49,1.205,6.433,15.797,7.48
					l0.027,0.002c3.364,0.243,14.445,0.473,16.232-6.68h-2.112c-0.085,0.399-0.497,1.872-2.133,3.211
					c-1.749,1.431-5.306,3.016-12.315,2.442c-0.074-0.006-0.176-0.013-0.304-0.021c-9.491-0.613-11.606-3.894-11.709-6.54
					c-0.027-0.671,0.346-2.172,1.911-3.548c1.99-1.749,5.185-2.767,9.496-3.025l0.019-0.001c2.455-0.144,10.773-0.286,14.739,3.951
					l0.314,0.464h5.256c0.171,0,0.374-0.094,0.43-0.273c0.091-0.289-0.22-0.717-0.833-1.143
					C38.468,25.692,31.78,22.464,22.281,22.464z M4.668,30.203c0.031,1.633,1.113,2.874,2.019,3.63
					c2.447,2.041,6.802,3.343,12.955,3.876C5.921,36.518,4.699,31.722,4.668,30.203z M20.796,36.533
					c6.64,0.459,10.041-1.068,11.731-2.449c0.093-0.076,0.182-0.153,0.268-0.23c-0.088,0.079-0.18,0.159-0.277,0.238
					C30.827,35.469,27.428,36.991,20.796,36.533z M20.133,36.484c0.047,0.003,0.089,0.006,0.126,0.009
					C20.222,36.49,20.18,36.487,20.133,36.484z M10.152,33.567c1.302,1.137,3.488,2.112,7.049,2.624
					C13.64,35.679,11.454,34.704,10.152,33.567z M37.01,30.891l-0.008,0.033c-0.071,0.298-0.158,0.584-0.259,0.858
					C36.848,31.498,36.937,31.201,37.01,30.891z M34.633,30.843c0,0.002-0.002,0.016-0.007,0.042l0.008-0.042H34.633z
					 M35.128,30.843h1.892l0,0H35.128z M4.774,29.112c-0.075,0.331-0.112,0.677-0.107,1.04l0,0.018l0-0.019
					C4.662,29.788,4.699,29.442,4.774,29.112z M34.692,28.039h5.326c0.212,0,0.476-0.114,0.555-0.365
					c0.001-0.002,0.001-0.004,0.002-0.006c-0.001,0.002-0.001,0.004-0.002,0.006c-0.075,0.24-0.336,0.365-0.555,0.365H34.692
					l-0.279-0.414L34.692,28.039z M19.703,23.624l-0.007,0c-4.281,0.256-7.449,1.263-9.417,2.992
					c-0.404,0.356-0.727,0.719-0.983,1.073c1.291-1.752,4.243-3.697,10.4-4.065L19.703,23.624z M22.281,22.333
					c9.532,0,16.255,3.247,17.408,4.051c0.333,0.232,0.579,0.46,0.729,0.674c-0.133-0.191-0.359-0.417-0.729-0.674
					c-1.42-0.99-9.503-4.763-20.572-3.932C20.168,22.373,21.23,22.333,22.281,22.333z"/>
			</g>
		</g>
		<g>
			<g>
				<path class="st0" d="M24.582,3.674c0,0-2.669,3.31-0.562,9.792c0.563,1.733,2.201,5.976,1.077,16.686H19.01
					c0,0,2.809-6.849,1.733-13.606C20.377,14.253,17.746,4.502,24.582,3.674z"/>
			</g>
		</g>
	</g>
	<g>
		<path d="M63.703,29.305c-0.975-0.567-1.854-1.252-2.635-2.058c-1.061-1.111-1.756-2.263-2.084-3.453
			c-0.36,1.173-1.106,2.333-2.242,3.476c-0.928,0.908-2.578,1.962-2.578,1.962c-0.273,0.174-0.697,0.141-0.943-0.075l-0.937-0.803
			c-0.409-0.368,0.205-0.767,0.205-0.767c0.944-0.635,1.704-1.379,2.659-2.529c1.407-1.692,1.994-4.721,1.994-4.721
			c0.064-0.328,0.116-0.871,0.116-1.206v-3.796c0-0.335,0.262-0.61,0.582-0.61h2.153c0.32,0,0.582,0.275,0.582,0.61v4.404
			c0,1.457,0.718,3.587,2.154,5.247c1.032,1.174,3.003,2.632,3.003,2.632c0.261,0.193,0.264,0.513,0.006,0.71l-1.212,0.926
			C63.959,29.609,63.703,29.305,63.703,29.305z M65.094,22.342c-0.319,0-0.581-0.274-0.581-0.609v-1.251
			c0-0.335,0.262-0.61,0.581-0.61h2.387c0.32,0,0.581-0.273,0.581-0.608v-4.059c0-0.335,0.262-0.608,0.583-0.608h2.154
			c0.319,0,0.581,0.274,0.581,0.608v14.939c0,0.334-0.262,0.609-0.581,0.609h-2.154c-0.321,0-0.583-0.274-0.583-0.609v-7.192
			c0-0.335-0.261-0.609-0.581-0.609H65.094z"/>
		<path d="M113.945,16.672c0,0.335-0.262,0.609-0.582,0.609h-12.749c-0.32,0-0.582,0.275-0.582,0.609v2.935
			c0,0.334,0.262,0.609,0.582,0.609h12.951c0.32,0,0.582,0.274,0.582,0.609v1.145c0,0.334-0.262,0.609-0.582,0.609h-13.511
			c-0.32,0-0.843,0-1.163,0h-1.593c-0.32,0-0.581-0.275-0.581-0.609v-7.66c0-0.335,0.26-0.61,0.581-0.61h16.066
			c0.32,0,0.582,0.274,0.582,0.61V16.672z M103.213,28.055c0.32,0,0.582-0.274,0.582-0.609v-1.938c0-0.335,0.262-0.609,0.581-0.609
			h2.153c0.32,0,0.581,0.274,0.581,0.609v1.938c0,0.334,0.262,0.609,0.582,0.609h6.758c0.32,0,0.581,0.274,0.581,0.608v1.145
			c0,0.335-0.262,0.608-0.581,0.608H96.186c-0.32,0-0.581-0.274-0.581-0.608v-1.145c0-0.334,0.261-0.608,0.581-0.608H103.213z"/>
		<path d="M134.926,14.561c0.32,0,0.581,0.274,0.581,0.608V30.09c0,0.334-0.261,0.607-0.581,0.607h-2.153
			c-0.32,0-0.582-0.273-0.582-0.607V15.169c0-0.334,0.262-0.608,0.582-0.608H134.926z"/>
		<path d="M138.934,27.692c1.969-0.688,3.518-1.54,4.651-2.554c1.497-1.332,2.116-4.222,2.116-4.222
			c0.07-0.326,0.128-0.868,0.128-1.202v-1.8c0-0.334-0.261-0.609-0.582-0.609h-5.771c-0.32,0-0.582-0.274-0.582-0.608v-1.18
			c0-0.335,0.262-0.61,0.582-0.61h9.053c0.32,0,0.581,0.275,0.581,0.61v4.674c0,2.396-0.834,4.408-2.5,6.037
			c-1.554,1.488-6.386,3.381-6.386,3.381c-0.3,0.117-0.697-0.009-0.883-0.282l-0.692-1.012
			C138.311,27.909,138.934,27.692,138.934,27.692z M155.964,14.561c0.32,0,0.581,0.274,0.581,0.608v4.763
			c0,0.335,0.262,0.609,0.581,0.609h1.4c0.32,0,0.582,0.274,0.582,0.609v1.187c0,0.335-0.262,0.609-0.582,0.609h-1.4
			c-0.319,0-0.581,0.274-0.581,0.608v6.535c0,0.334-0.261,0.607-0.581,0.607h-2.136c-0.32,0-0.582-0.273-0.582-0.607V15.169
			c0-0.334,0.262-0.608,0.582-0.608H155.964z"/>
		<path d="M177.289,24.343c-1.811-0.49-3.322-1.03-4.531-1.621c-1.406-0.689-2.52-1.503-3.343-2.442
			c-0.763,0.94-1.848,1.754-3.254,2.442c-1.347,0.659-4.646,1.623-4.646,1.623c-0.307,0.089-0.708-0.063-0.89-0.338l-0.662-1.001
			c-0.304-0.568,0.309-0.676,0.309-0.676c2.145-0.607,3.824-1.403,5.037-2.389c1.659-1.362,2.363-4.644,2.363-4.644
			c0.07-0.326,0.388-0.594,0.708-0.594h2.022c0.634,0,0.735,0.796,0.735,0.796c0.178,1.812,0.98,3.301,2.408,4.466
			c1.332,1.065,5.3,2.355,5.3,2.355c0.306,0.1,0.394,0.398,0.199,0.663l-0.804,1.089C177.844,24.605,177.289,24.343,177.289,24.343z
			 M178.616,27.76c0.32,0,0.582,0.274,0.582,0.609v1.145c0,0.334-0.263,0.609-0.582,0.609h-18.269c-0.32,0-0.581-0.274-0.581-0.609
			v-1.145c0-0.335,0.261-0.609,0.581-0.609H178.616z"/>
		<path d="M198.285,22.433c-1.781-0.253-3.271-0.572-4.47-0.958c-1.392-0.455-2.424-1.01-3.097-1.668
			c-0.688,0.658-1.728,1.214-3.118,1.668c-1.332,0.438-4.385,0.959-4.385,0.959c-0.316,0.053-0.716-0.133-0.889-0.414l-0.65-1.056
			c-0.29-0.493,0.383-0.521,0.383-0.521c1.982-0.273,3.386-0.7,4.616-1.28c1.421-0.672,1.821-1.333,1.821-1.333
			c0.17-0.282,0.05-0.513-0.27-0.513h-5.093c-0.319,0-0.582-0.274-0.582-0.609v-1.181c0-0.335,0.263-0.61,0.582-0.61h15.554
			c0.32,0,0.581,0.274,0.581,0.61v1.181c0,0.335-0.261,0.609-0.581,0.609h-6.034c0,0.94,0.742,1.174,2.222,1.846
			c1.392,0.642,4.852,1.287,4.852,1.287c0.316,0.054,0.428,0.326,0.248,0.604l-0.7,1.086
			C198.935,22.632,198.285,22.433,198.285,22.433z M200.582,25.227c0,0.334-0.261,0.609-0.581,0.609h-6.96
			c-0.319,0-0.582,0.274-0.582,0.609v3.64c0,0.335-0.261,0.609-0.581,0.609h-2.12c-0.32,0-0.582-0.274-0.582-0.609v-3.64
			c0-0.334-0.261-0.609-0.581-0.609h-6.87c-0.32,0-0.582-0.274-0.582-0.609v-1.181c0-0.334,0.262-0.608,0.582-0.608h18.275
			c0.32,0,0.581,0.274,0.581,0.608V25.227z"/>
		<path d="M202.379,21.385c1.269-0.568,2.289-1.255,3.059-2.06c1.213-1.3,1.709-4.026,1.709-4.026
			c0.06-0.329,0.371-0.598,0.69-0.598h1.98c0.635,0,0.807,0.693,0.807,0.693c0.124,1.633,0.707,2.813,1.747,3.931
			c0.914,0.971,3.348,2.062,3.348,2.062c0.295,0.131,0.364,0.447,0.155,0.701l-0.877,1.066c-0.433,0.433-0.878,0.203-0.878,0.203
			c-1.088-0.426-2.081-0.921-2.981-1.487c-1.078-0.69-1.818-1.339-2.222-1.95c-0.463,0.61-1.234,1.252-2.311,1.926
			c-1.063,0.658-2.896,1.457-2.896,1.457c-0.295,0.129-0.694,0.015-0.886-0.253l-0.705-0.985
			C201.775,21.6,202.379,21.385,202.379,21.385z M220.443,14.561c0.319,0,0.581,0.274,0.581,0.608v7.967
			c0,0.335-0.263,0.609-0.581,0.609h-2.155c-0.32,0-0.581-0.274-0.581-0.609v-7.967c0-0.334,0.261-0.608,0.581-0.608H220.443z
			 M220.443,24.607c0.319,0,0.581,0.275,0.581,0.61v4.907c0,0.334-0.263,0.607-0.581,0.607h-2.155c-0.32,0-0.581-0.274-0.581-0.607
			v-2.51c0-0.334-0.261-0.608-0.582-0.608h-12.546c-0.321,0-0.582-0.274-0.582-0.608v-1.181c0-0.334,0.261-0.61,0.582-0.61H220.443z
			"/>
		<path d="M241.801,14.561h-2.153c-0.319,0-0.581,0.274-0.581,0.609v11.412v3.546c0,0.317,0.261,0.576,0.581,0.576h2.153
			c0.32,0,0.582-0.275,0.582-0.609V15.17C242.383,14.836,242.121,14.561,241.801,14.561z"/>
		<path d="M262.856,14.561c0.32,0,0.582,0.274,0.582,0.608v4.763c0,0.335,0.261,0.609,0.581,0.609h1.399
			c0.319,0,0.581,0.274,0.581,0.609v1.187c0,0.335-0.262,0.609-0.581,0.609h-1.399c-0.32,0-0.581,0.274-0.581,0.608v6.535
			c0,0.334-0.262,0.607-0.582,0.607h-2.135c-0.32,0-0.582-0.273-0.582-0.607V15.169c0-0.334,0.262-0.608,0.582-0.608H262.856z"/>
		<path d="M127.788,29.306c-0.974-0.567-1.853-1.252-2.634-2.058c-1.061-1.111-1.756-2.263-2.085-3.453
			c-0.359,1.174-1.105,2.333-2.242,3.476c-0.927,0.908-2.577,1.961-2.577,1.961c-0.274,0.175-0.697,0.141-0.942-0.074l-0.939-0.804
			c-0.408-0.368,0.206-0.767,0.206-0.767c0.944-0.635,1.704-1.379,2.659-2.529c1.406-1.691,1.993-4.721,1.993-4.721
			c0.064-0.328,0.117-0.871,0.117-1.205v-3.796c0-0.335,0.26-0.609,0.58-0.609h2.153c0.321,0,0.582,0.274,0.582,0.609v4.404
			c0,1.457,0.718,3.588,2.154,5.248c1.033,1.175,3.003,2.632,3.003,2.632c0.261,0.193,0.264,0.513,0.006,0.711l-1.212,0.925
			C128.044,29.61,127.788,29.306,127.788,29.306z"/>
		<path d="M256.062,29.28c-0.975-0.568-1.853-1.253-2.636-2.059c-1.06-1.111-1.756-2.263-2.084-3.453
			c-0.359,1.175-1.106,2.334-2.242,3.476c-0.927,0.908-2.577,1.962-2.577,1.962c-0.273,0.175-0.697,0.141-0.943-0.074l-0.937-0.805
			c-0.409-0.368,0.205-0.766,0.205-0.766c0.943-0.636,1.704-1.378,2.659-2.53c1.406-1.69,1.994-4.72,1.994-4.72
			c0.063-0.329,0.115-0.871,0.115-1.207V15.31c0-0.335,0.263-0.609,0.583-0.609h2.153c0.319,0,0.581,0.274,0.581,0.609v4.405
			c0,1.456,0.718,3.587,2.155,5.247c1.032,1.175,3.002,2.632,3.002,2.632c0.263,0.193,0.264,0.513,0.007,0.71l-1.212,0.927
			C256.319,29.583,256.062,29.28,256.062,29.28z"/>
		<g>
			<path d="M77.252,19.14c1.586,0.595,3.762,0.892,6.53,0.892c2.753,0,4.929-0.298,6.53-0.892c1.451-0.548,2.176-1.222,2.176-2.02
				c0-0.814-0.725-1.487-2.176-2.02c-1.601-0.579-3.777-0.869-6.53-0.869c-2.767,0-4.943,0.289-6.53,0.869
				c-1.437,0.533-2.154,1.205-2.154,2.02C75.098,17.934,75.815,18.607,77.252,19.14z M79.787,16.505
				c0.973-0.178,2.311-0.266,4.017-0.266c1.69,0,3.021,0.089,3.994,0.266c0.898,0.153,1.347,0.361,1.347,0.621
				c0,0.249-0.449,0.456-1.347,0.621c-0.957,0.177-2.289,0.266-3.994,0.266c-1.72,0-3.06-0.089-4.017-0.266
				c-0.882-0.166-1.324-0.372-1.324-0.621C78.464,16.866,78.905,16.658,79.787,16.505z"/>
			<path d="M92.014,28.895h-12.95c-0.32,0-0.582-0.101-0.582-0.225c0-0.124,0.262-0.363,0.582-0.363h12.753
				c0.32,0,0.582-0.265,0.582-0.589v-3.281c0-0.323-0.262-0.588-0.582-0.588h-5.778h-4.48h-5.812c-0.32,0-0.581,0.265-0.581,0.588
				v0.864c0,0.324,0.261,0.588,0.581,0.588H88.5c0.32,0,0.581,0.223,0.581,0.326c0,0.104-0.261,0.187-0.581,0.187H75.747
				c-0.32,0-0.581,0.266-0.581,0.589v3.216c0,0.324,0.261,0.589,0.581,0.589h16.267c0.32,0,0.582-0.265,0.582-0.589v-0.726
				C92.596,29.16,92.334,28.895,92.014,28.895z"/>
			<path d="M84.929,23.455h-2.141c-0.542,0-0.648-0.443-0.648-0.443v-0.334c0-0.152-0.261-0.277-0.582-0.277h-6.915
				c-0.319,0-0.581-0.265-0.581-0.589v-0.829c0-0.324,0.262-0.589,0.581-0.589h18.265c0.32,0,0.582,0.266,0.582,0.589v0.829
				c0,0.324-0.262,0.589-0.582,0.589h-6.87c-0.319,0-0.582,0.125-0.582,0.277v0.204C85.457,22.881,85.574,23.455,84.929,23.455z"/>
		</g>
		<g>
			<path d="M224.46,17.956h3.37h4.361h4.086c0.319,0,0.582-0.274,0.582-0.609v-1.145c0-0.335-0.263-0.609-0.582-0.609h-3.878
				c-0.319,0-0.582-0.274-0.582-0.608v-0.173c0-0.334-0.261-0.609-0.581-0.609h-2.154c-0.319,0-0.582,0.274-0.582,0.609v0.173
				c0,0.334-0.262,0.608-0.581,0.608h-3.461c-0.319,0-0.581,0.274-0.581,0.609v1.145C223.878,17.681,224.141,17.956,224.46,17.956z"
				/>
			<path d="M237.674,29.165v-1.476c0-0.538-0.448-0.499-0.448-0.499h-4.655c-0.32,0-0.582-0.274-0.582-0.608
				c0-0.597-0.505-0.579-0.505-0.579h-2.245c-0.562,0-0.566,0.579-0.566,0.579c0,0.334-0.261,0.608-0.581,0.608h-3.886
				c-0.32,0-0.581,0.274-0.581,0.609v1.144c0,0.335,0.261,0.609,0.581,0.609h12.953C237.706,29.553,237.674,29.165,237.674,29.165z"
				/>
			<path d="M225.396,24.508c1.179,0.777,2.781,1.164,4.805,1.164c2.086,0,3.748-0.388,4.987-1.164
				c1.149-0.727,1.722-1.592,1.722-2.594c0-1.078-0.544-1.955-1.632-2.632c-1.178-0.751-2.794-1.127-4.849-1.127
				c-2.025,0-3.671,0.388-4.941,1.165c-1.118,0.726-1.677,1.59-1.677,2.593C223.811,22.941,224.34,23.806,225.396,24.508z
				 M227.964,20.927c0.628-0.312,1.443-0.468,2.445-0.468c1.018,0,1.818,0.151,2.401,0.453c0.538,0.271,0.808,0.624,0.808,1.058
				c0,0.402-0.284,0.75-0.852,1.042c-0.615,0.312-1.438,0.468-2.469,0.468c-1.002,0-1.795-0.156-2.378-0.468
				c-0.524-0.282-0.786-0.63-0.786-1.042C227.133,21.567,227.411,21.219,227.964,20.927z"/>
		</g>
	</g>
</g>
</svg>
