<?xml version="1.0" encoding="utf-8"?>
<!-- Generator: Adobe Illustrator 23.1.0, SVG Export Plug-In . SVG Version: 6.00 Build 0)  -->
<svg version="1.1" id="Layer_1" xmlns="http://www.w3.org/2000/svg" xmlns:xlink="http://www.w3.org/1999/xlink" x="0px" y="0px"
	 viewBox="0 0 512 512" style="enable-background:new 0 0 512 512;" xml:space="preserve">
<style type="text/css">
	.st0{fill:#FFFFFF;}
</style>
<path class="st0" d="M508,419.4c0-20.4-16.6-37.1-37-37.2h-4V32.3H94.2L94,273.4H4v206.3h113.2v-23h353.6
	C491.3,456.6,508,439.9,508,419.4z M93.9,456.4H27.3V296.7h66.6C93.9,296.7,93.9,456.4,93.9,456.4z M257.7,55.6h36.7v49.6h-36.7
	V55.6z M117.5,55.6h116.9v72.9h83.3V55.6h126v326.5h-165c-5.8,0-10.6-4.8-10.6-10.6s4.8-10.6,10.6-10.6h56.1
	c21.6,0,39.1-17.5,39.1-39.1c0-19.2-14.4-35.9-33.4-38.7l-48.8-7.2c-44.9-6.6-73.4-0.2-110.2,14l-64.2,27.5L117.5,55.6z
	 M117.2,433.3V343l72.8-31.2c39-15,62-18,98.2-12.6l48.8,7.2c7.7,1.1,13.5,7.8,13.5,15.6c0,8.7-7.1,15.8-15.8,15.8h-56.1
	c-18.7,0-33.9,15.2-33.9,33.9s15.2,33.9,33.9,33.9h192.1c7.7,0,13.9,6.2,13.9,13.9c0,7.7-6.2,13.9-13.9,13.9H117.2V433.3z"/>
</svg>
