<?xml version="1.0" encoding="utf-8"?>
<!-- Generator: Adobe Illustrator 23.1.0, SVG Export Plug-In . SVG Version: 6.00 Build 0)  -->
<svg version="1.1" id="Capa_1" xmlns="http://www.w3.org/2000/svg" xmlns:xlink="http://www.w3.org/1999/xlink" x="0px" y="0px"
	 viewBox="0 0 60 60" style="enable-background:new 0 0 60 60;" xml:space="preserve">
<style type="text/css">
	.st0{fill:#FFFFFF;}
</style>
<path class="st0" d="M46.98,34.3l-0.23-0.018V0.25H1.25v59.5H46c7.03,0,12.75-5.72,12.75-12.75
	C58.75,40.385,53.58,34.806,46.98,34.3z M9.25,58.25h-6.5V1.75h6.5V58.25z M10.75,58.25V1.75h34.5v32.521l-0.397,0.036
	c-0.142,0.013-0.283,0.032-0.424,0.052l-0.145,0.02c-0.232,0.031-0.453,0.062-0.669,0.103c-0.169,0.033-0.334,0.072-0.499,0.111
	l-0.062,0.015c-0.214,0.051-0.43,0.103-0.639,0.164c-0.184,0.055-0.364,0.115-0.543,0.177c-0.206,0.071-0.41,0.144-0.611,0.225
	c-0.176,0.069-0.348,0.146-0.521,0.225c-0.195,0.089-0.39,0.183-0.58,0.28c-0.166,0.086-0.331,0.177-0.493,0.271
	c-0.187,0.106-0.367,0.216-0.544,0.332c-0.161,0.103-0.317,0.207-0.47,0.315c-0.174,0.122-0.342,0.251-0.509,0.382
	c-0.147,0.116-0.292,0.232-0.434,0.354c-0.161,0.14-0.318,0.283-0.472,0.43c-0.137,0.129-0.27,0.257-0.398,0.39
	c-0.149,0.154-0.291,0.314-0.433,0.477l-0.043,0.049c-0.107,0.123-0.214,0.245-0.313,0.371c-0.138,0.171-0.264,0.345-0.39,0.521
	l-0.065,0.091c-0.086,0.118-0.171,0.236-0.252,0.359c-0.104,0.157-0.199,0.319-0.295,0.482l-0.123,0.209
	c-0.067,0.113-0.134,0.227-0.195,0.342c-0.097,0.184-0.186,0.374-0.273,0.565l-0.089,0.189c-0.053,0.111-0.105,0.223-0.152,0.338
	c-0.077,0.187-0.144,0.376-0.209,0.565l-0.079,0.221c-0.043,0.12-0.087,0.239-0.124,0.362c-0.063,0.209-0.114,0.423-0.166,0.637
	l-0.066,0.269c-0.025,0.097-0.05,0.192-0.07,0.292c-0.051,0.253-0.085,0.514-0.119,0.774l-0.033,0.228
	c-0.013,0.077-0.025,0.154-0.033,0.233C33.272,46.151,33.25,46.58,33.25,47c0,0.34,0.019,0.697,0.059,1.161l0.027,0.266
	c0.046,0.412,0.102,0.775,0.169,1.108l0.03,0.129c0.07,0.33,0.156,0.656,0.252,0.979l0.072,0.24c0.114,0.355,0.24,0.698,0.373,1.017
	l0.081,0.181c0.128,0.293,0.267,0.58,0.414,0.858l0.031,0.061c0.023,0.045,0.046,0.09,0.071,0.134
	c0.172,0.313,0.358,0.619,0.556,0.914c0.043,0.065,0.088,0.128,0.133,0.191c0.184,0.265,0.373,0.52,0.572,0.766l0.106,0.136
	c0.216,0.259,0.45,0.517,0.717,0.787l0.183,0.181c0.24,0.236,0.49,0.464,0.749,0.682l-0.096,0.247v0l0.158-0.193
	c0.258,0.212,0.541,0.424,0.865,0.648l0.288,0.195c0.05,0.035,0.099,0.069,0.149,0.102l0.739,0.462H10.75z M46,58.25
	c-6.203,0-11.25-5.047-11.25-11.25S39.797,35.75,46,35.75S57.25,40.797,57.25,47S52.203,58.25,46,58.25z"/>
<path class="st0" d="M52,46.25h-5.25V41c0-0.413-0.337-0.75-0.75-0.75s-0.75,0.337-0.75,0.75v5.25H40c-0.413,0-0.75,0.337-0.75,0.75
	s0.337,0.75,0.75,0.75h5.25V53c0,0.413,0.337,0.75,0.75,0.75s0.75-0.337,0.75-0.75v-5.25H52c0.413,0,0.75-0.337,0.75-0.75
	S52.413,46.25,52,46.25z"/>
<path class="st0" d="M16.25,10.25v13.5h23.5v-13.5H16.25z M38.25,22.25h-20.5v-10.5h20.5V22.25z"/>
<rect x="21.25" y="14.25" class="st0" width="13.5" height="1.5"/>
<rect x="21.25" y="18.25" class="st0" width="13.5" height="1.5"/>
</svg>
