<?xml version="1.0" encoding="utf-8"?>
<!-- Generator: Adobe Illustrator 23.1.0, SVG Export Plug-In . SVG Version: 6.00 Build 0)  -->
<svg version="1.1" id="Layer_1" xmlns="http://www.w3.org/2000/svg" xmlns:xlink="http://www.w3.org/1999/xlink" x="0px" y="0px"
	 viewBox="0 0 512 512" style="enable-background:new 0 0 512 512;" xml:space="preserve">
<style type="text/css">
	.st0{fill:#898989;}
	.st1{fill:#F5838B;}
	.st2{font-family:'SourceHanSansK-Medium-KSCpc-EUC-H';}
	.st3{font-size:142.7099px;}
	.st4{letter-spacing:-5;}
</style>
<g>
	<g>
		<path class="st0" d="M440.36,0H87.671C74.688,0,64.125,10.563,64.125,23.546v24.548h-8.517c-4.15,0-7.515,3.365-7.515,7.515
			s3.365,7.515,7.515,7.515h8.517v25.049h-8.517c-4.15,0-7.515,3.365-7.515,7.515s3.365,7.515,7.515,7.515h8.517v25.049h-8.517
			c-4.15,0-7.515,3.365-7.515,7.515s3.365,7.515,7.515,7.515h8.517v25.049h-8.517c-4.15,0-7.515,3.365-7.515,7.515
			s3.365,7.515,7.515,7.515h8.517v25.049h-8.517c-4.15,0-7.515,3.365-7.515,7.515s3.365,7.515,7.515,7.515h8.517v25.049h-8.517
			c-4.15,0-7.515,3.365-7.515,7.515c0,4.15,3.365,7.515,7.515,7.515h8.517v25.049h-8.517c-4.15,0-7.515,3.365-7.515,7.515
			s3.365,7.515,7.515,7.515h8.517v25.049h-8.517c-4.15,0-7.515,3.365-7.515,7.515s3.365,7.515,7.515,7.515h8.517v25.049h-8.517
			c-4.15,0-7.515,3.365-7.515,7.515s3.365,7.515,7.515,7.515h8.517v25.049h-8.517c-4.15,0-7.515,3.365-7.515,7.515
			s3.365,7.515,7.515,7.515h8.517v25.049h-8.517c-4.15,0-7.515,3.365-7.515,7.515s3.365,7.515,7.515,7.515h8.517v24.548
			c0,12.983,10.563,23.546,23.546,23.546H440.36c12.983,0,23.546-10.563,23.546-23.546V23.546C463.906,10.563,453.343,0,440.36,0z
			 M448.877,488.454c0,4.696-3.82,8.517-8.517,8.517H87.671c-4.696,0-8.517-3.82-8.517-8.517v-24.548h8.517
			c4.15,0,7.515-3.365,7.515-7.515s-3.365-7.515-7.515-7.515h-8.517v-25.049h8.517c4.15,0,7.515-3.365,7.515-7.515
			s-3.365-7.515-7.515-7.515h-8.517V383.75h8.517c4.15,0,7.515-3.365,7.515-7.515s-3.365-7.515-7.515-7.515h-8.517v-25.049h8.517
			c4.15,0,7.515-3.365,7.515-7.515s-3.365-7.515-7.515-7.515h-8.517v-25.049h8.517c4.15,0,7.515-3.365,7.515-7.515
			s-3.365-7.515-7.515-7.515h-8.517v-25.049h8.517c4.15,0,7.515-3.365,7.515-7.515c0-4.15-3.365-7.515-7.515-7.515h-8.517v-25.049
			h8.517c4.15,0,7.515-3.365,7.515-7.515s-3.365-7.515-7.515-7.515h-8.517v-25.049h8.517c4.15,0,7.515-3.365,7.515-7.515
			s-3.365-7.515-7.515-7.515h-8.517V143.28h8.517c4.15,0,7.515-3.365,7.515-7.515s-3.365-7.515-7.515-7.515h-8.517v-25.049h8.517
			c4.15,0,7.515-3.365,7.515-7.515s-3.365-7.515-7.515-7.515h-8.517V63.123h8.517c4.15,0,7.515-3.365,7.515-7.515
			s-3.365-7.515-7.515-7.515h-8.517V23.546c0-4.696,3.82-8.517,8.517-8.517H440.36c4.696,0,8.517,3.82,8.517,8.517L448.877,488.454
			L448.877,488.454z"/>
		<path class="st0" d="M119.734,32.063c-4.15,0-7.515,3.365-7.515,7.515v432.845c0,4.15,3.365,7.515,7.515,7.515
			s7.515-3.365,7.515-7.515V39.577C127.249,35.427,123.884,32.063,119.734,32.063z"/>
	</g>
	<text transform="matrix(1 0 0 1 156.6463 241.0795)" class="st1 st2 st3 st4">SCG</text>
</g>
</svg>
