<?xml version="1.0" encoding="utf-8"?>
<!-- Generator: Adobe Illustrator 23.1.0, SVG Export Plug-In . SVG Version: 6.00 Build 0)  -->
<svg version="1.1" id="Layer_1" xmlns="http://www.w3.org/2000/svg" xmlns:xlink="http://www.w3.org/1999/xlink" x="0px" y="0px"
	 viewBox="0 0 512 512" style="enable-background:new 0 0 512 512;" xml:space="preserve">
<style type="text/css">
	.st0{fill:#898989;}
	.st1{fill:#B498CB;}
</style>
<g>
	<path class="st0" d="M463.508,48.035H48.492C21.754,48.035,0,69.789,0,96.523v259.523c0,26.738,21.754,48.492,48.492,48.492
		h185.035v16.105h-80.266c-19.465,0-35.301,15.832-35.301,35.297c0,4.434,3.594,8.023,8.027,8.023H386.01
		c4.434,0,8.023-3.59,8.023-8.023c0-19.465-15.832-35.297-35.297-35.297h-33.543c-4.43,0-8.023,3.59-8.023,8.023
		s3.594,8.023,8.023,8.023h33.543c7.75,0,14.445,4.605,17.492,11.223H135.766c3.051-6.617,9.742-11.223,17.496-11.223h177.9
		c4.43,0,8.023-3.59,8.023-8.023s-3.594-8.023-8.023-8.023h-52.689v-16.105h185.035c26.738,0,48.492-21.754,48.492-48.492V96.523
		C512,69.789,490.246,48.035,463.508,48.035z M262.422,420.645h-12.844V404.54h12.844V420.645z M495.949,356.047
		c0,17.887-14.551,32.438-32.441,32.438H48.492c-17.887,0-32.441-14.551-32.441-32.438V96.523c0-17.887,14.551-32.438,32.441-32.438
		h415.016c17.887,0,32.441,14.551,32.441,32.438V356.047z"/>
	<path class="st0" d="M459.07,80.551H109.938c-4.434,0-8.027,3.594-8.027,8.027c0,4.43,3.594,8.023,8.027,8.023H459.07
		c3.379,0,6.125,2.75,6.125,6.125v247.117c0,3.375-2.746,6.125-6.125,6.125H349.629v-33.242c0-8.586-3.844-16.59-10.543-21.953
		l-67.949-54.402c-3.461-2.77-8.512-2.211-11.281,1.25s-2.211,8.508,1.25,11.281l67.945,54.398c2.879,2.305,4.527,5.742,4.527,9.426
		v33.242h-40.941c0.098-1.652-0.039-3.328-0.457-4.984l-9.109-35.973c-3.41-13.438-13.207-24.324-26.207-29.125l-45.027-16.637
		v-10.566c10.293-5.012,17.461-15.059,18.656-26.629c0.008-0.074,0.016-0.148,0.02-0.223L234.176,183
		c0-0.031,0.008-0.066,0.012-0.098l0.723-9.746c0.195-1.914,0.293-3.852,0.293-5.762c0-4.98-0.613-9.66-1.766-14.012
		c-6.258-24.363-28.434-42.422-54.754-42.422c-15.992,0-31.301,6.816-42,18.699c-10.672,11.852-15.848,27.734-14.219,43.598v0.008
		l0.738,9.652c0,0.012,0.004,0.023,0.004,0.035l3.754,49.133c0.008,0.078,0.016,0.156,0.023,0.234
		c1.164,11.039,7.824,20.746,17.43,25.93v11.082l-44.801,16.555c-13.008,4.801-22.801,15.695-26.199,29.129l-9.117,35.977
		c-0.418,1.652-0.551,3.328-0.453,4.977H52.93c-3.379,0-6.125-2.746-6.125-6.125V102.73c0-3.379,2.746-6.125,6.125-6.125h64.638
		c4.434,0,8.023-3.594,8.023-8.027c0-4.43-3.59-8.023-8.023-8.023H52.93c-12.23,0-22.176,9.949-22.176,22.176v247.113
		c0,12.227,9.945,22.176,22.176,22.176h406.14c12.23,0,22.176-9.945,22.176-22.176V102.73
		C481.246,90.5,471.301,80.551,459.07,80.551z M167.031,266.629c3.566,1.254,7.32,1.879,11.074,1.879
		c3.617,0,7.238-0.582,10.688-1.75l6.996-2.359v5.875l-17.578,10.469l-17.746-10.414v-6L167.031,266.629z M167.012,292.781
		l-8.129,12.816l-14.43-19.164l7.207-2.664L167.012,292.781z M211.941,286.402l-14.859,19.168l-7.77-12.754l15.313-9.117
		L211.941,286.402z M138.34,170.418c-0.02-0.27-0.047-0.539-0.063-0.813c0-0.016-0.004-0.035-0.004-0.051
		c-0.547-10.664,3.16-21.184,10.34-29.156c7.66-8.508,18.621-13.387,30.07-13.387c22.316,0,40.469,18.117,40.469,40.383
		c0,1.402-0.074,2.824-0.219,4.227c-0.008,0.078-0.012,0.152-0.02,0.23l-0.184,2.43h-7.098c-10.07-0.578-19.766-3.094-28.816-7.477
		c-7.395-3.582-14.133-8.324-20.031-14.094c-2.371-2.324-5.828-3.211-9.027-2.32c-3.195,0.891-5.691,3.441-6.516,6.652
		c-0.828,3.223-2.711,7.883-6.984,11.801C139.625,169.422,138.984,169.945,138.34,170.418z M139.688,187.973
		c3.617-1.523,7.613-3.816,11.414-7.293c3.484-3.195,6.016-6.66,7.859-9.988c5.215,4.117,10.859,7.652,16.859,10.563
		c11.039,5.348,22.867,8.398,35.152,9.066c0.145,0.008,0.289,0.012,0.438,0.012h6.117l-3.012,40.176
		c-0.734,6.707-5.32,12.426-11.711,14.586l-19.148,6.457c-3.648,1.234-7.668,1.211-11.309-0.066l-17.867-6.266
		c-6.273-2.199-10.785-7.875-11.523-14.48L139.688,187.973z M79.855,354.926l9.121-35.969c2.102-8.313,8.156-15.043,16.199-18.016
		l23.555-8.703l24.305,32.281c1.52,2.02,3.895,3.199,6.41,3.199c0.105,0,0.215-0.004,0.32-0.008
		c2.633-0.105,5.047-1.496,6.457-3.719l11.879-18.727l11.332,18.602c1.375,2.254,3.77,3.688,6.406,3.836
		c0.148,0.008,0.301,0.016,0.449,0.016c2.473,0,4.816-1.145,6.34-3.109l25.102-32.375l23.57,8.711
		c8.039,2.969,14.102,9.703,16.211,18.016l9.105,35.969c0.016,0.059,0.027,0.109-0.039,0.195s-0.121,0.086-0.176,0.086H80.082
		c-0.059,0-0.113,0-0.18-0.086C79.828,355.031,79.844,354.973,79.855,354.926z"/>
	<path class="st0" d="M444.867,150.855v-16.387c0-10.332-8.406-18.738-18.738-18.738h-44.922c-10.332,0-18.738,8.406-18.738,18.738
		v16.387c0,10.328,8.406,18.734,18.738,18.734h44.922C436.461,169.59,444.867,161.184,444.867,150.855z M378.523,150.855v-16.387
		c0-1.484,1.203-2.688,2.684-2.688h44.922c1.48,0,2.688,1.203,2.688,2.688v16.387c0,1.48-1.207,2.684-2.688,2.684h-44.922
		C379.727,153.539,378.523,152.336,378.523,150.855z"/>
	<path class="st0" d="M392.164,181.715c-4.43,0-8.023,3.59-8.023,8.023s3.594,8.023,8.023,8.023h23.008
		c4.43,0,8.023-3.59,8.023-8.023s-3.594-8.023-8.023-8.023H392.164z"/>
	<g>
		<path class="st1" d="M349.629,355.969v-33.242c0-8.586-3.844-16.59-10.543-21.953l-67.949-54.402
			c-3.461-2.77-8.512-2.211-11.281,1.25s-2.211,8.508,1.25,11.281l67.945,54.398c2.879,2.305,4.527,5.742,4.527,9.426v33.242"/>
		<path class="st1" d="M444.867,150.855v-16.387c0-10.332-8.406-18.738-18.738-18.738h-44.922c-10.332,0-18.738,8.406-18.738,18.738
			v16.387c0,10.328,8.406,18.734,18.738,18.734h44.922C436.461,169.59,444.867,161.184,444.867,150.855z M378.523,150.855v-16.387
			c0-1.484,1.203-2.688,2.684-2.688h44.922c1.48,0,2.688,1.203,2.688,2.688v16.387c0,1.48-1.207,2.684-2.688,2.684h-44.922
			C379.727,153.539,378.523,152.336,378.523,150.855z"/>
		<path class="st1" d="M392.164,181.715c-4.43,0-8.023,3.59-8.023,8.023s3.594,8.023,8.023,8.023h23.008
			c4.43,0,8.023-3.59,8.023-8.023s-3.594-8.023-8.023-8.023H392.164z"/>
	</g>
</g>
</svg>
