<?xml version="1.0" encoding="utf-8"?>
<!-- Generator: Adobe Illustrator 23.1.0, SVG Export Plug-In . SVG Version: 6.00 Build 0)  -->
<svg version="1.1" id="Layer_1" xmlns="http://www.w3.org/2000/svg" xmlns:xlink="http://www.w3.org/1999/xlink" x="0px" y="0px"
	 viewBox="0 0 512 512" style="enable-background:new 0 0 512 512;" xml:space="preserve">
<style type="text/css">
	.st0{fill:#008CDB;}
	.st1{fill:#898989;}
</style>
<g>
	<g>
		<g>
			<path class="st0" d="M146.808,121.507c-6.003,6.634-11.701,13.224-17.084,19.736c-2.917-6.439-5.92-13.043-9.016-19.816
				c-1.992-4.363-4.007-8.781-6.011-13.178c14.438-10.922,25.55-21.262,29.772-25.322c8.17-7.861,8.423-20.856,0.562-29.026
				c-7.857-8.164-20.862-8.436-29.026-0.562c-5.353,5.151-11.769,10.755-18.64,16.249c-4.456-10.148-8.826-20.249-12.893-30.147
				C80.156,28.955,68.165,23.947,57.68,28.262C47.224,32.57,42.19,44.575,46.502,55.054c5.156,12.53,10.682,25.268,16.337,38.02
				c-9.552,5.168-18.104,8.357-23.929,7.903c-11.303-0.883-21.18,7.566-22.064,18.869c-0.883,11.303,7.566,21.18,18.869,22.064
				c13.82,1.077,29.205-3.903,44.011-11.39c1.21,2.658,2.433,5.336,3.633,7.974c6.299,13.777,12.477,27.299,18.295,40.371
				c-34.042,51.299-45.948,96.504-32.81,128.713c8.774,21.522,28.4,34.754,53.838,36.306c14.604,0.883,25.378-1.877,33.3-6.142
				c7.116-3.83,11.937-8.87,15.156-13.567c18.823-27.42,6.154-72.926-22.657-140.475c8.142-10.824,17.662-22.375,28.768-34.643
				c14.439-15.968,36.743-31.622,60.915-15.512c25.806,17.195,41.883,63.306,23.684,101.985c-4.83,10.261-0.421,22.492,9.837,27.315
				c10.258,4.824,22.492,0.421,27.311-9.843c28.373-60.319,2.33-126.707-38.074-153.626
				C224.168,74.896,181.511,83.17,146.808,121.507z M129.478,247.729c14.143,42.157,8.49,52.21,7.803,53.213
				c-0.852,1.247-5.01,2.393-12.111,1.957c-14.248-0.863-17.204-8.101-18.314-10.822c-4.185-10.26-3.098-32.678,14.586-66.367
				C124.427,233.358,127.126,240.716,129.478,247.729z M248.522,33.468c4.672,9.921,0.717,21.684-8.829,26.813
				c-0.328,0.177-0.66,0.346-0.998,0.504c-10.25,4.832-22.48,0.435-27.315-9.822c-4.547-9.641-12.884-10.757-37.338-9.412
				c-2.367,0.131-4.724,0.266-7.044,0.363c-11.329,0.485-20.908-8.301-21.394-19.629c-0.485-11.327,8.304-20.902,19.629-21.393
				c2.152-0.092,4.345-0.216,6.55-0.334C195.551-0.757,231.471-2.738,248.522,33.468z"/>
		</g>
	</g>
	<g>
		<g>
			<path class="st1" d="M402.063,488.374c-5.525-10.506-11.512-19.671-17.763-27.336c7.585-30.992-0.61-62.65-22.484-82.618
				c-10.196-9.303-22.414-15.132-35.904-17.461c7.497-18.21,15.046-35.16,22.428-47.679c4.426-7.504,1.937-17.177-5.57-21.607
				c-7.497-4.426-17.176-1.937-21.606,5.57c-10.196,17.272-20.118,40.759-29.773,64.87c-11.43,2.509-23.237,7.048-35.086,13.631
				c-2.198,1.224-4.569,2.616-6.994,4.079c-6.394-22.623-11.743-45.632-15.069-63.939c-1.557-8.575-9.762-14.243-18.345-12.709
				c-8.574,1.557-14.261,9.77-12.704,18.346c3.77,20.756,10.38,49.341,18.718,77.295c-20.502,16.289-39.489,36.928-41.239,56.711
				c-1.83,20.627,5.451,33.095,11.877,39.917c9.372,9.95,23.602,15.204,40.121,14.713c12.995-0.379,24.184-8.458,34.435-21.782
				c1.1,0.236,2.222,0.37,3.35,0.37c3.413,0,6.86-1.104,9.751-3.382c6.846-5.39,8.024-15.314,2.633-22.16
				c-0.029-0.037-0.056-0.078-0.084-0.11c10.524-20.178,20.464-45.199,30.989-71.794c10.435,0.37,19.573,3.838,26.794,10.431
				c9.456,8.63,14.56,21.607,14.842,35.64c-6.577-2.857-13.138-3.991-19.499-3.271c-6.874,0.786-23.588,5.331-30.211,30.526
				c-5.147,19.572,4.393,39.654,21.721,45.715c1.645,0.572,5.405,1.657,10.352,1.657c8.518,0,20.557-3.202,31.427-17.702
				c1.64,2.689,3.303,5.61,4.967,8.769c4.061,7.71,13.596,10.681,21.31,6.617C403.158,505.628,406.124,496.088,402.063,488.374z
				 M231.771,478.613c-7.244,0.235-13.175-1.544-16.244-4.8c-2.905-3.086-4.056-8.302-3.419-15.504
				c0.527-5.939,8.135-16.158,20.405-27.264c4.337,11.878,8.938,22.918,13.711,32.361
				C236.755,477.955,231.813,478.613,231.771,478.613z M264.834,427.376c-2.001-5.202-3.977-10.713-5.908-16.418
				c4.061-2.621,8.301-5.18,12.704-7.624c1.428-0.79,2.846-1.547,4.259-2.259C272.225,410.136,268.533,419.01,264.834,427.376z
				 M337.823,480.556c-0.81-0.314-2.832-3.288-1.617-7.904c1.317-4.997,2.953-6.965,3.248-7.196
				c0.096-0.018,0.207-0.029,0.327-0.029c1.33,0,4.149,1.058,7.951,3.803C342.9,478.409,338.645,480.539,337.823,480.556z"/>
		</g>
	</g>
	<g>
		<g>
			<path class="st1" d="M432.922,202.206c-5.704,2.925-7.955,9.92-5.03,15.623c0.997,1.944,2.468,3.489,4.2,4.563
				c3.345,2.073,7.664,2.393,11.423,0.468c1.778-0.912,5.65-2.127,9.392-3.304c15.844-4.976,48.818-15.33,41.178-46.899
				c-2.704-11.174-15.615-17.148-40.828-23.929c1.621-4.612,3.372-8.694,5.096-11.475c3.381-5.444,1.704-12.6-3.739-15.981
				c-0.004-0.002-0.004-0.002-0.004-0.002c-5.445-3.377-12.599-1.699-15.975,3.743c-2.903,4.676-5.636,11.074-7.99,18.048
				c-1.808-0.432-3.6-0.862-5.491-1.311c-6.229-1.481-13.774-3.273-21.358-5.215c0.793-13.664,0.844-26.622-1.223-31.868
				c-2.35-5.965-9.091-8.89-15.053-6.543c-5.795,2.284-8.723,8.711-6.73,14.539c0.43,2.211,0.497,8.332,0.091,17.299
				c-6.956-2.334-12.295-4.645-14.157-6.706c-3.634-5.202-10.789-6.533-16.047-2.947c-5.298,3.609-6.666,10.829-3.056,16.124
				c4.918,7.223,15.56,12.391,31.547,17.346c-0.609,6.524-1.366,13.591-2.301,21.109c-5.212,41.889-10.933,59.286-13.227,62.634
				c-3.622,5.285-2.275,12.509,3.01,16.131c0.149,0.105,0.301,0.203,0.452,0.297c5.238,3.248,12.157,1.83,15.682-3.306
				c8.327-12.149,14.067-47.666,17.413-75.323c0.417-3.452,1.051-8.911,1.693-15.333c5.586,1.393,11.524,2.824,17.894,4.337
				c1.574,0.374,3.261,0.775,4.993,1.187c-1.403,7.455-2.123,14.234-1.841,18.905c0.235,3.913,2.383,7.256,5.477,9.174
				c1.969,1.221,4.317,1.865,6.803,1.716c6.399-0.383,11.272-5.878,10.888-12.278c-0.163-2.712,0.313-6.975,1.208-11.864
				c10.947,2.959,20.792,6.077,24.521,8.685c0.72,7.03-5.691,11.211-25.88,17.553C440.861,199.013,436.463,200.395,432.922,202.206z
				"/>
		</g>
	</g>
</g>
</svg>
