<?xml version="1.0" encoding="utf-8"?>
<!-- Generator: Adobe Illustrator 23.1.0, SVG Export Plug-In . SVG Version: 6.00 Build 0)  -->
<svg version="1.1" id="Layer_1" xmlns="http://www.w3.org/2000/svg" xmlns:xlink="http://www.w3.org/1999/xlink" x="0px" y="0px"
	 viewBox="0 0 512 512" style="enable-background:new 0 0 512 512;" xml:space="preserve">
<style type="text/css">
	.st0{fill:#898989;}
	.st1{fill:#B498CB;}
</style>
<g>
	<path class="st0" d="M99.649,106.697l-7.098-42.658h-25.51c-3.814-14.674-17.055-25.595-32.915-25.595
		C15.306,38.444,0,53.749,0,72.57s15.306,34.127,34.127,34.127c15.86,0,29.101-10.92,32.915-25.595h11.04l4.266,25.595h-0.239
		l1.894,9.905v0.026l0,0l21.832,114.102l8.907,46.6h0.009l11.449,59.849c-21.056,1.587-38.606,17.78-40.679,38.179
		c-1.211,11.987,2.73,23.991,10.818,32.915c8.097,8.958,19.631,14.094,31.627,14.094h17.063c0,28.231,22.959,51.19,51.19,51.19
		s51.19-22.959,51.19-51.19h93.848c0,28.231,22.959,51.19,51.19,51.19s51.19-22.959,51.19-51.19h34.126
		c4.718,0,8.532-3.814,8.532-8.532c0-4.718-3.814-8.532-8.532-8.532H440.65c-7.047-19.853-25.962-34.127-48.204-34.127
		s-41.157,14.273-48.204,34.127h-99.82c-7.047-19.853-25.962-34.127-48.204-34.127s-41.157,14.273-48.204,34.127h-20.041
		c-7.184,0-14.094-3.088-18.974-8.472c-4.923-5.452-7.235-12.465-6.493-19.759c1.297-12.874,13.19-22.95,27.071-22.95h6.663
		c0.171,0,0.324,0,0.512,0l52.282-0.017l92.508-0.034v-0.009l60.958-0.017l92.611-0.017v-0.009l34.331-0.009
		c23.471,0,42.556-19.085,42.556-42.547v-204.87L99.649,106.697z M34.126,89.633c-9.41,0-17.063-7.653-17.063-17.063
		s7.653-17.063,17.063-17.063S51.19,63.16,51.19,72.57S43.537,89.633,34.126,89.633z M392.455,388.24
		c18.821,0,34.126,15.306,34.126,34.127c0,18.821-15.306,34.126-34.126,34.126s-34.126-15.306-34.126-34.126
		C358.328,403.546,373.634,388.24,392.455,388.24z M196.227,388.24c18.821,0,34.127,15.306,34.127,34.127
		c0,18.821-15.306,34.126-34.127,34.126S162.1,441.187,162.1,422.367C162.101,403.546,177.407,388.24,196.227,388.24z
		 M494.945,183.481h-59.832v-59.815l59.832-0.017V183.481z M358.328,336.982v-59.645h59.721v59.628L358.328,336.982z
		 M358.328,260.266v-59.721h59.721v59.721H358.328z M204.759,337.025v-59.696h59.721v59.679L204.759,337.025z M204.759,260.266
		v-59.721h59.721v59.721H204.759z M117.438,200.544h70.258v59.721H128.87L117.438,200.544z M418.05,183.481h-59.721V123.76h59.721
		V183.481z M341.265,183.481h-59.721v-59.773l59.721-0.017V183.481z M264.48,123.76v59.721h-59.721V123.76H264.48z M281.544,200.544
		h59.721v59.721h-59.721V200.544z M435.113,200.544h59.721v59.721h-59.721V200.544z M187.696,123.743v59.747H114.17l-11.432-59.721
		L187.696,123.743z M132.129,277.329h55.566v59.696l-44.134,0.017L132.129,277.329z M281.544,277.329h59.721v59.653l-59.721,0.017
		V277.329z M469.444,336.948l-34.331,0.009v-59.628h59.832v34.126C494.945,325.516,483.504,336.948,469.444,336.948z"/>
	<circle class="st1" cx="34.555" cy="72.998" r="34.555"/>
</g>
</svg>
