<?xml version="1.0" encoding="utf-8"?>
<!-- Generator: Adobe Illustrator 23.1.0, SVG Export Plug-In . SVG Version: 6.00 Build 0)  -->
<svg version="1.1" id="Layer_1" xmlns="http://www.w3.org/2000/svg" xmlns:xlink="http://www.w3.org/1999/xlink" x="0px" y="0px"
	 viewBox="0 0 512 512" style="enable-background:new 0 0 512 512;" xml:space="preserve">
<style type="text/css">
	.st0{fill:#898989;}
	.st1{fill:#F5838B;}
</style>
<g>
	<g id="_17-restaurant">
		<path class="st0" d="M507.091,32.817c-5.294-5.126-13.207-6.443-19.876-3.309L382.308,76.031
			c-0.602,0.273-1.181,0.586-1.783,0.859c-72.277-51.56-168.726-53.703-243.223-5.405L102.545,36.72
			c-3.768-3.801-8.887-5.958-14.239-5.999c-5.393-0.207-10.614,1.914-14.335,5.822c-7.821,7.949-7.739,20.727,0.185,28.574
			l60.962,60.962l-5.678,5.678L68.47,70.795c-7.847-7.923-20.626-7.998-28.566-0.169c-3.803,3.786-5.907,8.953-5.83,14.319
			c0.044,5.353,2.204,10.471,6.007,14.239l60.962,60.962l-5.678,5.686l-60.962-60.97c-7.851-7.919-20.629-7.994-28.574-0.169
			c-7.825,7.936-7.764,20.705,0.137,28.566l45.455,45.415c-27.163,73.825-12.178,156.573,39.15,216.183l-35.922,35.93
			c-5.592,5.498-8.972,12.856-9.501,20.679c-1.177,14.589,9.696,27.37,24.286,28.547c0.825,0.067,1.653,0.094,2.481,0.083
			c0.602,0,1.205,0,1.807-0.056c7.823-0.532,15.18-3.912,20.679-9.5l38.155-38.155c70.386,48.331,162.628,50.698,235.401,6.039
			l37.311,37.311c5.297,5.332,12.481,8.364,19.997,8.44h0.305c7.407,0.029,14.518-2.907,19.748-8.151
			c10.947-11.148,10.814-29.05-0.297-40.034l-33.055-33.055c70.611-74.037,79.71-187.413,21.812-271.764l72.398-72.398
			C513.569,51.846,513.978,40.248,507.091,32.817z M254.922,52.742c38.843-0.064,76.856,11.237,109.356,32.509
			c-12.678,7.278-24.526,15.914-35.336,25.755C281.624,86.36,225.139,86.899,178.3,112.443l-29.385-29.321
			C180.696,63.242,217.435,52.713,254.922,52.742z M17.209,116.049c0.708-0.802,1.753-1.222,2.819-1.132
			c1.143,0.022,2.232,0.489,3.036,1.301l66.656,66.656c3.186,3.013,8.17,3.013,11.356,0l17.033-17.041
			c3.135-3.136,3.135-8.22,0-11.356L51.452,87.821c-0.824-0.798-1.297-1.889-1.317-3.036c-0.012-1.046,0.392-2.055,1.124-2.803
			c0.761-0.718,1.765-1.122,2.811-1.132c1.145,0.021,2.237,0.488,3.044,1.301l66.656,66.656c3.134,3.138,8.219,3.141,11.357,0.006
			c0.002-0.002,0.004-0.004,0.006-0.006l16.993-17.05c3.135-3.136,3.135-8.22,0-11.356L85.471,53.746
			c-1.661-1.573-1.74-4.192-0.177-5.863c0.759-0.719,1.765-1.121,2.811-1.124c1.146,0.018,2.239,0.485,3.044,1.301l124.623,124.607
			c6.204,6.14,9.733,14.481,9.822,23.209c0.138,8.537-3.195,16.765-9.235,22.8c-3.135,3.136-3.135,8.22,0,11.356l10.44,10.488
			l11.356-11.356l-5.276-5.276c5.839-8.232,8.912-18.105,8.778-28.196c-0.123-12.932-5.341-25.294-14.52-34.404l-37.022-37.022
			c39.786-19.933,86.53-20.454,126.751-1.413c-24.968,26.508-42.072,59.438-49.398,95.109L141.96,343.459
			c-20.42-25.535-31.56-57.25-31.593-89.946c0.01-5.04,0.278-10.077,0.803-15.09l19.427,19.427
			c9.241,9.28,21.797,14.499,34.894,14.504c9.905,0.025,19.574-3.022,27.674-8.722l4.674,4.674l11.356-11.356l-9.87-9.862
			c-3.136-3.135-8.22-3.135-11.356,0c-12.881,12.512-33.454,12.254-46.017-0.578L17.369,121.912
			C15.717,120.332,15.646,117.717,17.209,116.049z M54.151,253.513c0.039-21.101,3.413-42.063,9.998-62.111l32.87,32.87
			c-8.658,46.355,3.615,94.167,33.529,130.622l-28.477,28.469C71.149,347.165,54.157,301.121,54.151,253.513z M254.922,454.285
			c-39.426,0.05-77.98-11.602-110.778-33.481l29.08-29.088c46.892,27.821,104.718,29.87,153.462,5.437l29.586,29.586
			C325.546,444.787,290.556,454.297,254.922,454.285z M433.946,464.669c-4.861,4.704-12.614,4.577-17.318-0.284
			c-0.002-0.002-0.003-0.003-0.005-0.005L269.53,317.286l-11.356,11.356l56.481,56.481c-41.605,18.923-89.716,17.013-129.69-5.148
			l196.451-196.443c30.261,54.621,21.923,122.514-20.655,168.19l-62.641-62.641l-11.356,11.356l146.901,146.909
			C438.515,452.057,438.641,459.803,433.946,464.669z M455.694,253.513c0.145,51.406-19.592,100.878-55.084,138.067l-28.493-28.502
			c48.837-51.948,57.405-129.944,21.009-191.255l29.088-29.088C444.097,175.531,455.749,214.087,455.694,253.513z M494.82,47.417
			L83.062,459.184c-4.743,5.637-13.125,6.444-18.856,1.815c-2.193-2.285-3.292-5.406-3.012-8.561
			c0.297-3.905,2.011-7.566,4.819-10.296L280.565,227.59c1.15-1.151,1.923-2.624,2.217-4.224
			c11.635-58.838,51.184-108.329,106.007-132.654L493.68,44.197c0.621-0.36,1.387-0.36,2.008,0
			C496.161,44.639,496.049,46.181,494.82,47.417z"/>
	</g>
	<g>
		<path class="st1" d="M184.965,379.975l321.21-321.202c7.393-6.927,7.802-18.525,0.916-25.956
			c-5.294-5.126-13.207-6.443-19.876-3.309L382.308,76.031c-0.602,0.273-1.181,0.586-1.783,0.859
			c-6.606,2.452-16.246,8.36-16.246,8.36c-12.678,7.278-24.526,15.914-35.336,25.755c-3.075,2.518-12.078,11.846-12.078,11.846
			c-24.968,26.508-42.072,59.438-49.398,95.109L141.96,343.459l-11.412,11.436l-28.477,28.469l-11.5,11.492l-35.922,35.93
			c-5.592,5.498-8.972,12.856-9.501,20.679c-1.177,14.589,9.696,27.37,24.286,28.547c0.825,0.067,1.653,0.094,2.481,0.083
			c0.602,0,1.205,0,1.807-0.056c7.823-0.532,15.18-3.912,20.679-9.5l38.155-38.155l11.589-11.581L184.965,379.975 M178.3,112.443
			l-29.385-29.321l-11.613-11.637L102.545,36.72c-3.768-3.801-8.887-5.958-14.239-5.999c-5.393-0.207-10.614,1.914-14.335,5.822
			c-7.821,7.949-7.739,20.727,0.185,28.574l60.962,60.962l-5.678,5.678L68.47,70.795c-7.847-7.923-20.626-7.998-28.566-0.169
			c-3.803,3.786-5.907,8.953-5.83,14.319c0.044,5.353,2.204,10.471,6.007,14.239l60.962,60.962l-5.678,5.686l-60.962-60.97
			c-7.851-7.919-20.629-7.994-28.574-0.169c-7.825,7.936-7.764,20.705,0.137,28.566l45.455,45.415l12.729,12.729l32.87,32.87
			l14.15,14.15l19.427,19.427c9.241,9.28,21.797,14.499,34.894,14.504c9.905,0.025,19.574-3.022,27.674-8.722l4.674,4.674
			l11.356-11.356l-9.87-9.862c-3.136-3.135-8.22-3.135-11.356,0c-12.881,12.512-33.454,12.254-46.017-0.578L17.369,121.912
			c-1.652-1.58-1.724-4.195-0.161-5.863c0.708-0.802,1.753-1.222,2.819-1.132c1.143,0.022,2.232,0.489,3.036,1.301l66.656,66.656
			c3.186,3.013,8.17,3.013,11.356,0l17.033-17.041c3.135-3.136,3.135-8.22,0-11.356L51.452,87.821
			c-0.824-0.798-1.297-1.889-1.317-3.036c-0.012-1.046,0.392-2.055,1.124-2.803c0.761-0.718,1.765-1.122,2.811-1.132
			c1.145,0.021,2.237,0.488,3.044,1.301l66.656,66.656c3.134,3.138,8.219,3.141,11.357,0.006c0.002-0.002,0.004-0.004,0.006-0.006
			l16.993-17.05c3.135-3.136,3.135-8.22,0-11.356L85.471,53.746c-1.661-1.573-1.74-4.192-0.177-5.863
			c0.759-0.719,1.765-1.121,2.811-1.124c1.146,0.018,2.239,0.485,3.044,1.301l124.623,124.607c6.204,6.14,9.733,14.481,9.822,23.209
			c0.138,8.537-3.195,16.765-9.235,22.8c-3.135,3.136-3.135,8.22,0,11.356l10.44,10.488l11.356-11.356l-5.276-5.276
			c5.839-8.232,8.912-18.105,8.778-28.196c-0.123-12.932-5.341-25.294-14.52-34.404l-37.022-37.022 M367.957,438.424l37.311,37.311
			c5.297,5.332,12.481,8.364,19.997,8.44h0.305c7.407,0.029,14.518-2.907,19.748-8.151c10.947-11.148,10.814-29.05-0.297-40.034
			L298.12,289.082l-11.356,11.356l146.901,146.909c4.85,4.711,4.976,12.457,0.281,17.323c-4.861,4.704-12.614,4.577-17.318-0.284
			c-0.002-0.002-0.003-0.003-0.005-0.005L269.53,317.286l-11.356,11.356l56.481,56.481L367.957,438.424z M494.82,47.417
			L83.062,459.184c-4.743,5.637-13.125,6.444-18.856,1.815c-2.193-2.285-3.292-5.406-3.012-8.561
			c0.297-3.905,2.011-7.566,4.819-10.296L280.565,227.59c1.15-1.151,1.923-2.624,2.217-4.224
			c11.635-58.838,51.184-108.329,106.007-132.654L493.68,44.197c0.621-0.36,1.387-0.36,2.008,0
			C496.161,44.639,496.049,46.181,494.82,47.417z"/>
	</g>
</g>
</svg>
