<?xml version="1.0" encoding="utf-8"?>
<!-- Generator: Adobe Illustrator 23.1.0, SVG Export Plug-In . SVG Version: 6.00 Build 0)  -->
<svg version="1.1" id="Layer_1" xmlns="http://www.w3.org/2000/svg" xmlns:xlink="http://www.w3.org/1999/xlink" x="0px" y="0px"
	 viewBox="0 0 512 512" style="enable-background:new 0 0 512 512;" xml:space="preserve">
<style type="text/css">
	.st0{fill:#008CDB;}
</style>
<g>
	<g>
		<g>
			<path class="st0" d="M255.909,512c-76.027,0-134.389-16.435-173.465-48.848c-33.548-27.827-52.888-67.106-57.486-116.748
				c-2.586-27.88-4.157-46.895-4.157-75.811c0-27.207,1.128-48.622,4.164-79.014c4.891-49.536,24.059-88.741,56.969-116.517
				c36.846-31.097,91.132-47.722,161.455-49.471v-0.476h127.368c77.325,0,104.748-15.555,105.003-15.712L491.034,0v98.938
				c-0.148,17.834-10.086,30.33-27.982,35.271c-16.962,4.579-46.688,10.018-92.293,10.018l-10.018-0.015
				c-19.684-0.012-64.08-0.016-90.154-0.016c-3.674,0-8.415,0.002-12.589,0.005v0.316h-10.018
				c-69.734,0-81.588,30.367-83.986,60.073c-2.038,24.968-3.072,42.029-3.072,66.004c0,23.991,1.11,38.758,3.072,62.793
				c1.616,20.226,8.424,34.643,20.815,44.093c13.653,10.412,34.316,15.473,63.172,15.473c11.114,0,19.268-0.021,20.29-0.052
				l0.16-0.005c27.101-0.528,46.528-5.809,59.393-16.144c11.739-9.431,18.207-23.581,19.771-43.259
				c1.976-24.321,2.857-39.168,2.857-62.901c0-25.863-1.047-43.967-2.857-66.499c-1.122-13.689-4.56-24.881-10.217-33.248
				l-10.567-15.63h118.974c18.867,0,35.575,14.308,40.628,34.793c5.459,22.13,4.998,41.331,4.511,61.659
				c-0.146,6.081-0.296,12.368-0.296,18.925c0,28.411-1.016,47.639-4.028,76.2c-5.132,49.583-24.584,88.733-57.814,116.37
				C389.821,495.569,331.657,512,255.909,512z M263.428,45.153v0.279l-9.968,0.049C124.711,46.121,54.544,95.942,44.905,193.56
				c-2.964,29.679-4.066,50.554-4.066,77.033c0,28.05,1.538,46.655,4.072,73.961c9.058,97.813,80.048,147.408,210.999,147.408
				c129.742,0,200.652-49.54,210.761-147.244l0.002-0.02c2.93-27.781,3.918-46.48,3.918-74.105c0-6.797,0.154-13.207,0.302-19.405
				c0.474-19.773,0.883-36.851-3.935-56.38c-2.84-11.513-11.547-19.555-21.174-19.555h-83.908
				c2.961,8.076,4.866,17.176,5.689,27.221c1.852,23.055,2.923,41.584,2.923,68.119c0,24.428-0.901,39.642-2.922,64.507
				c-4.066,51.141-36.352,76.606-98.708,77.83c-1.893,0.05-12.329,0.061-20.88,0.061c-65.76,0-99.766-25.511-103.959-77.991
				c-2.003-24.538-3.137-39.637-3.137-64.406c0-24.666,1.057-42.126,3.138-67.625c2.139-26.494,11.452-45.744,28.47-58.842
				c16.819-12.945,40.844-19.377,73.396-19.64c0.899-0.192,1.9-0.302,3.014-0.308l21.685-0.021l99.071,0.026
				c0.38,0.001,0.747,0.013,1.101,0.036v-0.03c43.409,0,71.28-5.063,87.016-9.311c9.302-2.568,13.148-7.215,13.222-16.025
				l-0.001-66.016c-16.614,5.419-48.017,12.315-100.238,12.315H263.428z"/>
		</g>
	</g>
</g>
</svg>
