<?xml version="1.0" encoding="utf-8"?>
<!-- Generator: Adobe Illustrator 23.1.0, SVG Export Plug-In . SVG Version: 6.00 Build 0)  -->
<svg version="1.1" id="Layer_1" xmlns="http://www.w3.org/2000/svg" xmlns:xlink="http://www.w3.org/1999/xlink" x="0px" y="0px"
	 viewBox="0 0 512 512" style="enable-background:new 0 0 512 512;" xml:space="preserve">
<style type="text/css">
	.st0{fill:#EDB96E;}
	.st1{fill:#898989;}
</style>
<g>
	<g>
		<g>
			<path class="st0" d="M291.054,243.841c1.51,2.722,4.514,4.294,7.62,4.294c1.297,0,2.628-0.276,3.866-0.857
				c0.503-0.236,50.731-23.753,75.503-30.965c4.489-1.313,6.98-5.734,5.555-9.87c-1.417-4.138-6.178-6.442-10.709-5.136
				c-26.095,7.606-75.981,30.965-78.097,31.956C290.593,235.229,288.921,239.965,291.054,243.841z"/>
			<path class="st0" d="M298.674,153.755c1.297,0,2.628-0.276,3.866-0.857c0.503-0.236,50.731-23.753,75.503-30.965
				c4.489-1.313,6.98-5.734,5.555-9.87c-1.417-4.138-6.178-6.442-10.709-5.136c-26.095,7.606-75.981,30.965-78.097,31.956
				c-4.198,1.966-5.871,6.701-3.738,10.578C292.564,152.181,295.568,153.755,298.674,153.755z"/>
			<path class="st1" d="M503.466,138.024c-4.719,0-8.533,3.524-8.533,7.865V452.63c0,13.009-11.486,23.596-25.6,23.596h-204.8
				v-18.098c12.442-4.011,44.851-13.363,76.8-13.363c74.334,0,124.809,15.172,125.312,15.329c2.568,0.786,5.436,0.394,7.68-1.086
				c2.227-1.478,3.541-3.854,3.541-6.379V106.563c0-3.689-2.773-6.882-6.682-7.677c0,0-6.69-1.376-18.125-3.312
				c-4.617-0.786-9.079,2.045-9.933,6.308c-0.853,4.279,2.21,8.376,6.844,9.163c4.361,0.739,8.013,1.392,10.829,1.912v329.22
				c-19.337-4.672-62.276-13.143-119.467-13.143c-37.18,0-73.702,11.255-85.001,15.07c-10.044-4.09-40.405-15.07-77.133-15.07
				c-58.778,0-107.196,8.935-128,13.473V112.65c17.041-3.862,67.371-13.953,128-13.953c31.113,0,57.796,8.927,68.267,12.962v309.51
				c0,2.831,1.655,5.451,4.326,6.843c2.671,1.4,5.965,1.36,8.602-0.102c0.845-0.464,85.393-47.01,160.435-70.063
				c3.49-1.077,5.837-4.074,5.837-7.464V27.911c0-2.58-1.374-4.995-3.678-6.465c-2.287-1.471-5.222-1.809-7.859-0.904
				c-68.275,23.603-137.36,63.228-138.052,63.621c-3.994,2.304-5.214,7.157-2.714,10.838c2.492,3.681,7.757,4.806,11.759,2.501
				c0.631-0.37,60.732-34.835,123.477-58.092v305.342c-58.249,18.656-119.066,49.118-145.067,62.756V106.563
				c0-2.981-1.826-5.703-4.719-7.039c-1.468-0.668-36.437-16.556-80.614-16.556c-77.107,0-136.388,15.377-138.88,16.037
				c-3.661,0.959-6.187,4.051-6.187,7.559v346.068c0,2.462,1.263,4.79,3.388,6.277c1.502,1.046,3.311,1.589,5.146,1.589
				c0.785,0,1.57-0.102,2.338-0.307c0.589-0.149,59.597-15.424,134.195-15.424c31.198,0,57.856,8.951,68.267,12.969v18.491h-204.8
				c-14.114,0-25.6-10.587-25.6-23.596V145.89c0-4.341-3.823-7.865-8.533-7.865S0,141.548,0,145.89v306.742
				c0,21.684,19.14,39.326,42.667,39.326h426.666c23.526,0,42.667-17.641,42.667-39.326V145.89
				C511.999,141.548,508.185,138.024,503.466,138.024z"/>
			<path class="st0" d="M291.054,196.65c1.51,2.722,4.514,4.294,7.62,4.294c1.297,0,2.628-0.276,3.866-0.857
				c0.503-0.236,50.731-23.753,75.503-30.965c4.489-1.313,6.98-5.734,5.555-9.87c-1.417-4.138-6.178-6.442-10.709-5.136
				c-26.095,7.606-75.981,30.965-78.097,31.956C290.593,188.038,288.921,192.774,291.054,196.65z"/>
			<path class="st0" d="M291.054,291.032c1.51,2.722,4.514,4.294,7.62,4.294c1.297,0,2.628-0.276,3.866-0.857
				c0.503-0.236,50.731-23.753,75.503-30.965c4.489-1.313,6.98-5.734,5.555-9.87c-1.417-4.138-6.178-6.442-10.709-5.136
				c-26.095,7.606-75.981,30.965-78.097,31.956C290.593,282.42,288.921,287.156,291.054,291.032z"/>
			<path class="st0" d="M206.746,166.008c-52.693-11.397-112.572,3.123-115.089,3.744c-4.548,1.124-7.253,5.434-6.033,9.635
				c1.024,3.515,4.471,5.828,8.235,5.828c0.734,0,1.476-0.087,2.219-0.267c0.572-0.149,58.223-14.126,106.778-3.626
				c4.565,0.983,9.182-1.636,10.257-5.868C214.187,171.231,211.337,166.999,206.746,166.008z"/>
			<path class="st0" d="M206.746,213.2c-52.693-11.389-112.572,3.123-115.089,3.744c-4.548,1.124-7.253,5.435-6.033,9.635
				c1.024,3.515,4.471,5.828,8.235,5.828c0.734,0,1.476-0.087,2.219-0.267c0.572-0.149,58.223-14.126,106.778-3.626
				c4.565,0.983,9.182-1.636,10.257-5.868C214.187,218.422,211.337,214.19,206.746,213.2z"/>
			<path class="st0" d="M291.054,338.223c1.51,2.722,4.514,4.294,7.62,4.294c1.297,0,2.628-0.276,3.866-0.857
				c0.503-0.236,50.731-23.753,75.503-30.965c4.489-1.313,6.98-5.734,5.555-9.87c-1.417-4.137-6.178-6.442-10.709-5.136
				c-26.095,7.606-75.981,30.965-78.097,31.956C290.593,329.611,288.921,334.347,291.054,338.223z"/>
			<path class="st0" d="M206.746,260.391c-52.693-11.389-112.572,3.114-115.089,3.744c-4.548,1.124-7.253,5.435-6.033,9.635
				c1.024,3.515,4.471,5.836,8.235,5.836c0.734,0,1.476-0.094,2.219-0.276c0.572-0.149,58.223-14.126,106.778-3.626
				c4.565,0.983,9.182-1.636,10.257-5.868C214.187,265.613,211.337,261.381,206.746,260.391z"/>
			<path class="st0" d="M206.746,354.773c-52.693-11.397-112.572,3.123-115.089,3.744c-4.548,1.124-7.253,5.435-6.033,9.635
				c1.024,3.515,4.471,5.836,8.235,5.836c0.734,0,1.476-0.094,2.219-0.276c0.572-0.149,58.223-14.126,106.778-3.626
				c4.565,0.975,9.182-1.636,10.257-5.868C214.187,359.995,211.337,355.763,206.746,354.773z"/>
			<path class="st0" d="M206.746,307.582c-52.693-11.397-112.572,3.114-115.089,3.744c-4.548,1.124-7.253,5.435-6.033,9.635
				c1.024,3.515,4.471,5.836,8.235,5.836c0.734,0,1.476-0.094,2.219-0.276c0.572-0.149,58.223-14.126,106.778-3.626
				c4.565,0.983,9.182-1.636,10.257-5.868C214.187,312.804,211.337,308.572,206.746,307.582z"/>
		</g>
	</g>
</g>
</svg>
