<?xml version="1.0" encoding="utf-8"?>
<!-- Generator: Adobe Illustrator 23.1.0, SVG Export Plug-In . SVG Version: 6.00 Build 0)  -->
<svg version="1.1" id="Layer_1" xmlns="http://www.w3.org/2000/svg" xmlns:xlink="http://www.w3.org/1999/xlink" x="0px" y="0px"
	 viewBox="0 0 512 512" style="enable-background:new 0 0 512 512;" xml:space="preserve">
<style type="text/css">
	.st0{fill:#898989;}
	.st1{fill:#9AD3A0;}
</style>
<g>
	<path class="st0" d="M507.586,232.824L255.985-0.802L4.393,232.824c-3.544,3.298-3.755,8.851-0.456,12.404
		c3.281,3.544,8.851,3.746,12.395,0.456l29.116-27.036v292.55h140.358h140.358h140.358V218.639l29.116,27.036
		c1.684,1.57,3.834,2.342,5.974,2.342c2.36,0,4.702-0.939,6.421-2.798C511.34,241.675,511.13,236.122,507.586,232.824z
		 M203.351,493.653V353.295c0-29.028,23.606-52.634,52.634-52.634s52.634,23.606,52.634,52.634v140.358H203.351z M448.978,493.653
		H326.164V353.295c0-38.695-31.484-70.179-70.179-70.179s-70.179,31.484-70.179,70.179v140.358H62.993V202.349L255.985,23.138
		l192.992,179.211v291.304H448.978z"/>
	<path class="st1" d="M203.355,493.653V353.295c0-29.028,23.606-52.634,52.634-52.634s52.634,23.606,52.634,52.634v140.358H203.355z
		 M326.168,493.653V353.295c0-38.695-31.484-70.179-70.179-70.179S185.81,314.6,185.81,353.295v140.358h17.545"/>
</g>
</svg>
