<?xml version="1.0" encoding="utf-8"?>
<!-- Generator: Adobe Illustrator 23.1.0, SVG Export Plug-In . SVG Version: 6.00 Build 0)  -->
<svg version="1.1" id="Layer_1" xmlns="http://www.w3.org/2000/svg" xmlns:xlink="http://www.w3.org/1999/xlink" x="0px" y="0px"
	 viewBox="0 0 512 512" style="enable-background:new 0 0 512 512;" xml:space="preserve">
<style type="text/css">
	.st0{fill:#F5838B;}
	.st1{fill:#898989;}
</style>
<g>
	<g>
		<path class="st0" d="M122.87,178.616c-7.207-0.314-16.441,0.389-27.726,2.101c-11.272,1.739-22.16,5.644-32.649,11.751
			c-10.507,6.11-19.58,15.201-27.256,27.256C27.572,231.78,23.73,248.14,23.73,268.822c0,15.969,2.356,29.355,7.054,40.158
			c4.699,10.803,11.111,19.428,19.252,25.851c8.142,6.412,17.538,10.803,28.192,13.147c10.65,2.356,21.927,3.06,33.836,2.108
			c10.027-0.93,19.419-2.972,28.192-6.108c8.764-3.136,17.538-8.142,26.306-15.028c3.121,6.574,6.887,11.904,11.282,15.969
			c4.379,4.077,9.7,6.119,15.966,6.119c3.136,0,6.499-0.952,10.098-2.822c3.609-1.881,6.983-4.39,10.107-7.526
			c3.13-3.125,5.554-6.488,7.287-10.107c1.721-3.602,2.413-7.117,2.119-10.566l-0.484-0.93c-2.514-11.276-4.223-20.91-5.178-28.9
			c-0.93-7.988-1.402-16.683-1.402-26.078c0-5.948,0-12.36,0-19.257c0-7.201,0.156-13.938,0.47-20.207
			c0.308-4.077,0.466-7.99,0.466-11.742c0-4.066,0-7.829,0-11.276v-3.752c0-4.702-0.066-10.564-0.224-17.633
			c-0.176-7.04-1.178-14.327-3.064-21.84c-1.881-7.515-4.789-14.868-8.687-22.088c-3.919-7.201-9.478-13.623-16.674-19.266
			c-7.21-5.634-16.373-10.109-27.484-13.386c-11.129-3.288-24.682-4.456-40.646-3.515c-10.973,0.627-21.314,2.26-31.014,4.932
			c-9.704,2.649-18.483,6.251-26.3,10.792c-7.842,4.55-14.417,9.882-19.741,15.98c-5.33,6.108-8.774,12.92-10.331,20.435
			c0.305,4.39,0.778,6.887,1.411,7.526c1.567,3.438,3.444,7.21,5.634,11.276c2.2,4.066,5.178,6.099,8.931,6.099h0.464
			c1.892,0.305,4.546,0.4,7.99,0.228c3.453-0.152,6.275-0.864,8.465-2.108c1.244-0.627,2.488-1.492,3.752-2.583
			c1.244-1.093,2.499-2.128,3.767-3.058c3.754-3.134,8.83-6.574,15.263-10.326c6.412-3.763,16.672-6.11,30.781-7.06
			c8.764-0.314,15.885,0.466,21.382,2.347c5.467,1.881,9.7,4.466,12.689,7.752c2.978,3.288,5.001,6.974,6.099,11.039
			c1.088,4.066,1.644,7.988,1.644,11.742c-4.385-1.567-9.629-2.888-15.727-3.99C139.542,180.099,131.948,179.244,122.87,178.616z
			 M160.927,240.16c0.622,1.578,1.088,3.524,1.42,5.882c0.299,2.336,0.466,4.932,0.466,7.752c0,5.007-0.642,10.403-1.886,16.217
			c-1.255,5.794-3.919,11.353-7.99,16.672c-5.339,4.077-11.353,7.515-18.094,10.328c-6.741,2.822-14.483,4.238-23.251,4.238
			c-11.282,0-20.127-3.058-26.539-9.168c-6.427-6.099-9.638-14.327-9.638-24.662c0-10.65,4.855-19.969,14.573-27.959
			c9.709-7.981,22.393-11.97,38.059-11.97c6.583,0,12.597,1.255,18.083,3.752C151.607,233.747,156.529,236.72,160.927,240.16z"/>
		<path class="st1" d="M245.542,235.723c1.881,1.255,3.657,2.11,5.344,2.613c1.402,1.71,3.196,2.84,5.378,3.42
			c2.189,0.561,4.422,0.705,6.761,0.382c2.288-0.323,4.578-1.046,6.876-2.214c2.271-1.13,4.086-2.633,5.455-4.456
			c3.402,6.955,8.095,12.663,14.1,17.11c6.003,4.445,13.518,8.691,22.543,12.748c11.524,5.159,23.248,7.715,35.208,7.658
			c11.962-0.046,23.361-2.336,34.21-6.831c10.812-4.504,20.71-11.096,29.642-19.855c8.948-8.731,16.083-19.086,21.449-31.058
			l3.952-8.807c5.471-12.181,8.342-24.196,8.627-36.015c0.266-11.801-1.578-22.793-5.548-32.986
			c-3.961-10.205-9.918-19.162-17.822-26.924c-7.922-7.744-17.272-13.5-28.064-17.263c-7.526-2.574-14.973-3.8-22.327-3.713
			c-7.374,0.105-13.575,0.627-18.639,1.626c0.996-2.831,2.09-5.577,3.306-8.295c1.216-2.708,2.481-5.521,3.809-8.465L370.13,51.36
			c1.824-4.066,4.047-8.55,6.66-13.481c2.613-4.923,4.862-8.873,6.735-11.817c1.035-1.701,2.281-3.592,3.754-5.644
			c0.35-2.015-0.068-4.246-1.282-6.689c-1.216-2.431-2.508-4.227-3.877-5.405c-2.081-1.994-4.932-3.829-8.539-5.444
			c-3.611-1.615-7.533-2.574-11.742-2.831c-4.229-0.257-8.465,0.55-12.692,2.442c-4.266,1.892-7.801,5.444-10.689,10.669
			c-1.767,2.736-4.502,7.742-8.15,15.048c-3.697,7.297-7.847,15.808-12.465,25.517c-4.644,9.72-9.557,20.218-14.723,31.447
			c-5.189,11.249-10.195,22.288-15.059,33.109c-2.024,4.543-4.589,9.948-7.704,16.294c-3.115,6.337-6.469,12.9-10.052,19.703
			c-4.009,7.704-7.904,15.362-11.742,22.991c-3.838,7.647-7.069,14.393-9.704,20.273c-1.216,2.708-2.209,5.034-2.95,7.021
			c-0.741,1.976-1.411,3.913-1.994,5.814c-2.46,4.864-3.8,8.948-4.066,12.217c-0.242,3.288,0.176,5.985,1.253,8.104
			C242.179,232.797,243.647,234.479,245.542,235.723z M317.915,165.069l0.921-2.044c2.328-5.178,4.845-9.889,7.533-14.116
			c2.715-4.2,5.644-8.313,8.797-12.342c7.59-3.611,15.012-6.078,22.204-7.315c7.21-1.244,14.089-0.409,20.633,2.537
			c7.24,3.231,13.017,8.286,17.424,15.134c4.398,6.849,5.244,15.362,2.574,25.565c0.371,0.969,0.418,2.499,0.191,4.541
			c-0.257,2.062-0.73,4.361-1.453,6.878c-0.714,2.547-1.701,5.159-2.908,7.847c-1.226,2.715-2.336,5.205-3.354,7.456
			c-6.421,13.12-15.21,22.27-26.335,27.438c-11.133,5.178-22.459,5.198-33.981,0.029c-5.882-2.66-10.384-6.632-13.538-11.981
			c-3.172-5.348-6.08-10.803-8.752-16.34l-0.182-0.475C309.327,187.518,312.767,176.574,317.915,165.069z"/>
		<path class="st1" d="M400.33,352.016c-10.328,2.831-20.132,7.42-29.421,13.823c-9.274,6.403-17.263,14.441-23.98,24.103
			c-6.689,9.643-11.41,19.618-14.08,29.935c-2.679,10.317-3.343,20.435-1.948,30.324c1.339,9.9,4.741,19.237,10.175,28.009
			c5.405,8.777,12.968,16.274,22.736,22.514c6.051,3.895,12.672,6.803,19.864,8.702c7.221,1.91,14.193,2.747,20.995,2.547
			c6.783-0.228,12.845-1.624,18.164-4.218c5.321-2.583,9.15-6.442,11.478-11.513c1.358-2.803,1.787-5.921,1.292-9.329
			c-0.514-3.44-2.203-6.271-5.111-8.541c-1.539-1.196-3.106-1.939-4.684-2.224c-1.585-0.257-3.981-0.266-7.21-0.029
			c-5.53,0.361-11.326,0.182-17.376-0.532c-6.053-0.73-11.012-2.336-14.868-4.787c-4.921-3.581-8.691-7.761-11.305-12.54
			c-2.613-4.798-4.086-9.948-4.445-15.485c-0.4-5.53,0.426-11.249,2.413-17.131c1.976-5.899,5.187-11.665,9.594-17.327
			c3.743-4.789,8.17-9.131,13.272-13.006c5.082-3.875,10.287-6.801,15.512-8.759c5.264-1.965,10.364-2.936,15.333-2.936
			c4.941,0.018,9.311,1.482,13.072,4.427c3.431,2.669,5.664,6.078,6.717,10.212c1.055,4.123,1.644,8.579,1.758,13.377
			c-1.349,2.802-1.235,5.642,0.361,8.539c1.594,2.899,3.42,5.159,5.5,6.774c0.673,0.532,2.203,1.035,4.568,1.51
			c2.394,0.484,5.036,0.694,7.99,0.637c2.926-0.046,5.814-0.475,8.663-1.292c2.842-0.798,5.207-2.26,7.117-4.361
			c3.315-3.486,5.187-8.018,5.662-13.575c0.486-5.557-0.343-11.371-2.488-17.463c-2.167-6.088-5.434-12.026-9.882-17.831
			c-4.436-5.805-9.823-10.794-16.226-14.962c-8.588-5.607-18.031-8.97-28.293-10.109C420.983,348.36,410.658,349.194,400.33,352.016
			z"/>
		<path class="st1" d="M260.096,350.334c-0.464-0.055-0.987-0.075-1.558-0.075c-1.739,0-3.48,0-5.222,0
			c-1.743,0-3.396,0.198-4.963,0.598c-1.567,0.409-2.956,1.16-4.17,2.26c-1.216,1.103-2.18,2.765-2.86,4.959
			c-0.583,0.921-1.027,1.71-1.315,2.356c-0.29,0.627-0.323,1.539-0.084,2.679c0.688,2.792,1.875,4.675,3.567,5.662
			c1.671,0.998,3.737,1.484,6.17,1.484c1.624,0,3.187,0,4.699,0c1.615,0,3.24-0.057,4.864-0.172
			c1.624-0.114,3.191-0.198,4.693-0.257c1.501-0.048,3.079-0.086,4.693-0.086h2.433v9.748c0,0.341,0,0.805,0,1.376
			c0,0.475-0.048,0.998-0.172,1.567c-0.114,0.932-0.207,1.89-0.266,2.868c-0.057,0.989-0.077,2.11-0.077,3.394
			c0,3.125,0.486,5.976,1.464,8.53c0.987,2.556,3.049,4.123,6.176,4.693c3.372,0.352,6.326-0.437,8.873-2.356
			c2.556-1.908,3.829-4.607,3.829-8.093c0-2.092-0.029-4.2-0.077-6.346c-0.066-2.147-0.161-4.2-0.266-6.176
			c-0.114-1.626-0.182-3.125-0.182-4.523c0-1.387,0-2.84,0-4.35h13.918c1.976,0,3.706-0.057,5.227-0.182
			c1.49-0.105,2.888-0.437,4.161-0.95c1.282-0.532,2.431-1.398,3.486-2.613c1.044-1.216,2.024-2.928,2.954-5.121l0.182-0.182
			c0.921-1.626,1.396-3.192,1.396-4.693c0-1.046-0.237-1.948-0.703-2.71c-0.466-0.749-1.035-1.33-1.739-1.737
			c-0.703-0.409-1.444-0.723-2.26-0.96c-0.816-0.228-1.558-0.409-2.259-0.521c-0.932-0.114-1.948-0.191-3.04-0.257
			c-1.103-0.057-2.356-0.086-3.743-0.086c-1.864,0-3.82,0.029-5.91,0.086c-2.092,0.066-4.124,0.15-6.08,0.257
			c-0.941,0.123-1.862,0.171-2.792,0.171c-0.798,0-1.635,0-2.431,0c0.105-0.921,0.141-1.262,0.095-1.035
			c-0.077,0.229-0.095-0.114-0.095-1.044v-10.08c0-0.227,0.018-0.598,0.095-1.119c0.046-0.534,0.075-0.96,0.075-1.312
			c0.114-1.501,0.152-3.181,0.086-5.034c-0.057-1.864-0.294-3.602-0.694-5.227s-1.141-2.983-2.178-4.086
			c-1.033-1.103-2.556-1.644-4.521-1.644c-0.941-0.361-2.178-0.58-3.743-0.703c-1.56-0.114-2.699-0.114-3.394,0
			c-2.07,0.35-3.477,1.255-4.168,2.697c-0.694,1.464-1.112,2.926-1.226,4.447c-0.106,0.921-0.209,1.937-0.268,3.04
			c-0.057,1.103-0.075,2.356-0.075,3.743c0,1.862,0.039,3.818,0.075,5.91c0.057,2.081,0.161,4.113,0.268,6.078
			c0,0.589,0.029,1.455,0.095,2.624c0.057,1.16,0.095,2.024,0.095,2.603h-9.748C261.029,350.42,260.562,350.402,260.096,350.334z"/>
	</g>
</g>
</svg>
