<?xml version="1.0" encoding="utf-8"?>
<!-- Generator: Adobe Illustrator 23.1.0, SVG Export Plug-In . SVG Version: 6.00 Build 0)  -->
<svg version="1.1" id="Layer_1" xmlns="http://www.w3.org/2000/svg" xmlns:xlink="http://www.w3.org/1999/xlink" x="0px" y="0px"
	 viewBox="0 0 512 512" style="enable-background:new 0 0 512 512;" xml:space="preserve">
<style type="text/css">
	.st0{fill:#898989;}
	.st1{fill:#008CDB;}
</style>
<g id="outline">
	<circle class="st0" cx="256" cy="268.742" r="12.797"/>
	<path class="st1" d="M363.552,362.589c-30.627,0-55.455,24.828-55.455,55.455s24.828,55.455,55.455,55.455
		s55.455-24.828,55.455-55.455C418.972,387.431,394.164,362.624,363.552,362.589z M326.191,426.575h12.449
		c0.554,7.966,1.884,15.86,3.97,23.568C334.295,444.705,328.411,436.258,326.191,426.575z M338.639,409.512h-12.449
		c2.221-9.684,8.107-18.131,16.423-23.568C340.526,393.652,339.195,401.545,338.639,409.512z M364.579,456.329
		c-0.35,0.01-0.675,0.107-1.027,0.107c-0.352,0-0.676-0.094-1.024-0.107c-3.691-9.538-5.987-19.56-6.817-29.754h15.686
		C370.567,436.769,368.27,446.79,364.579,456.329z M355.712,409.512c0.83-10.194,3.126-20.215,6.818-29.754
		c0.348-0.01,0.673-0.107,1.024-0.107c0.351,0,0.677,0.094,1.027,0.107c3.69,9.539,5.987,19.56,6.818,29.754H355.712z
		 M384.494,450.143c2.087-7.708,3.418-15.602,3.972-23.568h12.447c-2.221,9.684-8.106,18.13-16.421,23.568H384.494z
		 M388.466,409.512c-0.554-7.967-1.885-15.86-3.972-23.568c8.316,5.437,14.202,13.884,16.423,23.568H388.466z"/>
	<path class="st0" d="M477.819,212.546H460.66c-0.186-6.97-3.258-13.549-8.482-18.166C451.179,87.033,363.579,0,256,0
		C151.813-0.146,65.775,81.357,60.284,185.399c-5.49,4.655-8.749,11.421-8.966,18.616H34.181
		c-18.838,0.021-34.105,15.288-34.126,34.126v68.993c0.021,18.838,15.287,34.105,34.126,34.126h17.063
		c0.016,14.129,11.466,25.579,25.594,25.594h8.531v59.72c0,3.414,2.035,6.5,5.174,7.844l38.054,16.297l-3.839,9.098
		c-1.836,4.333,0.188,9.334,4.521,11.17c0.005,0.002,0.01,0.004,0.015,0.006l47.148,19.925c3.141,1.335,6.518,2.022,9.931,2.021
		c14.135,0.007,25.6-11.446,25.607-25.582c0.005-10.283-6.145-19.571-15.614-23.581l-47.148-19.93
		c-4.335-1.835-9.336,0.191-11.172,4.525c-0.002,0.004-0.003,0.007-0.005,0.011l-2.797,6.618l-32.813-14.051v-54.093h8.532
		c14.129-0.016,25.579-11.466,25.594-25.594V204.756c-0.009-6.996-2.896-13.681-7.982-18.485
		c5.366-70.402,66.788-123.125,137.191-117.759c66.068,5.036,117.34,59.715,118.119,125.97c-5.368,4.777-8.44,11.619-8.446,18.805
		v111.748c-15.251-2.084-30.782-0.272-45.144,5.265l-55.561-11.11c-4.62-0.924-9.115,2.072-10.039,6.692
		c-0.221,1.105-0.221,2.243,0,3.347l11.11,55.561c-18.408,48.456,5.951,102.659,54.407,121.066
		c48.456,18.408,102.659-5.951,121.066-54.407c9.76-25.692,7.768-54.37-5.449-78.466c9.075-4.156,14.902-13.212,14.926-23.193
		h17.063c18.838-0.021,34.105-15.288,34.126-34.126v-68.993C511.924,227.834,496.657,212.568,477.819,212.546z M51.244,324.197
		H34.181c-9.42-0.009-17.054-7.643-17.063-17.063v-68.993c0.009-9.42,7.643-17.054,17.063-17.063h17.063V324.197z M150.431,442.88
		l39.292,16.609c4.366,1.771,6.47,6.747,4.698,11.113c-1.771,4.366-6.747,6.47-11.113,4.698c-0.077-0.031-0.154-0.064-0.23-0.097
		l-39.288-16.605L150.431,442.88z M119.496,341.26c-0.006,4.709-3.822,8.525-8.531,8.531H76.839
		c-4.709-0.006-8.525-3.822-8.531-8.531V204.756c0.006-4.709,3.822-8.525,8.531-8.532h34.126c4.709,0.006,8.525,3.822,8.531,8.532
		V341.26z M358.599,93.605c-56.657-56.597-148.468-56.548-205.064,0.109c-23.031,23.056-37.624,53.197-41.426,85.563
		c-0.387-0.017-0.746-0.115-1.144-0.115H77.87C86.401,87.198,163.642,16.909,256,17.063c95.912,0,174.231,75.812,178.735,170.63
		h-33.699c-0.14,0-0.272,0.052-0.413,0.054C398.69,152.261,383.725,118.737,358.599,93.605z M363.552,494.827
		c-42.388,0.018-76.765-34.329-76.783-76.717c-0.004-10.044,1.963-19.991,5.79-29.277c0.643-1.558,0.808-3.272,0.476-4.924
		l-9.094-45.477l45.478,9.094c1.652,0.332,3.366,0.167,4.924-0.475c39.212-16.135,84.08,2.573,100.215,41.785
		s-2.573,84.08-41.785,100.215C383.503,492.865,373.576,494.828,363.552,494.827z M443.693,221.078v128.714
		c-0.028,4.445-3.483,8.114-7.918,8.408c-11.358-13.685-26.361-23.872-43.271-29.381v-115.53c0.021-4.703,3.828-8.51,8.531-8.531
		h34.126c4.703,0.022,8.509,3.829,8.531,8.531V221.078z M494.882,315.666c-0.009,9.42-7.643,17.054-17.063,17.063h-17.063V229.609
		h17.063c9.42,0.009,17.054,7.643,17.063,17.063V315.666z"/>
	<circle class="st0" cx="302.923" cy="268.742" r="12.797"/>
	<circle class="st0" cx="209.077" cy="268.742" r="12.797"/>
</g>
</svg>
