<?xml version="1.0" encoding="utf-8"?>
<!-- Generator: Adobe Illustrator 23.1.0, SVG Export Plug-In . SVG Version: 6.00 Build 0)  -->
<svg version="1.1" id="Layer_1" xmlns="http://www.w3.org/2000/svg" xmlns:xlink="http://www.w3.org/1999/xlink" x="0px" y="0px"
	 viewBox="0 0 512 512" style="enable-background:new 0 0 512 512;" xml:space="preserve">
<style type="text/css">
	.st0{fill:#898989;}
	.st1{fill:#F5838B;}
</style>
<g>
	<path class="st0" d="M256,126c-5.52,0-10,4.48-10,10s4.48,10,10,10c5.52,0,10-4.48,10-10S261.52,126,256,126z"/>
	<path class="st1" d="M90,306c5.52,0,10-4.48,10-10s-4.48-10-10-10s-10,4.48-10,10S84.48,306,90,306z"/>
	<path class="st0" d="M336,26c-90.027,0-163.918,62.07-169.633,140.254C80.629,170.555,0,232.379,0,316
		c0,34.945,13.828,68.805,39,95.633c4.98,20.531-1.066,42.293-16.07,57.297c-2.859,2.859-3.715,7.16-2.168,10.898
		C22.309,483.563,25.953,486,30,486c28.52,0,56.004-11.184,76.426-30.891C126.32,461.891,152.277,466,176,466
		c90.016,0,163.898-62.055,169.629-140.223c20.938-0.93,42.715-4.797,59.945-10.668C425.996,334.816,453.48,346,482,346
		c4.047,0,7.691-2.438,9.238-6.172c1.547-3.738,0.691-8.039-2.168-10.898c-15.004-15.004-21.051-36.766-16.07-57.297
		c25.172-26.828,39-60.688,39-95.633C512,89.113,425.16,26,336,26z M176,446c-23.602,0-50.496-4.633-68.512-11.801
		c-3.859-1.539-8.27-0.527-11.078,2.539c-12.074,13.199-27.773,22.402-44.879,26.633c9.426-18.059,11.832-39.348,6.098-59.52
		c-0.453-1.59-1.293-3.043-2.445-4.227C32.496,376.258,20,346.559,20,316c0-70.469,71.438-130,156-130c79.852,0,150,55.527,150,130
		C326,387.684,258.711,446,176,446z M456.816,259.625c-1.152,1.188-1.992,2.641-2.445,4.227c-5.734,20.172-3.328,41.461,6.098,59.52
		c-17.105-4.227-32.805-13.434-44.879-26.633c-2.809-3.063-7.219-4.078-11.078-2.539c-15.613,6.211-37.887,10.512-58.914,11.551
		c-2.922-37.816-21.785-73.359-54.035-99.75H422c5.523,0,10-4.477,10-10s-4.477-10-10-10H260.84
		c-22.699-11.555-48.188-18.293-74.422-19.707C192.164,99.129,257.059,46,336,46c84.563,0,156,59.531,156,130
		C492,206.559,479.504,236.258,456.816,259.625z"/>
	<path class="st1" d="M176,446c-23.602,0-50.496-4.633-68.512-11.801c-3.859-1.539-8.27-0.527-11.078,2.539
		c-12.074,13.199-27.773,22.402-44.879,26.633c9.426-18.059,11.832-39.348,6.098-59.52c-0.453-1.59-1.293-3.043-2.445-4.227
		C32.496,376.258,20,346.559,20,316c0-70.469,71.438-130,156-130c79.852,0,150,55.527,150,130C326,387.684,258.711,446,176,446z
		 M260.84,186c-22.699-11.555-48.188-18.293-74.422-19.707c-12.053-0.6-20.051-0.039-20.051-0.039C80.629,170.555,0,232.379,0,316
		c0,34.945,13.828,68.805,39,95.633c4.98,20.531-1.066,42.293-16.07,57.297c-2.859,2.859-3.715,7.16-2.168,10.898
		C22.309,483.563,25.953,486,30,486c28.52,0,56.004-11.184,76.426-30.891C126.32,461.891,152.277,466,176,466
		c90.016,0,163.898-62.055,169.629-140.223c0.564-5.32-0.031-20.027-0.031-20.027c-2.922-37.816-21.785-73.359-54.035-99.75
		C278.049,194.98,260.84,186,260.84,186z"/>
	<path class="st1" d="M256,286H130c-5.523,0-10,4.477-10,10s4.477,10,10,10h126c5.523,0,10-4.477,10-10S261.523,286,256,286z"/>
	<path class="st1" d="M256,346H90c-5.523,0-10,4.477-10,10s4.477,10,10,10h166c5.523,0,10-4.477,10-10S261.523,346,256,346z"/>
	<path class="st0" d="M422,126H296c-5.523,0-10,4.477-10,10s4.477,10,10,10h126c5.523,0,10-4.477,10-10S427.523,126,422,126z"/>
</g>
</svg>
