<?xml version="1.0" encoding="utf-8"?>
<!-- Generator: Adobe Illustrator 23.1.0, SVG Export Plug-In . SVG Version: 6.00 Build 0)  -->
<svg version="1.1" id="Layer_1" xmlns="http://www.w3.org/2000/svg" xmlns:xlink="http://www.w3.org/1999/xlink" x="0px" y="0px"
	 viewBox="0 0 512 512" style="enable-background:new 0 0 512 512;" xml:space="preserve">
<style type="text/css">
	.st0{fill:#008CDB;}
	.st1{fill:#898989;}
</style>
<g>
	<g>
		<path class="st0" d="M64.411,174.046c-1.777,0-3.527-0.533-5.016-1.55c-1.947-1.33-3.287-3.38-3.723-5.697l-15.09-80.154
			c-0.908-4.826,2.267-9.475,7.094-10.384l175.471-33.034c2.317-0.437,4.713,0.066,6.661,1.396c1.947,1.33,3.286,3.38,3.723,5.697
			l15.09,80.154c0.908,4.826-2.267,9.475-7.094,10.384L66.056,173.893C65.51,173.996,64.959,174.046,64.411,174.046z M59.705,92.094
			l11.8,62.676l157.994-29.744l-11.8-62.676L59.705,92.094z"/>
	</g>
	<g>
		<path class="st0" d="M172.128,263.684c-4.193,0-7.925-2.978-8.729-7.249L117.101,10.539c-0.909-4.826,2.267-9.476,7.094-10.384
			c4.825-0.909,9.475,2.267,10.384,7.094l46.298,245.895c0.909,4.826-2.267,9.475-7.094,10.384
			C173.227,263.633,172.674,263.684,172.128,263.684z"/>
	</g>
	<g>
		<path class="st1" d="M409.559,318.524c-0.96,0-1.935-0.156-2.893-0.486L255.72,266.111c-2.23-0.767-4.064-2.389-5.099-4.508
			c-1.034-2.119-1.185-4.563-0.417-6.793l53.121-154.415c1.597-4.644,6.656-7.114,11.302-5.516l150.946,51.928
			c2.23,0.767,4.064,2.389,5.099,4.508c1.034,2.119,1.185,4.563,0.417,6.793l-53.121,154.415
			C416.7,316.208,413.25,318.524,409.559,318.524z M269.914,252.186l134.128,46.142l47.336-137.598L317.25,114.588L269.914,252.186z
			"/>
	</g>
	<g>
		<path class="st1" d="M417.972,187.534c-0.96,0-1.935-0.157-2.894-0.486l-85.402-29.381c-4.644-1.598-7.114-6.658-5.516-11.301
			c1.597-4.644,6.655-7.114,11.302-5.516l85.402,29.381c4.644,1.598,7.114,6.658,5.516,11.301
			C425.112,185.217,421.663,187.534,417.972,187.534z"/>
	</g>
	<g>
		<path class="st1" d="M404.841,225.704c-0.96,0-1.935-0.157-2.893-0.486l-85.402-29.38c-4.644-1.597-7.114-6.658-5.516-11.301
			c1.597-4.644,6.656-7.115,11.302-5.516l85.402,29.38c4.644,1.597,7.114,6.658,5.516,11.302
			C411.981,223.387,408.532,225.704,404.841,225.704z"/>
	</g>
	<g>
		<path class="st1" d="M387.83,275.153c-0.96,0-1.935-0.157-2.894-0.486l-85.402-29.381c-4.644-1.598-7.114-6.658-5.516-11.302
			c1.597-4.644,6.655-7.114,11.302-5.516l85.402,29.381c4.644,1.598,7.114,6.658,5.516,11.302
			C394.971,272.837,391.521,275.153,387.83,275.153z"/>
	</g>
	<g>
		<path class="st1" d="M345.427,259.596c-0.96,0-1.935-0.157-2.893-0.486c-4.644-1.597-7.114-6.658-5.516-11.301l28.949-84.151
			c1.597-4.644,6.657-7.114,11.302-5.516c4.644,1.597,7.114,6.658,5.516,11.301l-28.949,84.151
			C352.568,257.28,349.118,259.596,345.427,259.596z"/>
	</g>
	<g>
		<path class="st1" d="M382.736,249.005c-4.187,0-7.916-2.97-8.726-7.234l-1.381-7.267c-0.917-4.825,2.251-9.48,7.076-10.396
			c4.822-0.916,9.479,2.251,10.396,7.076l1.381,7.267c0.917,4.825-2.251,9.48-7.076,10.396
			C383.845,248.953,383.286,249.005,382.736,249.005z"/>
	</g>
	<g>
		<path class="st1" d="M124.455,376.3c-1.905,0-3.824-0.609-5.446-1.867L86.57,349.259c-3.88-3.011-4.584-8.597-1.574-12.477
			c3.012-3.881,8.599-4.584,12.477-1.574l32.439,25.174c3.88,3.011,4.584,8.597,1.574,12.477
			C129.733,375.118,127.108,376.3,124.455,376.3z"/>
	</g>
	<g>
		<path class="st1" d="M177.003,512c-3.554,0-6.782-2.122-8.181-5.412l-37.459-88.07l-26.87,11.427
			c-4.519,1.923-9.741-0.183-11.663-4.703c-1.922-4.519,0.183-9.741,4.703-11.663l35.053-14.908
			c4.521-1.921,9.741,0.183,11.663,4.702l31.811,74.79l5.362-15.844c1.574-4.652,6.619-7.149,11.274-5.572
			c4.652,1.574,7.147,6.622,5.572,11.274l-12.84,37.936c-1.183,3.494-4.4,5.895-8.086,6.035
			C177.228,511.998,177.115,512,177.003,512z"/>
	</g>
	<g>
		<path class="st1" d="M161.109,342.313c-2.825,0-5.603-1.343-7.328-3.844c-2.788-4.043-1.772-9.581,2.271-12.369l69.612-48.011
			c4.043-2.788,9.581-1.772,12.369,2.271c2.788,4.043,1.772,9.581-2.271,12.369L166.15,340.74
			C164.609,341.803,162.85,342.313,161.109,342.313z"/>
	</g>
	<g>
		<path class="st1" d="M159.322,392.868c-3.511,0-6.836-2.092-8.24-5.544c-1.85-4.549,0.338-9.737,4.887-11.588l116.454-47.367
			c4.55-1.848,9.737,0.338,11.588,4.887c1.85,4.549-0.338,9.737-4.887,11.588L162.669,392.21
			C161.573,392.656,160.438,392.868,159.322,392.868z"/>
	</g>
	<g>
		<path class="st1" d="M234.706,409.519c-3.459,0-6.748-2.03-8.187-5.414l-38.6-90.753c-1.922-4.519,0.183-9.741,4.702-11.664
			c4.52-1.921,9.741,0.183,11.664,4.702l38.6,90.753c1.922,4.519-0.183,9.741-4.702,11.664
			C237.047,409.291,235.867,409.519,234.706,409.519z"/>
	</g>
	<g>
		<path class="st1" d="M224.709,490.624c-1.129,0-2.258-0.215-3.325-0.645c-2.187-0.882-3.935-2.597-4.858-4.767l-23.784-55.917
			c-1.922-4.519,0.183-9.741,4.702-11.664l75.36-32.054c2.171-0.923,4.619-0.946,6.806-0.064c2.187,0.882,3.935,2.597,4.858,4.767
			l23.784,55.917c1.922,4.519-0.183,9.741-4.702,11.664l-75.36,32.054C227.078,490.387,225.893,490.624,224.709,490.624z
			 M212.589,430.518l16.822,39.551l58.994-25.093l-16.822-39.551L212.589,430.518z"/>
	</g>
</g>
</svg>
