<?xml version="1.0" encoding="utf-8"?>
<!-- Generator: Adobe Illustrator 23.1.0, SVG Export Plug-In . SVG Version: 6.00 Build 0)  -->
<svg version="1.1" id="Layer_1" xmlns="http://www.w3.org/2000/svg" xmlns:xlink="http://www.w3.org/1999/xlink" x="0px" y="0px"
	 viewBox="0 0 512 512" style="enable-background:new 0 0 512 512;" xml:space="preserve">
<style type="text/css">
	.st0{fill:#898989;}
	.st1{fill:#9AD3A0;}
</style>
<g>
	<path class="st0" d="M371.297,395.261l4.016-0.789c5.59-1.067,136.687-26.774,136.687-95.81
		c0.001-21.462-6.953-36.801-20.629-45.633c-19.724-12.681-47.535-7.21-64.705-1.779v-16.591c0-17.641-14.359-31.999-32.001-31.999
		H95.991c-17.643,0-32.001,14.357-32.001,32.001v21.334c0,63.495,29.333,121.984,78.316,159.983H10.677
		c-4.309,0-8.192,2.603-9.856,6.592c-1.665,3.989-0.747,8.576,2.304,11.627l23.916,23.936
		c14.123,14.101,32.853,21.868,52.801,21.868h330.973c19.948,0,38.7-7.765,52.845-21.868l23.915-23.936
		c3.051-3.051,3.967-7.638,2.303-11.627s-5.547-6.592-9.856-6.592H348.32C356.536,409.608,364.236,402.711,371.297,395.261z
		 M479.829,271.012c7.275,4.672,10.837,13.739,10.837,27.649c0,35.317-58.885,59.068-98.082,69.831
		c18.546-27.777,30.127-60.046,33.176-94.298C439.33,269.097,465.874,262.023,479.829,271.012z M448.555,443.048
		c-10.069,10.069-23.489,15.616-37.718,15.616H79.841c-14.229,0-27.649-5.547-37.718-15.616l-5.717-5.717h417.865L448.555,443.048z
		 M181.338,415.976c-59.252-31.666-96.015-92.696-96.015-159.984v-21.334c0-5.888,4.779-10.667,10.667-10.667h298.674
		c5.888,0,10.667,4.779,10.667,10.667v21.334c0,67.302-36.778,128.344-96.073,159.984H181.338z"/>
	<path class="st1" d="M311.698,177.314c2.112,2.645,5.205,4.011,8.341,4.011c2.325,0,4.693-0.768,6.656-2.347
		c4.608-3.691,5.355-10.411,1.664-14.997c-11.009-13.718-11.009-36.908,0.021-50.668c17.345-21.676,17.345-55.618,0-77.293
		c-3.691-4.608-10.368-5.376-14.997-1.664c-4.608,3.691-5.355,10.389-1.664,14.997c10.987,13.717,10.987,36.908-0.021,50.668
		C294.333,121.696,294.333,155.638,311.698,177.314z"/>
	<path class="st1" d="M247.611,177.314c2.112,2.645,5.205,4.011,8.341,4.011c2.325,0,4.672-0.768,6.656-2.347
		c4.608-3.691,5.355-10.389,1.664-14.997c-10.987-13.718-10.987-36.908,0.021-50.668c17.365-21.676,17.365-55.618,0-77.293
		c-3.669-4.608-10.389-5.355-14.997-1.664c-4.608,3.691-5.355,10.411-1.664,14.997c11.008,13.717,11.008,36.908-0.021,50.668
		C230.267,121.696,230.267,155.638,247.611,177.314z"/>
	<path class="st1" d="M183.695,177.314c2.112,2.645,5.205,4.011,8.341,4.011c2.325,0,4.693-0.768,6.656-2.325
		c4.608-3.691,5.355-10.411,1.664-14.998c-11.008-13.74-11.008-36.909,0.021-50.669c17.344-21.675,17.344-55.617,0-77.293
		c-3.669-4.608-10.368-5.376-14.997-1.664c-4.587,3.669-5.333,10.389-1.664,14.976c10.987,13.717,10.987,36.908-0.021,50.668
		C166.329,121.696,166.329,155.638,183.695,177.314z"/>
</g>
</svg>
