<?xml version="1.0" encoding="utf-8"?>
<!-- Generator: Adobe Illustrator 23.1.0, SVG Export Plug-In . SVG Version: 6.00 Build 0)  -->
<svg version="1.1" id="Layer_1" xmlns="http://www.w3.org/2000/svg" xmlns:xlink="http://www.w3.org/1999/xlink" x="0px" y="0px"
	 viewBox="0 0 512 512" style="enable-background:new 0 0 512 512;" xml:space="preserve">
<style type="text/css">
	.st0{fill:#EDB96E;}
</style>
<g>
	<path class="st0" d="M265.079,18.623c29.414,0,57.953,6.205,84.824,18.443c26.061,11.869,49.492,28.889,69.644,50.588
		c20.243,21.797,36.144,47.201,47.264,75.509c11.542,29.383,17.394,60.618,17.394,92.838c0,32.127-5.82,63.279-17.298,92.59
		c-11.058,28.238-26.877,53.599-47.018,75.38c-20.047,21.679-43.367,38.718-69.313,50.645c-26.742,12.293-55.159,18.6-84.462,18.747
		l-2.587,0.015H43.931c-1.958-0.755-5.265-2.265-8.384-4.785c-5.288-4.273-7.752-9.546-7.752-16.595V29.921
		c0-6.09,2.054-7.873,3.98-9.066c2.378-1.474,5.322-2.075,6.614-2.232h206.449v0.154l18.754-0.132
		c0.312-0.002,0.624-0.008,0.935-0.014C264.711,18.627,264.894,18.623,265.079,18.623 M265.079,0c-0.541,0-1.078,0.018-1.618,0.022
		V0H37.621c0,0-28.448,1.203-28.448,29.921v442.077C9.173,504.107,40.981,512,40.981,512h225.225v-0.015
		C396.991,511.329,502.827,396.979,502.827,256C502.827,114.615,396.384,0,265.079,0L265.079,0z"/>
	<path class="st0" d="M240.691,158.951v0.142l18.755-0.133c0.179-0.001,0.357-0.004,0.535-0.008l0.096-0.002
		c47.929,0.026,86.913,42.661,86.913,95.063c0,25.571-9.166,49.566-25.81,67.564c-16.288,17.614-37.86,27.378-60.741,27.492
		l-1.237,0.007H165.01V158.949h75.681 M260.032,140.328c-0.24,0-0.479,0.008-0.718,0.01v-0.01H159.021
		c0,0-12.633,0.534-12.633,13.287v196.32c0,14.259,14.125,17.764,14.125,17.764h100.019v-0.007
		c58.08-0.291,105.08-51.072,105.08-113.679C365.613,191.227,318.342,140.328,260.032,140.328L260.032,140.328z"/>
</g>
</svg>
