<?xml version="1.0" encoding="utf-8"?>
<!-- Generator: Adobe Illustrator 23.1.0, SVG Export Plug-In . SVG Version: 6.00 Build 0)  -->
<svg version="1.1" id="Layer_1" xmlns="http://www.w3.org/2000/svg" xmlns:xlink="http://www.w3.org/1999/xlink" x="0px" y="0px"
	 viewBox="0 0 512 512" style="enable-background:new 0 0 512 512;" xml:space="preserve">
<style type="text/css">
	.st0{fill:#F5838B;}
</style>
<g>
	<path class="st0" d="M495.5,37.117v437.765H348.705l-163.443-230.02c-3.154-4.439-8.209-6.944-13.452-6.944
		c-1.671,0-3.361,0.255-5.014,0.782c-6.84,2.183-11.484,8.539-11.484,15.719v220.463H16.5V37.117h146.6l163.462,239.356
		c3.132,4.587,8.277,7.196,13.627,7.196c1.62,0,3.261-0.24,4.868-0.736c6.915-2.136,11.63-8.528,11.63-15.765V37.117H495.5
		 M512,20.617H340.188v246.55L171.812,20.617H0v470.765h171.812V254.42l168.376,236.963H512V20.617L512,20.617z"/>
</g>
</svg>
