<?xml version="1.0" encoding="utf-8"?>
<!-- Generator: Adobe Illustrator 23.1.0, SVG Export Plug-In . SVG Version: 6.00 Build 0)  -->
<svg version="1.1" id="레이어_1" xmlns="http://www.w3.org/2000/svg" xmlns:xlink="http://www.w3.org/1999/xlink" x="0px"
	 y="0px" viewBox="0 0 17 17" style="enable-background:new 0 0 17 17;" xml:space="preserve">
<style type="text/css">
	.st0{fill:#898989;}
</style>
<g>
	<g>
		<path class="st0" d="M16.607,8.107c-0.213,0-0.386,0.173-0.386,0.386c0,4.264-3.457,7.721-7.721,7.721
			c-4.264,0-7.721-3.457-7.721-7.721S4.236,0.772,8.5,0.772c2.43,0,4.719,1.144,6.177,3.089h-3.088
			c-0.213,0-0.386,0.173-0.386,0.386s0.173,0.386,0.386,0.386h3.86c0.213,0,0.386-0.173,0.386-0.386v-3.86
			C15.835,0.173,15.662,0,15.449,0c-0.213,0-0.386,0.173-0.386,0.386v2.729c-2.977-3.625-8.33-4.149-11.954-1.172
			c-3.625,2.977-4.149,8.329-1.172,11.954c2.977,3.625,8.33,4.149,11.954,1.172c1.968-1.616,3.106-4.03,3.102-6.576
			C16.993,8.28,16.821,8.107,16.607,8.107z"/>
	</g>
</g>
</svg>
