<?xml version="1.0" encoding="utf-8"?>
<!-- Generator: Adobe Illustrator 23.1.0, SVG Export Plug-In . SVG Version: 6.00 Build 0)  -->
<svg version="1.1" id="Capa_1" xmlns="http://www.w3.org/2000/svg" xmlns:xlink="http://www.w3.org/1999/xlink" x="0px" y="0px"
	 viewBox="0 0 511.988 511.988" style="enable-background:new 0 0 511.988 511.988;" xml:space="preserve">
<style type="text/css">
	.st0{fill:#FFFFFF;stroke:#FFFFFF;stroke-miterlimit:10;}
</style>
<g>
	<path class="st0" d="M5.434,424.482c-0.883,2.118-0.402,4.539,1.226,6.167l23.917,23.938
		c13.175,13.154,30.672,20.401,49.263,20.401h330.965c18.6,0,36.113-7.248,49.313-20.408l23.908-23.93
		c1.628-1.629,2.108-4.05,1.226-6.168c-0.892-2.136-2.949-3.517-5.242-3.517H333.878l11.534-8.95
		c7.854-6.095,15.352-12.895,22.282-20.21l1.099-1.159l5.546-1.091c5.442-1.038,132.648-26.056,132.648-90.901
		c0.001-19.632-6.17-33.572-18.341-41.432c-18.451-11.863-45.815-5.853-60.483-1.214l-6.508,2.059v-23.416
		c0-14.887-12.112-26.998-27-26.998H95.988c-14.888,0-27,12.112-27,27v21.333c0,61.539,27.779,118.409,76.215,156.03l11.521,8.949
		H10.676C8.383,420.966,6.326,422.347,5.434,424.482z M420.866,273.705l0.278-3.136l2.949-1.104
		c9.279-3.476,40.922-13.941,58.431-2.662c8.833,5.673,13.13,16.093,13.13,31.852c0,42.121-71.074,66.219-101.632,74.624
		l-12.925,3.555l7.439-11.15C406.772,338.349,417.952,306.543,420.866,273.705z M80.321,255.986v-21.333
		c0-8.639,7.028-15.667,15.667-15.667h298.667c8.639,0,15.667,7.028,15.667,15.667v21.333c0,46.487-17.13,90.939-48.235,125.168
		l-0.236,0.243c-0.193,0.186-0.368,0.377-0.52,0.567l-0.24,0.28c-14.201,15.381-30.82,28.21-49.396,38.131l-1.104,0.59H179.991
		l-1.105-0.591C118.089,387.853,80.321,324.863,80.321,255.986z M466.331,432.321l-14.253,14.252
		c-11.015,11.015-25.665,17.081-41.252,17.081H79.839c-15.588,0-30.238-6.066-41.252-17.081l-14.252-14.252H466.331z"/>
	<g>
		<path class="st0" d="M323.555,175.078c1.196-0.959,1.942-2.316,2.108-3.828c0.163-1.498-0.266-2.967-1.207-4.138
			c-12.586-15.685-12.577-41.22,0.015-56.929c15.936-19.916,15.936-51.122-0.003-71.04c-0.953-1.19-2.304-1.939-3.8-2.107
			c-0.211-0.024-0.422-0.036-0.631-0.036c-1.276,0-2.512,0.435-3.534,1.255c-1.19,0.953-1.937,2.304-2.103,3.806
			c-0.167,1.5,0.264,2.979,1.213,4.164c12.557,15.675,12.548,41.208-0.019,56.917c-15.959,19.92-15.959,51.124-0.002,71.042
			l0.006,0.007c1.08,1.354,2.696,2.13,4.433,2.13C321.306,176.321,322.558,175.879,323.555,175.078z"/>
		<path class="st0" d="M251.512,174.19c1.081,1.354,2.697,2.13,4.434,2.13c1.283,0,2.507-0.435,3.542-1.258
			c1.177-0.942,1.923-2.293,2.089-3.795c0.167-1.5-0.264-2.979-1.213-4.164c-12.556-15.677-12.547-41.209,0.02-56.917
			c15.959-19.92,15.959-51.124,0.002-71.041c-0.948-1.191-2.291-1.933-3.79-2.101c-0.215-0.024-0.429-0.036-0.641-0.036
			c-1.283,0-2.52,0.433-3.538,1.248c-1.19,0.953-1.937,2.311-2.102,3.822c-0.164,1.498,0.265,2.968,1.207,4.138
			c12.585,15.683,12.578,41.219-0.015,56.929c-15.936,19.916-15.936,51.121,0.002,71.04L251.512,174.19z"/>
		<path class="st0" d="M195.58,175.079c1.171-0.938,1.918-2.296,2.083-3.807c0.164-1.498-0.265-2.968-1.207-4.138
			c-12.577-15.698-12.567-41.233,0.015-56.93c15.936-19.916,15.936-51.122-0.002-71.04c-0.952-1.195-2.296-1.94-3.794-2.107
			c-0.211-0.023-0.422-0.035-0.631-0.035c-1.28,0-2.518,0.435-3.54,1.255c-2.439,1.951-2.835,5.517-0.887,7.952
			c12.554,15.673,12.545,41.205-0.021,56.914c-15.958,19.92-15.958,51.124-0.002,71.041l0.005,0.006
			c1.081,1.354,2.697,2.13,4.434,2.13C193.31,176.321,194.57,175.88,195.58,175.079z"/>
	</g>
</g>
</svg>
