<?xml version="1.0" encoding="utf-8"?>
<!-- Generator: Adobe Illustrator 23.1.0, SVG Export Plug-In . SVG Version: 6.00 Build 0)  -->
<svg version="1.1" id="레이어_1" xmlns="http://www.w3.org/2000/svg" xmlns:xlink="http://www.w3.org/1999/xlink" x="0px"
	 y="0px" viewBox="0 0 65 20" style="enable-background:new 0 0 65 20;" xml:space="preserve">
<style type="text/css">
	.st0{fill:#008CDB;}
	.st1{fill:#FFFFFF;}
</style>
<path class="st0" d="M59.9,20H5.1C2.283,20,0,17.717,0,14.9V0h65v14.9C65,17.717,62.717,20,59.9,20z"/>
<g>
	<path class="st1" d="M21.465,5.328c-0.155-0.155-0.233-0.349-0.233-0.563c0-0.214,0.078-0.407,0.233-0.563
		c0.311-0.311,0.816-0.311,1.127,0l9.908,9.908l9.908-9.908c0.311-0.311,0.816-0.311,1.127,0c0.311,0.311,0.311,0.816,0,1.127
		L33.063,15.799c-0.311,0.311-0.816,0.311-1.127,0L21.465,5.328z"/>
</g>
</svg>
