<?xml version="1.0" encoding="utf-8"?>
<!-- Generator: Adobe Illustrator 23.1.0, SVG Export Plug-In . SVG Version: 6.00 Build 0)  -->
<svg version="1.1" id="Capa_1" xmlns="http://www.w3.org/2000/svg" xmlns:xlink="http://www.w3.org/1999/xlink" x="0px" y="0px"
	 viewBox="0 0 60 60" style="enable-background:new 0 0 60 60;" xml:space="preserve">
<style type="text/css">
	.st0{fill:#898989;}
</style>
<path class="st0" d="M29.989,0c8.281,0,15.779,3.366,21.222,8.785C56.633,14.227,60,21.722,60,30s-3.367,15.773-8.789,21.215
	C45.767,56.634,38.27,60,29.989,60S14.211,56.634,8.79,51.215C3.346,45.773,0,38.279,0,30c0-8.278,3.344-15.773,8.789-21.215
	C14.211,3.366,21.708,0,29.989,0L29.989,0z M45.285,28.363c0.9,0,1.615,0.738,1.615,1.637c0,0.899-0.715,1.637-1.615,1.637H30.036
	h-0.047c-0.6,0-1.131-0.346-1.407-0.83l-0.023-0.023l0,0l-0.023-0.046l0,0v-0.023l0,0l-0.023-0.046l0,0l-0.023-0.046l0,0V30.6l0,0
	l-0.023-0.046l0,0l-0.023-0.023l0,0v-0.046l0,0l-0.023-0.046l0,0v-0.023l0,0l-0.023-0.046l0,0v-0.05l0,0v-0.023v-0.023l-0.023-0.023
	l0,0v-0.046l0,0v-0.046l0,0v-0.041l0,0v-0.023l0,0v-0.046l0,0V30l0,0V10.469c0-0.899,0.715-1.614,1.615-1.614
	s1.638,0.715,1.638,1.614v17.894C31.628,28.363,45.285,28.363,45.285,28.363z M48.905,11.092C44.061,6.25,37.371,3.275,29.989,3.275
	s-14.072,2.974-18.916,7.817C6.252,15.934,3.253,22.621,3.253,30s2.998,14.066,7.821,18.909c4.844,4.842,11.534,7.817,18.916,7.817
	s14.072-2.975,18.916-7.817S56.749,37.38,56.749,30C56.749,22.621,53.75,15.934,48.905,11.092L48.905,11.092z"/>
</svg>
