<?xml version="1.0" encoding="utf-8"?>
<!-- Generator: Adobe Illustrator 23.1.0, SVG Export Plug-In . SVG Version: 6.00 Build 0)  -->
<svg version="1.1" id="레이어_1" xmlns="http://www.w3.org/2000/svg" xmlns:xlink="http://www.w3.org/1999/xlink" x="0px"
	 y="0px" viewBox="0 0 100 100" style="enable-background:new 0 0 100 100;" xml:space="preserve">
<style type="text/css">
	.st0{fill:#FFFFFF;}
</style>
<g>
	<path class="st0" d="M42.9,50.1c1.7-0.6,2.9-2.2,2.9-4.1c0-2.4-1.9-4.3-4.3-4.3c-2.4,0-4.3,1.9-4.3,4.3c0,1.8,1.2,3.5,2.9,4.1
		c0.2,0.1,0.4,0.3,0.4,0.6v1.9c0,0.6,0.5,1,1,1c0.6,0,1-0.5,1-1v-1.9C42.5,50.4,42.7,50.1,42.9,50.1z M41.5,48.2
		c-1.2,0-2.3-1-2.3-2.3c0-1.2,1-2.3,2.3-2.3c1.2,0,2.3,1,2.3,2.3C43.8,47.2,42.7,48.2,41.5,48.2z"/>
	<path class="st0" d="M73.4,84.7c0.1-0.1,0.2-0.1,0.3-0.1c0.2,0,0.3,0.1,0.4,0.2l14,14c0.8,0.8,1.8,1.2,2.9,1.2
		c1.1,0,2.1-0.4,2.9-1.2c0.8-0.8,1.2-1.8,1.2-2.9c0-1.1-0.4-2.1-1.2-2.9l0,0l-14-14c-0.2-0.2-0.2-0.5-0.1-0.8
		c2.2-3.4,3.3-7.3,3.3-11.4c0-5.3-2-10.4-5.6-14.3c-0.1-0.1-0.2-0.3-0.1-0.5c0.1-0.4,0.1-0.7,0.1-0.7c0.4-2.1,0.6-4.3,0.6-6.5V14.3
		c0-0.9-0.6-1.7-1.5-1.9c-3-0.7-6.2-1.7-9.4-3L64,7.8c-1.9-1-3.9-2-5.8-3.2c-10.3-6.2-23-6.2-33.3,0c-6.3,3.8-12.6,6.4-18.5,7.8
		c-0.8,0.2-1.5,1-1.5,1.9v30.6c0,7.8,2.2,15.1,6.5,21.1c0.1,0.2,2.5,3.3,4.3,5.1c2.2,2.4,4.7,4.6,7.2,6.6l3.3,2.4
		c4.5,3.1,9.4,5.7,14.7,7.7c0.4,0.2,0.9,0.2,1.4,0c2.5-1,5-2.1,7.3-3.3c0.2-0.1,0.4-0.1,0.6,0c3.5,2.4,7.6,3.7,11.9,3.7
		C66.1,88,70,86.9,73.4,84.7z M83.1,84.9c0.2,0,0.3,0.1,0.4,0.2l9.2,9.2c0.4,0.4,0.7,1,0.7,1.7s-0.2,1.2-0.7,1.7l0,0l0,0
		c-0.4,0.4-1,0.7-1.7,0.7s-1.2-0.2-1.7-0.7l-9.2-9.2c-0.1-0.1-0.2-0.3-0.2-0.4c0-0.2,0.1-0.3,0.2-0.4c0.8-0.7,1.6-1.6,2.4-2.4
		C82.8,85,82.9,84.9,83.1,84.9z M81.5,83c0.2,0.2,0.2,0.6,0,0.8c-0.8,0.9-1.6,1.7-2.5,2.5c-0.1,0.1-0.3,0.1-0.4,0.1
		c-0.2,0-0.3-0.1-0.4-0.2l-2.5-2.5c-0.1-0.1-0.2-0.3-0.2-0.4c0-0.2,0.1-0.3,0.2-0.4c0.9-0.7,1.7-1.5,2.4-2.4
		c0.1-0.1,0.3-0.2,0.4-0.2c0.2,0,0.3,0.1,0.4,0.2L81.5,83z M47.6,82.7c0,0.2-0.2,0.4-0.3,0.4c-1.8,0.9-3.7,1.7-5.5,2.5
		c-0.1,0-0.1,0-0.2,0c-0.1,0-0.1,0-0.2,0c-9.4-3.7-17.5-9.1-24.2-16.1c0,0-2-2.2-4.1-4.8l0,0c-4-5.7-6.1-12.5-6.1-19.9v-30
		c0-0.3,0.2-0.5,0.5-0.6c6-1.4,12.2-4,18.5-7.9c9.6-5.8,21.6-5.8,31.2,0c2.8,1.7,5.6,3.1,8.4,4.4c0,0,0,0,0.1,0c0,0,0,0,0,0
		c3.4,1.5,6.8,2.7,10.1,3.4c0.3,0.1,0.5,0.3,0.5,0.6v30c0,1.6-0.1,3.1-0.3,4.7c0,0.2-0.2,0.4-0.4,0.5c-0.2,0.1-0.4,0.1-0.6-0.1
		c-0.9-0.7-2-1.3-3-1.9c-0.2-0.1-0.3-0.3-0.3-0.6c0.1-0.9,0.1-1.8,0.1-2.6V19.3c0-0.8-0.5-1.6-1.3-1.8c-5.1-1.6-10.3-4-15.5-7.2
		c-4-2.4-8.6-3.7-13.3-3.7s-9.3,1.3-13.3,3.7l-0.3,0.2c0,0,0,0,0,0l-5.7,3.1c0,0,0,0,0,0c-3.1,1.6-6.3,2.8-9.4,3.8
		c-0.8,0.2-1.3,1-1.3,1.8v25.6c0,7.3,2.4,14.1,6.8,19.2c6.1,7.1,13.7,12.6,22.6,16.5c0.4,0.2,0.9,0.2,1.3,0c0.7-0.3,1.4-0.6,2.3-1
		c0.3-0.1,0.6,0,0.8,0.2c0.7,0.9,1.4,1.7,2.2,2.5C47.6,82.3,47.6,82.5,47.6,82.7z M50.3,37.8h-0.6c-0.3,0-0.6-0.3-0.6-0.6v-2.7
		c0-4.2-3.4-7.6-7.6-7.6s-7.6,3.4-7.6,7.6v2.7c0,0.3-0.3,0.6-0.6,0.6h-0.6c-1.8,0-3.2,1.5-3.2,3.2v13.2c0,1.8,1.5,3.2,3.2,3.2h9.4
		c0.2,0,0.4,0.1,0.5,0.3c0.1,0.2,0.1,0.4,0,0.6c-1.2,2.7-1.8,5.6-1.8,8.5c0,3.5,0.9,7,2.6,10.1c0.1,0.1,0.1,0.3,0,0.5
		c-0.1,0.2-0.2,0.3-0.3,0.4c-0.6,0.2-1,0.4-1.4,0.6c-0.1,0-0.2,0.1-0.2,0.1s-0.2,0-0.2-0.1c-8.4-3.7-15.6-9-21.4-15.7
		c-4.1-4.7-6.3-11.1-6.3-17.9v-25c0-0.3,0.2-0.5,0.4-0.6c3-1,6.1-2.3,9.1-3.8l5.9-3.2l0.3-0.2c3.7-2.2,7.9-3.4,12.2-3.4
		s8.5,1.2,12.2,3.4c5.2,3.1,10.3,5.5,15.4,7.2c0.2,0.1,0.4,0.3,0.4,0.6v25c0,0.4,0,0.8,0,1.3c0,0.2-0.1,0.4-0.3,0.5
		c-0.2,0.1-0.4,0.1-0.5,0.1c-2.1-0.7-4.4-1.1-6.6-1.1c-2.6,0-5.2,0.5-7.7,1.4c-0.2,0.1-0.4,0-0.6-0.1c-0.2-0.1-0.3-0.3-0.3-0.5V41
		C53.5,39.2,52.1,37.8,50.3,37.8z M50.3,39.9c0.6,0,1.2,0.5,1.2,1.2v7.1c0,0.2-0.1,0.4-0.3,0.5c-2.7,1.6-5,3.8-6.7,6.4
		c-0.1,0.2-0.3,0.3-0.5,0.3H32.7c-0.6,0-1.2-0.5-1.2-1.2V41c0-0.6,0.5-1.2,1.2-1.2L50.3,39.9L50.3,39.9z M35.9,37.2v-2.7
		c0-3.1,2.5-5.6,5.6-5.6c3.1,0,5.6,2.5,5.6,5.6v2.7c0,0.3-0.3,0.6-0.6,0.6h-9.9C36.2,37.8,35.9,37.5,35.9,37.2z M42.6,66.9
		c0-10.7,8.7-19.4,19.4-19.4s19.4,8.7,19.4,19.4c0,4.1-1.3,8.1-3.7,11.4c-1.2,1.7-2.7,3.1-4.3,4.3l0,0c-3.3,2.4-7.3,3.7-11.4,3.7
		C51.3,86.3,42.6,77.6,42.6,66.9z"/>
	<path class="st0" d="M62,50c-9.3,0-16.9,7.6-16.9,16.9S52.7,83.7,62,83.7s16.9-7.6,16.9-16.9S71.3,50,62,50z M62,82
		c-8.4,0-15.2-6.8-15.2-15.2c0-8.4,6.8-15.2,15.2-15.2c8.4,0,15.2,6.8,15.2,15.2C77.2,75.2,70.4,82,62,82z"/>
	<path class="st0" d="M73.3,63.5c0.4-0.2,0.7-0.7,0.5-1.1c-0.9-2.4-2.5-4.4-4.6-5.8c-2.1-1.5-4.6-2.3-7.2-2.3
		c-0.5,0-0.9,0.4-0.9,0.9c0,0.5,0.4,0.9,0.9,0.9c4.5,0,8.6,2.8,10.2,7c0.1,0.3,0.4,0.6,0.8,0.6C73.1,63.5,73.2,63.5,73.3,63.5z"/>
	<path class="st0" d="M74.6,66.9c0-0.5-0.4-0.9-0.9-0.9c-0.5,0-0.9,0.4-0.9,0.9c0,0.5,0.4,0.9,0.9,0.9
		C74.3,67.7,74.6,67.3,74.6,66.9z"/>
</g>
</svg>
