<svg id="레이어_1" data-name="레이어 1" xmlns="http://www.w3.org/2000/svg" width="27.61469" height="22.82835" viewBox="0 0 27.61469 22.82835">
  <defs>
    <style>
      .cls-1 {
        opacity: 0.4;
      }

      .cls-2, .cls-3 {
        fill: #fff;
      }

      .cls-3 {
        isolation: isolate;
        opacity: 0.7;
      }
    </style>
  </defs>
  <g id="그룹_10" data-name="그룹 10">
    <g id="그룹_7" data-name="그룹 7" class="cls-1">
      <path id="패스_3" data-name="패스 3" class="cls-2" d="M1.37868,22.58917a.8.8,0,0,1-1.13135.00867l-.00867-.00867A.8.8,0,0,1,.23,21.45782l.00866-.00866,10.035-10.035L.23866,1.37811a.807.807,0,0,1,1.14-1.142l10.608,10.608a.81006.81006,0,0,1,0,1.141Z"/>
    </g>
    <g id="그룹_8" data-name="그룹 8">
      <path id="패스_4" data-name="패스 4" class="cls-3" d="M9.07472,22.58917a.8.8,0,0,1-1.13134.00965l-.00965-.00965a.807.807,0,0,1,0-1.14l10.035-10.035-10.035-10.036a.80714.80714,0,1,1,1.141-1.142l10.607,10.608a.809.809,0,0,1,0,1.141Z"/>
    </g>
    <g id="그룹_9" data-name="그룹 9">
      <path id="패스_5" data-name="패스 5" class="cls-2" d="M16.77174,22.58917a.8.8,0,0,1-1.13134.00867l-.00867-.00867a.805.805,0,0,1-.00159-1.13843l.00159-.00158,10.035-10.035-10.035-10.036a.807.807,0,0,1,1.14-1.142l10.608,10.608a.81006.81006,0,0,1,0,1.141Z"/>
    </g>
  </g>
</svg>
