<?xml version="1.0" encoding="utf-8"?>
<!-- Generator: Adobe Illustrator 25.4.1, SVG Export Plug-In . SVG Version: 6.00 Build 0)  -->
<svg version="1.1" id="레이어_1" xmlns="http://www.w3.org/2000/svg" xmlns:xlink="http://www.w3.org/1999/xlink" x="0px"
	 y="0px" viewBox="0 0 18 18" style="enable-background:new 0 0 18 18;" xml:space="preserve">
<style type="text/css">
	.st0{fill:#898989;}
</style>
<g>
	<path id="question" class="st0" d="M9.64982,14.15329H8.25707v-1.3986h1.39275V14.15329z M9.64982,10.06689
		c1.56118-0.39494,2.50657-1.98057,2.11161-3.54162C11.36646,4.96422,9.78069,4.0189,8.21951,4.41384
		C7.7234,4.53934,7.26905,4.79319,6.90213,5.14989c-0.56825,0.54243-0.88872,1.29445-0.88639,2.08h1.39971
		C7.41522,6.82634,7.58022,6.44028,7.87208,6.16154c0.30562-0.29393,0.71844-0.44962,1.14205-0.43072
		c0.83362,0.02598,1.48834,0.72277,1.46236,1.55633c-0.02155,0.69135-0.51012,1.27967-1.1858,1.42789
		C8.68618,8.8448,8.25506,9.38002,8.25707,9.99826v1.35782h1.39275V10.06689z M15.28151,15.37781
		c3.5488-3.44316,3.6342-9.11103,0.19076-12.65954S6.3605-0.91564,2.8117,2.52752C2.74766,2.58966,2.68456,2.65274,2.6224,2.71676
		c-3.49654,3.49625-3.49654,9.1648,0,12.66105s9.16555,3.49625,12.66209,0H15.28151z M16.50812,9.04629
		c0.0011,4.17199-3.38035,7.55495-7.55268,7.55605s-7.55556-3.38008-7.55666-7.55207s3.38035-7.55495,7.55268-7.55605
		c0.00066,0,0.00133,0,0.00199,0C13.12364,1.49751,16.50373,4.87644,16.50812,9.04629z"/>
</g>
</svg>
